%TF.GenerationSoftware,KiCad,Pcbnew,10.0.3*%
%TF.CreationDate,2026-07-11T16:41:55+07:00*%
%TF.ProjectId,OmniDrive,4f6d6e69-4472-4697-9665-2e6b69636164,rev?*%
%TF.SameCoordinates,Original*%
%TF.FileFunction,Legend,Top*%
%TF.FilePolarity,Positive*%
%FSLAX46Y46*%
G04 Gerber Fmt 4.6, Leading zero omitted, Abs format (unit mm)*
G04 Created by KiCad (PCBNEW 10.0.3) date 2026-07-11 16:41:55*
%MOMM*%
%LPD*%
G01*
G04 APERTURE LIST*
%ADD10C,0.325000*%
%ADD11C,0.300000*%
%ADD12C,0.100000*%
%ADD13C,0.175000*%
%ADD14C,0.200000*%
%ADD15C,0.250000*%
%ADD16C,0.125000*%
%ADD17C,0.120000*%
G04 APERTURE END LIST*
D10*
X169806947Y-97823338D02*
X169806947Y-98256672D01*
X169125995Y-98442386D02*
X169125995Y-97823338D01*
X169125995Y-97823338D02*
X170425995Y-97823338D01*
X170425995Y-97823338D02*
X170425995Y-98442386D01*
X169187900Y-98937624D02*
X169125995Y-99123338D01*
X169125995Y-99123338D02*
X169125995Y-99432862D01*
X169125995Y-99432862D02*
X169187900Y-99556671D01*
X169187900Y-99556671D02*
X169249804Y-99618576D01*
X169249804Y-99618576D02*
X169373614Y-99680481D01*
X169373614Y-99680481D02*
X169497423Y-99680481D01*
X169497423Y-99680481D02*
X169621233Y-99618576D01*
X169621233Y-99618576D02*
X169683138Y-99556671D01*
X169683138Y-99556671D02*
X169745042Y-99432862D01*
X169745042Y-99432862D02*
X169806947Y-99185243D01*
X169806947Y-99185243D02*
X169868852Y-99061433D01*
X169868852Y-99061433D02*
X169930757Y-98999528D01*
X169930757Y-98999528D02*
X170054566Y-98937624D01*
X170054566Y-98937624D02*
X170178376Y-98937624D01*
X170178376Y-98937624D02*
X170302185Y-98999528D01*
X170302185Y-98999528D02*
X170364090Y-99061433D01*
X170364090Y-99061433D02*
X170425995Y-99185243D01*
X170425995Y-99185243D02*
X170425995Y-99494766D01*
X170425995Y-99494766D02*
X170364090Y-99680481D01*
X169125995Y-100237623D02*
X170425995Y-100237623D01*
X170425995Y-100237623D02*
X170425995Y-100732861D01*
X170425995Y-100732861D02*
X170364090Y-100856671D01*
X170364090Y-100856671D02*
X170302185Y-100918576D01*
X170302185Y-100918576D02*
X170178376Y-100980480D01*
X170178376Y-100980480D02*
X169992661Y-100980480D01*
X169992661Y-100980480D02*
X169868852Y-100918576D01*
X169868852Y-100918576D02*
X169806947Y-100856671D01*
X169806947Y-100856671D02*
X169745042Y-100732861D01*
X169745042Y-100732861D02*
X169745042Y-100237623D01*
X170425995Y-101413814D02*
X170425995Y-102218576D01*
X170425995Y-102218576D02*
X169930757Y-101785242D01*
X169930757Y-101785242D02*
X169930757Y-101970957D01*
X169930757Y-101970957D02*
X169868852Y-102094766D01*
X169868852Y-102094766D02*
X169806947Y-102156671D01*
X169806947Y-102156671D02*
X169683138Y-102218576D01*
X169683138Y-102218576D02*
X169373614Y-102218576D01*
X169373614Y-102218576D02*
X169249804Y-102156671D01*
X169249804Y-102156671D02*
X169187900Y-102094766D01*
X169187900Y-102094766D02*
X169125995Y-101970957D01*
X169125995Y-101970957D02*
X169125995Y-101599528D01*
X169125995Y-101599528D02*
X169187900Y-101475719D01*
X169187900Y-101475719D02*
X169249804Y-101413814D01*
X170302185Y-102713814D02*
X170364090Y-102775718D01*
X170364090Y-102775718D02*
X170425995Y-102899528D01*
X170425995Y-102899528D02*
X170425995Y-103209052D01*
X170425995Y-103209052D02*
X170364090Y-103332861D01*
X170364090Y-103332861D02*
X170302185Y-103394766D01*
X170302185Y-103394766D02*
X170178376Y-103456671D01*
X170178376Y-103456671D02*
X170054566Y-103456671D01*
X170054566Y-103456671D02*
X169868852Y-103394766D01*
X169868852Y-103394766D02*
X169125995Y-102651909D01*
X169125995Y-102651909D02*
X169125995Y-103456671D01*
X169621233Y-104013813D02*
X169621233Y-105004290D01*
X170425995Y-105499528D02*
X169125995Y-105809052D01*
X169125995Y-105809052D02*
X170054566Y-106056671D01*
X170054566Y-106056671D02*
X169125995Y-106304290D01*
X169125995Y-106304290D02*
X170425995Y-106613814D01*
X169125995Y-107851908D02*
X169745042Y-107418575D01*
X169125995Y-107109051D02*
X170425995Y-107109051D01*
X170425995Y-107109051D02*
X170425995Y-107604289D01*
X170425995Y-107604289D02*
X170364090Y-107728099D01*
X170364090Y-107728099D02*
X170302185Y-107790004D01*
X170302185Y-107790004D02*
X170178376Y-107851908D01*
X170178376Y-107851908D02*
X169992661Y-107851908D01*
X169992661Y-107851908D02*
X169868852Y-107790004D01*
X169868852Y-107790004D02*
X169806947Y-107728099D01*
X169806947Y-107728099D02*
X169745042Y-107604289D01*
X169745042Y-107604289D02*
X169745042Y-107109051D01*
X170425995Y-108656670D02*
X170425995Y-108904289D01*
X170425995Y-108904289D02*
X170364090Y-109028099D01*
X170364090Y-109028099D02*
X170240280Y-109151908D01*
X170240280Y-109151908D02*
X169992661Y-109213813D01*
X169992661Y-109213813D02*
X169559328Y-109213813D01*
X169559328Y-109213813D02*
X169311709Y-109151908D01*
X169311709Y-109151908D02*
X169187900Y-109028099D01*
X169187900Y-109028099D02*
X169125995Y-108904289D01*
X169125995Y-108904289D02*
X169125995Y-108656670D01*
X169125995Y-108656670D02*
X169187900Y-108532861D01*
X169187900Y-108532861D02*
X169311709Y-108409051D01*
X169311709Y-108409051D02*
X169559328Y-108347147D01*
X169559328Y-108347147D02*
X169992661Y-108347147D01*
X169992661Y-108347147D02*
X170240280Y-108409051D01*
X170240280Y-108409051D02*
X170364090Y-108532861D01*
X170364090Y-108532861D02*
X170425995Y-108656670D01*
X170425995Y-110018575D02*
X170425995Y-110266194D01*
X170425995Y-110266194D02*
X170364090Y-110390004D01*
X170364090Y-110390004D02*
X170240280Y-110513813D01*
X170240280Y-110513813D02*
X169992661Y-110575718D01*
X169992661Y-110575718D02*
X169559328Y-110575718D01*
X169559328Y-110575718D02*
X169311709Y-110513813D01*
X169311709Y-110513813D02*
X169187900Y-110390004D01*
X169187900Y-110390004D02*
X169125995Y-110266194D01*
X169125995Y-110266194D02*
X169125995Y-110018575D01*
X169125995Y-110018575D02*
X169187900Y-109894766D01*
X169187900Y-109894766D02*
X169311709Y-109770956D01*
X169311709Y-109770956D02*
X169559328Y-109709052D01*
X169559328Y-109709052D02*
X169992661Y-109709052D01*
X169992661Y-109709052D02*
X170240280Y-109770956D01*
X170240280Y-109770956D02*
X170364090Y-109894766D01*
X170364090Y-109894766D02*
X170425995Y-110018575D01*
X169125995Y-111132861D02*
X170425995Y-111132861D01*
X170425995Y-111132861D02*
X169497423Y-111566195D01*
X169497423Y-111566195D02*
X170425995Y-111999528D01*
X170425995Y-111999528D02*
X169125995Y-111999528D01*
D11*
X133740000Y-77290000D02*
X133240000Y-77290000D01*
X133740000Y-77490000D02*
X133740000Y-77290000D01*
X133740000Y-77690000D02*
X133740000Y-77490000D01*
X133740000Y-78590000D02*
X133740000Y-77690000D01*
X133740000Y-78590000D02*
X133740000Y-79890000D01*
X133740000Y-78590000D02*
X134040000Y-78590000D01*
X133740000Y-79890000D02*
X133240000Y-79890000D01*
X133740000Y-82390000D02*
X133240000Y-82390000D01*
X133740000Y-82590000D02*
X133740000Y-82390000D01*
X133740000Y-82790000D02*
X133740000Y-82590000D01*
X133740000Y-83690000D02*
X133740000Y-82790000D01*
X133740000Y-83690000D02*
X133740000Y-84990000D01*
X133740000Y-83690000D02*
X134040000Y-83690000D01*
X133740000Y-84990000D02*
X133240000Y-84990000D01*
X133740000Y-87490000D02*
X133240000Y-87490000D01*
X133740000Y-87690000D02*
X133740000Y-87490000D01*
X133740000Y-87890000D02*
X133740000Y-87690000D01*
X133740000Y-88790000D02*
X133740000Y-87890000D01*
X133740000Y-88790000D02*
X133740000Y-90090000D01*
X133740000Y-88790000D02*
X134040000Y-88790000D01*
X133740000Y-90090000D02*
X133240000Y-90090000D01*
X133740000Y-92490000D02*
X133240000Y-92490000D01*
X133740000Y-92690000D02*
X133740000Y-92490000D01*
X133740000Y-92890000D02*
X133740000Y-92690000D01*
X133740000Y-93790000D02*
X133740000Y-92890000D01*
X133740000Y-93790000D02*
X133740000Y-95090000D01*
X133740000Y-93790000D02*
X134040000Y-93790000D01*
X133740000Y-95090000D02*
X133240000Y-95090000D01*
D12*
X144887500Y-88549999D02*
X144887500Y-89349999D01*
X144887500Y-89749999D02*
X144887500Y-90949999D01*
X144887500Y-91349999D02*
X144887500Y-92549999D01*
X144887500Y-92949999D02*
X144887500Y-93749999D01*
X144887500Y-93749999D02*
X145687500Y-93749999D01*
X145000000Y-77800000D02*
X145000000Y-78600000D01*
X145000000Y-79000000D02*
X145000000Y-80200000D01*
X145000000Y-80600000D02*
X145000000Y-81800000D01*
X145000000Y-82200000D02*
X145000000Y-83000000D01*
X145000000Y-83000000D02*
X145800000Y-83000000D01*
X145687500Y-88549999D02*
X144887500Y-88549999D01*
X145800000Y-77800000D02*
X145000000Y-77800000D01*
X147287500Y-88549999D02*
X146087500Y-88549999D01*
X147287500Y-93749999D02*
X146087500Y-93749999D01*
X147400000Y-77800000D02*
X146200000Y-77800000D01*
X147400000Y-83000000D02*
X146200000Y-83000000D01*
X148887500Y-88549999D02*
X147687500Y-88549999D01*
X148887500Y-93749999D02*
X147687500Y-93749999D01*
X149000000Y-77800000D02*
X147800000Y-77800000D01*
X149000000Y-83000000D02*
X147800000Y-83000000D01*
X150487500Y-88549999D02*
X149287500Y-88549999D01*
X150487500Y-93749999D02*
X149287500Y-93749999D01*
X150600000Y-77800000D02*
X149400000Y-77800000D01*
X150600000Y-83000000D02*
X149400000Y-83000000D01*
X152087500Y-93749999D02*
X150887500Y-93749999D01*
X152200000Y-83000000D02*
X151000000Y-83000000D01*
X153687500Y-88549999D02*
X153187500Y-88549999D01*
X153687500Y-88949999D02*
X153687500Y-88549999D01*
X153687500Y-89349999D02*
X153687500Y-90549999D01*
X153687500Y-91049999D02*
X153687500Y-92249999D01*
X153687500Y-93749999D02*
X152487500Y-93749999D01*
X153687500Y-93749999D02*
X153687500Y-92649999D01*
X153800000Y-77800000D02*
X153300000Y-77800000D01*
X153800000Y-78200000D02*
X153800000Y-77800000D01*
X153800000Y-78600000D02*
X153800000Y-79800000D01*
X153800000Y-80300000D02*
X153800000Y-81500000D01*
X153800000Y-83000000D02*
X152600000Y-83000000D01*
X153800000Y-83000000D02*
X153800000Y-81900000D01*
D13*
X147955233Y-100384869D02*
X148655233Y-100218202D01*
X148655233Y-100218202D02*
X148155233Y-100084869D01*
X148155233Y-100084869D02*
X148655233Y-99951535D01*
X148655233Y-99951535D02*
X147955233Y-99784869D01*
X148621900Y-99551535D02*
X148655233Y-99451535D01*
X148655233Y-99451535D02*
X148655233Y-99284869D01*
X148655233Y-99284869D02*
X148621900Y-99218202D01*
X148621900Y-99218202D02*
X148588566Y-99184869D01*
X148588566Y-99184869D02*
X148521900Y-99151535D01*
X148521900Y-99151535D02*
X148455233Y-99151535D01*
X148455233Y-99151535D02*
X148388566Y-99184869D01*
X148388566Y-99184869D02*
X148355233Y-99218202D01*
X148355233Y-99218202D02*
X148321900Y-99284869D01*
X148321900Y-99284869D02*
X148288566Y-99418202D01*
X148288566Y-99418202D02*
X148255233Y-99484869D01*
X148255233Y-99484869D02*
X148221900Y-99518202D01*
X148221900Y-99518202D02*
X148155233Y-99551535D01*
X148155233Y-99551535D02*
X148088566Y-99551535D01*
X148088566Y-99551535D02*
X148021900Y-99518202D01*
X148021900Y-99518202D02*
X147988566Y-99484869D01*
X147988566Y-99484869D02*
X147955233Y-99418202D01*
X147955233Y-99418202D02*
X147955233Y-99251535D01*
X147955233Y-99251535D02*
X147988566Y-99151535D01*
X148021900Y-98884868D02*
X147988566Y-98851535D01*
X147988566Y-98851535D02*
X147955233Y-98784868D01*
X147955233Y-98784868D02*
X147955233Y-98618202D01*
X147955233Y-98618202D02*
X147988566Y-98551535D01*
X147988566Y-98551535D02*
X148021900Y-98518202D01*
X148021900Y-98518202D02*
X148088566Y-98484868D01*
X148088566Y-98484868D02*
X148155233Y-98484868D01*
X148155233Y-98484868D02*
X148255233Y-98518202D01*
X148255233Y-98518202D02*
X148655233Y-98918202D01*
X148655233Y-98918202D02*
X148655233Y-98484868D01*
X148255233Y-98084868D02*
X148221900Y-98151535D01*
X148221900Y-98151535D02*
X148188566Y-98184868D01*
X148188566Y-98184868D02*
X148121900Y-98218201D01*
X148121900Y-98218201D02*
X148088566Y-98218201D01*
X148088566Y-98218201D02*
X148021900Y-98184868D01*
X148021900Y-98184868D02*
X147988566Y-98151535D01*
X147988566Y-98151535D02*
X147955233Y-98084868D01*
X147955233Y-98084868D02*
X147955233Y-97951535D01*
X147955233Y-97951535D02*
X147988566Y-97884868D01*
X147988566Y-97884868D02*
X148021900Y-97851535D01*
X148021900Y-97851535D02*
X148088566Y-97818201D01*
X148088566Y-97818201D02*
X148121900Y-97818201D01*
X148121900Y-97818201D02*
X148188566Y-97851535D01*
X148188566Y-97851535D02*
X148221900Y-97884868D01*
X148221900Y-97884868D02*
X148255233Y-97951535D01*
X148255233Y-97951535D02*
X148255233Y-98084868D01*
X148255233Y-98084868D02*
X148288566Y-98151535D01*
X148288566Y-98151535D02*
X148321900Y-98184868D01*
X148321900Y-98184868D02*
X148388566Y-98218201D01*
X148388566Y-98218201D02*
X148521900Y-98218201D01*
X148521900Y-98218201D02*
X148588566Y-98184868D01*
X148588566Y-98184868D02*
X148621900Y-98151535D01*
X148621900Y-98151535D02*
X148655233Y-98084868D01*
X148655233Y-98084868D02*
X148655233Y-97951535D01*
X148655233Y-97951535D02*
X148621900Y-97884868D01*
X148621900Y-97884868D02*
X148588566Y-97851535D01*
X148588566Y-97851535D02*
X148521900Y-97818201D01*
X148521900Y-97818201D02*
X148388566Y-97818201D01*
X148388566Y-97818201D02*
X148321900Y-97851535D01*
X148321900Y-97851535D02*
X148288566Y-97884868D01*
X148288566Y-97884868D02*
X148255233Y-97951535D01*
X148655233Y-97151534D02*
X148655233Y-97551534D01*
X148655233Y-97351534D02*
X147955233Y-97351534D01*
X147955233Y-97351534D02*
X148055233Y-97418201D01*
X148055233Y-97418201D02*
X148121900Y-97484868D01*
X148121900Y-97484868D02*
X148155233Y-97551534D01*
X148021900Y-96884867D02*
X147988566Y-96851534D01*
X147988566Y-96851534D02*
X147955233Y-96784867D01*
X147955233Y-96784867D02*
X147955233Y-96618201D01*
X147955233Y-96618201D02*
X147988566Y-96551534D01*
X147988566Y-96551534D02*
X148021900Y-96518201D01*
X148021900Y-96518201D02*
X148088566Y-96484867D01*
X148088566Y-96484867D02*
X148155233Y-96484867D01*
X148155233Y-96484867D02*
X148255233Y-96518201D01*
X148255233Y-96518201D02*
X148655233Y-96918201D01*
X148655233Y-96918201D02*
X148655233Y-96484867D01*
D14*
X137481101Y-68529790D02*
X137404911Y-68491695D01*
X137404911Y-68491695D02*
X137290625Y-68491695D01*
X137290625Y-68491695D02*
X137176339Y-68529790D01*
X137176339Y-68529790D02*
X137100149Y-68605980D01*
X137100149Y-68605980D02*
X137062054Y-68682171D01*
X137062054Y-68682171D02*
X137023958Y-68834552D01*
X137023958Y-68834552D02*
X137023958Y-68948838D01*
X137023958Y-68948838D02*
X137062054Y-69101219D01*
X137062054Y-69101219D02*
X137100149Y-69177409D01*
X137100149Y-69177409D02*
X137176339Y-69253600D01*
X137176339Y-69253600D02*
X137290625Y-69291695D01*
X137290625Y-69291695D02*
X137366816Y-69291695D01*
X137366816Y-69291695D02*
X137481101Y-69253600D01*
X137481101Y-69253600D02*
X137519197Y-69215504D01*
X137519197Y-69215504D02*
X137519197Y-68948838D01*
X137519197Y-68948838D02*
X137366816Y-68948838D01*
X137862054Y-69291695D02*
X137862054Y-68491695D01*
X137862054Y-68491695D02*
X138319197Y-69291695D01*
X138319197Y-69291695D02*
X138319197Y-68491695D01*
X138700149Y-69291695D02*
X138700149Y-68491695D01*
X138700149Y-68491695D02*
X138890625Y-68491695D01*
X138890625Y-68491695D02*
X139004911Y-68529790D01*
X139004911Y-68529790D02*
X139081101Y-68605980D01*
X139081101Y-68605980D02*
X139119196Y-68682171D01*
X139119196Y-68682171D02*
X139157292Y-68834552D01*
X139157292Y-68834552D02*
X139157292Y-68948838D01*
X139157292Y-68948838D02*
X139119196Y-69101219D01*
X139119196Y-69101219D02*
X139081101Y-69177409D01*
X139081101Y-69177409D02*
X139004911Y-69253600D01*
X139004911Y-69253600D02*
X138890625Y-69291695D01*
X138890625Y-69291695D02*
X138700149Y-69291695D01*
X140543006Y-68491695D02*
X140162054Y-68491695D01*
X140162054Y-68491695D02*
X140123958Y-68872647D01*
X140123958Y-68872647D02*
X140162054Y-68834552D01*
X140162054Y-68834552D02*
X140238244Y-68796457D01*
X140238244Y-68796457D02*
X140428720Y-68796457D01*
X140428720Y-68796457D02*
X140504911Y-68834552D01*
X140504911Y-68834552D02*
X140543006Y-68872647D01*
X140543006Y-68872647D02*
X140581101Y-68948838D01*
X140581101Y-68948838D02*
X140581101Y-69139314D01*
X140581101Y-69139314D02*
X140543006Y-69215504D01*
X140543006Y-69215504D02*
X140504911Y-69253600D01*
X140504911Y-69253600D02*
X140428720Y-69291695D01*
X140428720Y-69291695D02*
X140238244Y-69291695D01*
X140238244Y-69291695D02*
X140162054Y-69253600D01*
X140162054Y-69253600D02*
X140123958Y-69215504D01*
X140809673Y-68491695D02*
X141076340Y-69291695D01*
X141076340Y-69291695D02*
X141343006Y-68491695D01*
X142285863Y-68491695D02*
X142781101Y-68491695D01*
X142781101Y-68491695D02*
X142514435Y-68796457D01*
X142514435Y-68796457D02*
X142628720Y-68796457D01*
X142628720Y-68796457D02*
X142704911Y-68834552D01*
X142704911Y-68834552D02*
X142743006Y-68872647D01*
X142743006Y-68872647D02*
X142781101Y-68948838D01*
X142781101Y-68948838D02*
X142781101Y-69139314D01*
X142781101Y-69139314D02*
X142743006Y-69215504D01*
X142743006Y-69215504D02*
X142704911Y-69253600D01*
X142704911Y-69253600D02*
X142628720Y-69291695D01*
X142628720Y-69291695D02*
X142400149Y-69291695D01*
X142400149Y-69291695D02*
X142323958Y-69253600D01*
X142323958Y-69253600D02*
X142285863Y-69215504D01*
X143047768Y-68758361D02*
X143238244Y-69291695D01*
X143238244Y-69291695D02*
X143428721Y-68758361D01*
X143657292Y-68491695D02*
X144152530Y-68491695D01*
X144152530Y-68491695D02*
X143885864Y-68796457D01*
X143885864Y-68796457D02*
X144000149Y-68796457D01*
X144000149Y-68796457D02*
X144076340Y-68834552D01*
X144076340Y-68834552D02*
X144114435Y-68872647D01*
X144114435Y-68872647D02*
X144152530Y-68948838D01*
X144152530Y-68948838D02*
X144152530Y-69139314D01*
X144152530Y-69139314D02*
X144114435Y-69215504D01*
X144114435Y-69215504D02*
X144076340Y-69253600D01*
X144076340Y-69253600D02*
X144000149Y-69291695D01*
X144000149Y-69291695D02*
X143771578Y-69291695D01*
X143771578Y-69291695D02*
X143695387Y-69253600D01*
X143695387Y-69253600D02*
X143657292Y-69215504D01*
X148085863Y-68391697D02*
X148581101Y-68391697D01*
X148581101Y-68391697D02*
X148314435Y-68696459D01*
X148314435Y-68696459D02*
X148428720Y-68696459D01*
X148428720Y-68696459D02*
X148504911Y-68734554D01*
X148504911Y-68734554D02*
X148543006Y-68772649D01*
X148543006Y-68772649D02*
X148581101Y-68848840D01*
X148581101Y-68848840D02*
X148581101Y-69039316D01*
X148581101Y-69039316D02*
X148543006Y-69115506D01*
X148543006Y-69115506D02*
X148504911Y-69153602D01*
X148504911Y-69153602D02*
X148428720Y-69191697D01*
X148428720Y-69191697D02*
X148200149Y-69191697D01*
X148200149Y-69191697D02*
X148123958Y-69153602D01*
X148123958Y-69153602D02*
X148085863Y-69115506D01*
X148885863Y-68467887D02*
X148923959Y-68429792D01*
X148923959Y-68429792D02*
X149000149Y-68391697D01*
X149000149Y-68391697D02*
X149190625Y-68391697D01*
X149190625Y-68391697D02*
X149266816Y-68429792D01*
X149266816Y-68429792D02*
X149304911Y-68467887D01*
X149304911Y-68467887D02*
X149343006Y-68544078D01*
X149343006Y-68544078D02*
X149343006Y-68620268D01*
X149343006Y-68620268D02*
X149304911Y-68734554D01*
X149304911Y-68734554D02*
X148847768Y-69191697D01*
X148847768Y-69191697D02*
X149343006Y-69191697D01*
X148223959Y-75367886D02*
X148262055Y-75329791D01*
X148262055Y-75329791D02*
X148338245Y-75291696D01*
X148338245Y-75291696D02*
X148528721Y-75291696D01*
X148528721Y-75291696D02*
X148604912Y-75329791D01*
X148604912Y-75329791D02*
X148643007Y-75367886D01*
X148643007Y-75367886D02*
X148681102Y-75444077D01*
X148681102Y-75444077D02*
X148681102Y-75520267D01*
X148681102Y-75520267D02*
X148643007Y-75634553D01*
X148643007Y-75634553D02*
X148185864Y-76091696D01*
X148185864Y-76091696D02*
X148681102Y-76091696D01*
X149366817Y-75291696D02*
X149214436Y-75291696D01*
X149214436Y-75291696D02*
X149138245Y-75329791D01*
X149138245Y-75329791D02*
X149100150Y-75367886D01*
X149100150Y-75367886D02*
X149023960Y-75482172D01*
X149023960Y-75482172D02*
X148985864Y-75634553D01*
X148985864Y-75634553D02*
X148985864Y-75939315D01*
X148985864Y-75939315D02*
X149023960Y-76015505D01*
X149023960Y-76015505D02*
X149062055Y-76053601D01*
X149062055Y-76053601D02*
X149138245Y-76091696D01*
X149138245Y-76091696D02*
X149290626Y-76091696D01*
X149290626Y-76091696D02*
X149366817Y-76053601D01*
X149366817Y-76053601D02*
X149404912Y-76015505D01*
X149404912Y-76015505D02*
X149443007Y-75939315D01*
X149443007Y-75939315D02*
X149443007Y-75748839D01*
X149443007Y-75748839D02*
X149404912Y-75672648D01*
X149404912Y-75672648D02*
X149366817Y-75634553D01*
X149366817Y-75634553D02*
X149290626Y-75596458D01*
X149290626Y-75596458D02*
X149138245Y-75596458D01*
X149138245Y-75596458D02*
X149062055Y-75634553D01*
X149062055Y-75634553D02*
X149023960Y-75672648D01*
X149023960Y-75672648D02*
X148985864Y-75748839D01*
X150685863Y-68331696D02*
X151181101Y-68331696D01*
X151181101Y-68331696D02*
X150914435Y-68636458D01*
X150914435Y-68636458D02*
X151028720Y-68636458D01*
X151028720Y-68636458D02*
X151104911Y-68674553D01*
X151104911Y-68674553D02*
X151143006Y-68712648D01*
X151143006Y-68712648D02*
X151181101Y-68788839D01*
X151181101Y-68788839D02*
X151181101Y-68979315D01*
X151181101Y-68979315D02*
X151143006Y-69055505D01*
X151143006Y-69055505D02*
X151104911Y-69093601D01*
X151104911Y-69093601D02*
X151028720Y-69131696D01*
X151028720Y-69131696D02*
X150800149Y-69131696D01*
X150800149Y-69131696D02*
X150723958Y-69093601D01*
X150723958Y-69093601D02*
X150685863Y-69055505D01*
X151904911Y-68331696D02*
X151523959Y-68331696D01*
X151523959Y-68331696D02*
X151485863Y-68712648D01*
X151485863Y-68712648D02*
X151523959Y-68674553D01*
X151523959Y-68674553D02*
X151600149Y-68636458D01*
X151600149Y-68636458D02*
X151790625Y-68636458D01*
X151790625Y-68636458D02*
X151866816Y-68674553D01*
X151866816Y-68674553D02*
X151904911Y-68712648D01*
X151904911Y-68712648D02*
X151943006Y-68788839D01*
X151943006Y-68788839D02*
X151943006Y-68979315D01*
X151943006Y-68979315D02*
X151904911Y-69055505D01*
X151904911Y-69055505D02*
X151866816Y-69093601D01*
X151866816Y-69093601D02*
X151790625Y-69131696D01*
X151790625Y-69131696D02*
X151600149Y-69131696D01*
X151600149Y-69131696D02*
X151523959Y-69093601D01*
X151523959Y-69093601D02*
X151485863Y-69055505D01*
X150723959Y-75367887D02*
X150762055Y-75329792D01*
X150762055Y-75329792D02*
X150838245Y-75291697D01*
X150838245Y-75291697D02*
X151028721Y-75291697D01*
X151028721Y-75291697D02*
X151104912Y-75329792D01*
X151104912Y-75329792D02*
X151143007Y-75367887D01*
X151143007Y-75367887D02*
X151181102Y-75444078D01*
X151181102Y-75444078D02*
X151181102Y-75520268D01*
X151181102Y-75520268D02*
X151143007Y-75634554D01*
X151143007Y-75634554D02*
X150685864Y-76091697D01*
X150685864Y-76091697D02*
X151181102Y-76091697D01*
X151904912Y-75291697D02*
X151523960Y-75291697D01*
X151523960Y-75291697D02*
X151485864Y-75672649D01*
X151485864Y-75672649D02*
X151523960Y-75634554D01*
X151523960Y-75634554D02*
X151600150Y-75596459D01*
X151600150Y-75596459D02*
X151790626Y-75596459D01*
X151790626Y-75596459D02*
X151866817Y-75634554D01*
X151866817Y-75634554D02*
X151904912Y-75672649D01*
X151904912Y-75672649D02*
X151943007Y-75748840D01*
X151943007Y-75748840D02*
X151943007Y-75939316D01*
X151943007Y-75939316D02*
X151904912Y-76015506D01*
X151904912Y-76015506D02*
X151866817Y-76053602D01*
X151866817Y-76053602D02*
X151790626Y-76091697D01*
X151790626Y-76091697D02*
X151600150Y-76091697D01*
X151600150Y-76091697D02*
X151523960Y-76053602D01*
X151523960Y-76053602D02*
X151485864Y-76015506D01*
X153185863Y-68331696D02*
X153681101Y-68331696D01*
X153681101Y-68331696D02*
X153414435Y-68636458D01*
X153414435Y-68636458D02*
X153528720Y-68636458D01*
X153528720Y-68636458D02*
X153604911Y-68674553D01*
X153604911Y-68674553D02*
X153643006Y-68712648D01*
X153643006Y-68712648D02*
X153681101Y-68788839D01*
X153681101Y-68788839D02*
X153681101Y-68979315D01*
X153681101Y-68979315D02*
X153643006Y-69055505D01*
X153643006Y-69055505D02*
X153604911Y-69093601D01*
X153604911Y-69093601D02*
X153528720Y-69131696D01*
X153528720Y-69131696D02*
X153300149Y-69131696D01*
X153300149Y-69131696D02*
X153223958Y-69093601D01*
X153223958Y-69093601D02*
X153185863Y-69055505D01*
X154366816Y-68598362D02*
X154366816Y-69131696D01*
X154176340Y-68293601D02*
X153985863Y-68865029D01*
X153985863Y-68865029D02*
X154481102Y-68865029D01*
X153285864Y-75291697D02*
X153781102Y-75291697D01*
X153781102Y-75291697D02*
X153514436Y-75596459D01*
X153514436Y-75596459D02*
X153628721Y-75596459D01*
X153628721Y-75596459D02*
X153704912Y-75634554D01*
X153704912Y-75634554D02*
X153743007Y-75672649D01*
X153743007Y-75672649D02*
X153781102Y-75748840D01*
X153781102Y-75748840D02*
X153781102Y-75939316D01*
X153781102Y-75939316D02*
X153743007Y-76015506D01*
X153743007Y-76015506D02*
X153704912Y-76053602D01*
X153704912Y-76053602D02*
X153628721Y-76091697D01*
X153628721Y-76091697D02*
X153400150Y-76091697D01*
X153400150Y-76091697D02*
X153323959Y-76053602D01*
X153323959Y-76053602D02*
X153285864Y-76015506D01*
X154047769Y-75291697D02*
X154543007Y-75291697D01*
X154543007Y-75291697D02*
X154276341Y-75596459D01*
X154276341Y-75596459D02*
X154390626Y-75596459D01*
X154390626Y-75596459D02*
X154466817Y-75634554D01*
X154466817Y-75634554D02*
X154504912Y-75672649D01*
X154504912Y-75672649D02*
X154543007Y-75748840D01*
X154543007Y-75748840D02*
X154543007Y-75939316D01*
X154543007Y-75939316D02*
X154504912Y-76015506D01*
X154504912Y-76015506D02*
X154466817Y-76053602D01*
X154466817Y-76053602D02*
X154390626Y-76091697D01*
X154390626Y-76091697D02*
X154162055Y-76091697D01*
X154162055Y-76091697D02*
X154085864Y-76053602D01*
X154085864Y-76053602D02*
X154047769Y-76015506D01*
X159224306Y-76149706D02*
X158767163Y-76149706D01*
X158995735Y-76149706D02*
X158995735Y-75349706D01*
X158995735Y-75349706D02*
X158919544Y-75463991D01*
X158919544Y-75463991D02*
X158843354Y-75540182D01*
X158843354Y-75540182D02*
X158767163Y-75578277D01*
X159948116Y-75349706D02*
X159567164Y-75349706D01*
X159567164Y-75349706D02*
X159529068Y-75730658D01*
X159529068Y-75730658D02*
X159567164Y-75692563D01*
X159567164Y-75692563D02*
X159643354Y-75654468D01*
X159643354Y-75654468D02*
X159833830Y-75654468D01*
X159833830Y-75654468D02*
X159910021Y-75692563D01*
X159910021Y-75692563D02*
X159948116Y-75730658D01*
X159948116Y-75730658D02*
X159986211Y-75806849D01*
X159986211Y-75806849D02*
X159986211Y-75997325D01*
X159986211Y-75997325D02*
X159948116Y-76073515D01*
X159948116Y-76073515D02*
X159910021Y-76111611D01*
X159910021Y-76111611D02*
X159833830Y-76149706D01*
X159833830Y-76149706D02*
X159643354Y-76149706D01*
X159643354Y-76149706D02*
X159567164Y-76111611D01*
X159567164Y-76111611D02*
X159529068Y-76073515D01*
X159224307Y-69249707D02*
X158767164Y-69249707D01*
X158995736Y-69249707D02*
X158995736Y-68449707D01*
X158995736Y-68449707D02*
X158919545Y-68563992D01*
X158919545Y-68563992D02*
X158843355Y-68640183D01*
X158843355Y-68640183D02*
X158767164Y-68678278D01*
X159529069Y-68525897D02*
X159567165Y-68487802D01*
X159567165Y-68487802D02*
X159643355Y-68449707D01*
X159643355Y-68449707D02*
X159833831Y-68449707D01*
X159833831Y-68449707D02*
X159910022Y-68487802D01*
X159910022Y-68487802D02*
X159948117Y-68525897D01*
X159948117Y-68525897D02*
X159986212Y-68602088D01*
X159986212Y-68602088D02*
X159986212Y-68678278D01*
X159986212Y-68678278D02*
X159948117Y-68792564D01*
X159948117Y-68792564D02*
X159490974Y-69249707D01*
X159490974Y-69249707D02*
X159986212Y-69249707D01*
X161624305Y-69249708D02*
X161167162Y-69249708D01*
X161395734Y-69249708D02*
X161395734Y-68449708D01*
X161395734Y-68449708D02*
X161319543Y-68563993D01*
X161319543Y-68563993D02*
X161243353Y-68640184D01*
X161243353Y-68640184D02*
X161167162Y-68678279D01*
X162310020Y-68716374D02*
X162310020Y-69249708D01*
X162119544Y-68411613D02*
X161929067Y-68983041D01*
X161929067Y-68983041D02*
X162424306Y-68983041D01*
X161724306Y-76149709D02*
X161267163Y-76149709D01*
X161495735Y-76149709D02*
X161495735Y-75349709D01*
X161495735Y-75349709D02*
X161419544Y-75463994D01*
X161419544Y-75463994D02*
X161343354Y-75540185D01*
X161343354Y-75540185D02*
X161267163Y-75578280D01*
X161990973Y-75349709D02*
X162486211Y-75349709D01*
X162486211Y-75349709D02*
X162219545Y-75654471D01*
X162219545Y-75654471D02*
X162333830Y-75654471D01*
X162333830Y-75654471D02*
X162410021Y-75692566D01*
X162410021Y-75692566D02*
X162448116Y-75730661D01*
X162448116Y-75730661D02*
X162486211Y-75806852D01*
X162486211Y-75806852D02*
X162486211Y-75997328D01*
X162486211Y-75997328D02*
X162448116Y-76073518D01*
X162448116Y-76073518D02*
X162410021Y-76111614D01*
X162410021Y-76111614D02*
X162333830Y-76149709D01*
X162333830Y-76149709D02*
X162105259Y-76149709D01*
X162105259Y-76149709D02*
X162029068Y-76111614D01*
X162029068Y-76111614D02*
X161990973Y-76073518D01*
X163867164Y-68525898D02*
X163905260Y-68487803D01*
X163905260Y-68487803D02*
X163981450Y-68449708D01*
X163981450Y-68449708D02*
X164171926Y-68449708D01*
X164171926Y-68449708D02*
X164248117Y-68487803D01*
X164248117Y-68487803D02*
X164286212Y-68525898D01*
X164286212Y-68525898D02*
X164324307Y-68602089D01*
X164324307Y-68602089D02*
X164324307Y-68678279D01*
X164324307Y-68678279D02*
X164286212Y-68792565D01*
X164286212Y-68792565D02*
X163829069Y-69249708D01*
X163829069Y-69249708D02*
X164324307Y-69249708D01*
X164590974Y-68449708D02*
X165124308Y-68449708D01*
X165124308Y-68449708D02*
X164781450Y-69249708D01*
X164167164Y-75425895D02*
X164205260Y-75387800D01*
X164205260Y-75387800D02*
X164281450Y-75349705D01*
X164281450Y-75349705D02*
X164471926Y-75349705D01*
X164471926Y-75349705D02*
X164548117Y-75387800D01*
X164548117Y-75387800D02*
X164586212Y-75425895D01*
X164586212Y-75425895D02*
X164624307Y-75502086D01*
X164624307Y-75502086D02*
X164624307Y-75578276D01*
X164624307Y-75578276D02*
X164586212Y-75692562D01*
X164586212Y-75692562D02*
X164129069Y-76149705D01*
X164129069Y-76149705D02*
X164624307Y-76149705D01*
X148833958Y-85203600D02*
X148943482Y-85241695D01*
X148943482Y-85241695D02*
X149133958Y-85241695D01*
X149133958Y-85241695D02*
X149214911Y-85203600D01*
X149214911Y-85203600D02*
X149257768Y-85165504D01*
X149257768Y-85165504D02*
X149305387Y-85089314D01*
X149305387Y-85089314D02*
X149314911Y-85013123D01*
X149314911Y-85013123D02*
X149286339Y-84936933D01*
X149286339Y-84936933D02*
X149253006Y-84898838D01*
X149253006Y-84898838D02*
X149181578Y-84860742D01*
X149181578Y-84860742D02*
X149033958Y-84822647D01*
X149033958Y-84822647D02*
X148962530Y-84784552D01*
X148962530Y-84784552D02*
X148929197Y-84746457D01*
X148929197Y-84746457D02*
X148900625Y-84670266D01*
X148900625Y-84670266D02*
X148910149Y-84594076D01*
X148910149Y-84594076D02*
X148957768Y-84517885D01*
X148957768Y-84517885D02*
X149000625Y-84479790D01*
X149000625Y-84479790D02*
X149081578Y-84441695D01*
X149081578Y-84441695D02*
X149272054Y-84441695D01*
X149272054Y-84441695D02*
X149381578Y-84479790D01*
X149629197Y-85241695D02*
X149729197Y-84441695D01*
X149972054Y-85241695D02*
X150024435Y-84822647D01*
X150024435Y-84822647D02*
X149995863Y-84746457D01*
X149995863Y-84746457D02*
X149924435Y-84708361D01*
X149924435Y-84708361D02*
X149810149Y-84708361D01*
X149810149Y-84708361D02*
X149729197Y-84746457D01*
X149729197Y-84746457D02*
X149686340Y-84784552D01*
X150467293Y-85241695D02*
X150395864Y-85203600D01*
X150395864Y-85203600D02*
X150362531Y-85165504D01*
X150362531Y-85165504D02*
X150333959Y-85089314D01*
X150333959Y-85089314D02*
X150362531Y-84860742D01*
X150362531Y-84860742D02*
X150410150Y-84784552D01*
X150410150Y-84784552D02*
X150453007Y-84746457D01*
X150453007Y-84746457D02*
X150533959Y-84708361D01*
X150533959Y-84708361D02*
X150648245Y-84708361D01*
X150648245Y-84708361D02*
X150719673Y-84746457D01*
X150719673Y-84746457D02*
X150753007Y-84784552D01*
X150753007Y-84784552D02*
X150781578Y-84860742D01*
X150781578Y-84860742D02*
X150753007Y-85089314D01*
X150753007Y-85089314D02*
X150705388Y-85165504D01*
X150705388Y-85165504D02*
X150662531Y-85203600D01*
X150662531Y-85203600D02*
X150581578Y-85241695D01*
X150581578Y-85241695D02*
X150467293Y-85241695D01*
X151076817Y-85241695D02*
X151143483Y-84708361D01*
X151124436Y-84860742D02*
X151172055Y-84784552D01*
X151172055Y-84784552D02*
X151214912Y-84746457D01*
X151214912Y-84746457D02*
X151295864Y-84708361D01*
X151295864Y-84708361D02*
X151372055Y-84708361D01*
X151524436Y-84708361D02*
X151829198Y-84708361D01*
X151672055Y-84441695D02*
X151586341Y-85127409D01*
X151586341Y-85127409D02*
X151614912Y-85203600D01*
X151614912Y-85203600D02*
X151686341Y-85241695D01*
X151686341Y-85241695D02*
X151762531Y-85241695D01*
X152591103Y-84708361D02*
X152895865Y-84708361D01*
X152638722Y-85241695D02*
X152724436Y-84555980D01*
X152724436Y-84555980D02*
X152772055Y-84479790D01*
X152772055Y-84479790D02*
X152853008Y-84441695D01*
X152853008Y-84441695D02*
X152929198Y-84441695D01*
X153210151Y-85241695D02*
X153138722Y-85203600D01*
X153138722Y-85203600D02*
X153105389Y-85165504D01*
X153105389Y-85165504D02*
X153076817Y-85089314D01*
X153076817Y-85089314D02*
X153105389Y-84860742D01*
X153105389Y-84860742D02*
X153153008Y-84784552D01*
X153153008Y-84784552D02*
X153195865Y-84746457D01*
X153195865Y-84746457D02*
X153276817Y-84708361D01*
X153276817Y-84708361D02*
X153391103Y-84708361D01*
X153391103Y-84708361D02*
X153462531Y-84746457D01*
X153462531Y-84746457D02*
X153495865Y-84784552D01*
X153495865Y-84784552D02*
X153524436Y-84860742D01*
X153524436Y-84860742D02*
X153495865Y-85089314D01*
X153495865Y-85089314D02*
X153448246Y-85165504D01*
X153448246Y-85165504D02*
X153405389Y-85203600D01*
X153405389Y-85203600D02*
X153324436Y-85241695D01*
X153324436Y-85241695D02*
X153210151Y-85241695D01*
X153819675Y-85241695D02*
X153886341Y-84708361D01*
X153867294Y-84860742D02*
X153914913Y-84784552D01*
X153914913Y-84784552D02*
X153957770Y-84746457D01*
X153957770Y-84746457D02*
X154038722Y-84708361D01*
X154038722Y-84708361D02*
X154114913Y-84708361D01*
X149386339Y-86841695D02*
X148929197Y-86841695D01*
X149157768Y-86841695D02*
X149257768Y-86041695D01*
X149257768Y-86041695D02*
X149167292Y-86155980D01*
X149167292Y-86155980D02*
X149081578Y-86232171D01*
X149081578Y-86232171D02*
X149000625Y-86270266D01*
X149695863Y-86803600D02*
X149805387Y-86841695D01*
X149805387Y-86841695D02*
X149995863Y-86841695D01*
X149995863Y-86841695D02*
X150076816Y-86803600D01*
X150076816Y-86803600D02*
X150119673Y-86765504D01*
X150119673Y-86765504D02*
X150167292Y-86689314D01*
X150167292Y-86689314D02*
X150176816Y-86613123D01*
X150176816Y-86613123D02*
X150148244Y-86536933D01*
X150148244Y-86536933D02*
X150114911Y-86498838D01*
X150114911Y-86498838D02*
X150043483Y-86460742D01*
X150043483Y-86460742D02*
X149895863Y-86422647D01*
X149895863Y-86422647D02*
X149824435Y-86384552D01*
X149824435Y-86384552D02*
X149791102Y-86346457D01*
X149791102Y-86346457D02*
X149762530Y-86270266D01*
X149762530Y-86270266D02*
X149772054Y-86194076D01*
X149772054Y-86194076D02*
X149819673Y-86117885D01*
X149819673Y-86117885D02*
X149862530Y-86079790D01*
X149862530Y-86079790D02*
X149943483Y-86041695D01*
X149943483Y-86041695D02*
X150133959Y-86041695D01*
X150133959Y-86041695D02*
X150243483Y-86079790D01*
X150991101Y-88041694D02*
X151486339Y-88041694D01*
X151486339Y-88041694D02*
X151181578Y-88346456D01*
X151181578Y-88346456D02*
X151295863Y-88346456D01*
X151295863Y-88346456D02*
X151367292Y-88384551D01*
X151367292Y-88384551D02*
X151400625Y-88422646D01*
X151400625Y-88422646D02*
X151429197Y-88498837D01*
X151429197Y-88498837D02*
X151405387Y-88689313D01*
X151405387Y-88689313D02*
X151357768Y-88765503D01*
X151357768Y-88765503D02*
X151314911Y-88803599D01*
X151314911Y-88803599D02*
X151233958Y-88841694D01*
X151233958Y-88841694D02*
X151005387Y-88841694D01*
X151005387Y-88841694D02*
X150933958Y-88803599D01*
X150933958Y-88803599D02*
X150900625Y-88765503D01*
X151714911Y-88041694D02*
X151881578Y-88841694D01*
X151881578Y-88841694D02*
X152248244Y-88041694D01*
X152438720Y-88041694D02*
X152933958Y-88041694D01*
X152933958Y-88041694D02*
X152629197Y-88346456D01*
X152629197Y-88346456D02*
X152743482Y-88346456D01*
X152743482Y-88346456D02*
X152814911Y-88384551D01*
X152814911Y-88384551D02*
X152848244Y-88422646D01*
X152848244Y-88422646D02*
X152876816Y-88498837D01*
X152876816Y-88498837D02*
X152853006Y-88689313D01*
X152853006Y-88689313D02*
X152805387Y-88765503D01*
X152805387Y-88765503D02*
X152762530Y-88803599D01*
X152762530Y-88803599D02*
X152681577Y-88841694D01*
X152681577Y-88841694D02*
X152453006Y-88841694D01*
X152453006Y-88841694D02*
X152381577Y-88803599D01*
X152381577Y-88803599D02*
X152348244Y-88765503D01*
X151898244Y-77291695D02*
X151517292Y-77291695D01*
X151517292Y-77291695D02*
X151431578Y-77672647D01*
X151431578Y-77672647D02*
X151474435Y-77634552D01*
X151474435Y-77634552D02*
X151555387Y-77596457D01*
X151555387Y-77596457D02*
X151745863Y-77596457D01*
X151745863Y-77596457D02*
X151817292Y-77634552D01*
X151817292Y-77634552D02*
X151850625Y-77672647D01*
X151850625Y-77672647D02*
X151879197Y-77748838D01*
X151879197Y-77748838D02*
X151855387Y-77939314D01*
X151855387Y-77939314D02*
X151807768Y-78015504D01*
X151807768Y-78015504D02*
X151764911Y-78053600D01*
X151764911Y-78053600D02*
X151683958Y-78091695D01*
X151683958Y-78091695D02*
X151493482Y-78091695D01*
X151493482Y-78091695D02*
X151422054Y-78053600D01*
X151422054Y-78053600D02*
X151388720Y-78015504D01*
X152164911Y-77291695D02*
X152331578Y-78091695D01*
X152331578Y-78091695D02*
X152698244Y-77291695D01*
X128746400Y-109183958D02*
X128708304Y-109298244D01*
X128708304Y-109298244D02*
X128708304Y-109488720D01*
X128708304Y-109488720D02*
X128746400Y-109564911D01*
X128746400Y-109564911D02*
X128784495Y-109603006D01*
X128784495Y-109603006D02*
X128860685Y-109641101D01*
X128860685Y-109641101D02*
X128936876Y-109641101D01*
X128936876Y-109641101D02*
X129013066Y-109603006D01*
X129013066Y-109603006D02*
X129051161Y-109564911D01*
X129051161Y-109564911D02*
X129089257Y-109488720D01*
X129089257Y-109488720D02*
X129127352Y-109336339D01*
X129127352Y-109336339D02*
X129165447Y-109260149D01*
X129165447Y-109260149D02*
X129203542Y-109222054D01*
X129203542Y-109222054D02*
X129279733Y-109183958D01*
X129279733Y-109183958D02*
X129355923Y-109183958D01*
X129355923Y-109183958D02*
X129432114Y-109222054D01*
X129432114Y-109222054D02*
X129470209Y-109260149D01*
X129470209Y-109260149D02*
X129508304Y-109336339D01*
X129508304Y-109336339D02*
X129508304Y-109526816D01*
X129508304Y-109526816D02*
X129470209Y-109641101D01*
X129508304Y-109907768D02*
X128708304Y-110098244D01*
X128708304Y-110098244D02*
X129279733Y-110250625D01*
X129279733Y-110250625D02*
X128708304Y-110403006D01*
X128708304Y-110403006D02*
X129508304Y-110593483D01*
X129127352Y-115288720D02*
X129089257Y-115403006D01*
X129089257Y-115403006D02*
X129051161Y-115441101D01*
X129051161Y-115441101D02*
X128974971Y-115479197D01*
X128974971Y-115479197D02*
X128860685Y-115479197D01*
X128860685Y-115479197D02*
X128784495Y-115441101D01*
X128784495Y-115441101D02*
X128746400Y-115403006D01*
X128746400Y-115403006D02*
X128708304Y-115326816D01*
X128708304Y-115326816D02*
X128708304Y-115022054D01*
X128708304Y-115022054D02*
X129508304Y-115022054D01*
X129508304Y-115022054D02*
X129508304Y-115288720D01*
X129508304Y-115288720D02*
X129470209Y-115364911D01*
X129470209Y-115364911D02*
X129432114Y-115403006D01*
X129432114Y-115403006D02*
X129355923Y-115441101D01*
X129355923Y-115441101D02*
X129279733Y-115441101D01*
X129279733Y-115441101D02*
X129203542Y-115403006D01*
X129203542Y-115403006D02*
X129165447Y-115364911D01*
X129165447Y-115364911D02*
X129127352Y-115288720D01*
X129127352Y-115288720D02*
X129127352Y-115022054D01*
X129013066Y-115822054D02*
X129013066Y-116431578D01*
X129127352Y-117988720D02*
X129089257Y-118103006D01*
X129089257Y-118103006D02*
X129051161Y-118141101D01*
X129051161Y-118141101D02*
X128974971Y-118179197D01*
X128974971Y-118179197D02*
X128860685Y-118179197D01*
X128860685Y-118179197D02*
X128784495Y-118141101D01*
X128784495Y-118141101D02*
X128746400Y-118103006D01*
X128746400Y-118103006D02*
X128708304Y-118026816D01*
X128708304Y-118026816D02*
X128708304Y-117722054D01*
X128708304Y-117722054D02*
X129508304Y-117722054D01*
X129508304Y-117722054D02*
X129508304Y-117988720D01*
X129508304Y-117988720D02*
X129470209Y-118064911D01*
X129470209Y-118064911D02*
X129432114Y-118103006D01*
X129432114Y-118103006D02*
X129355923Y-118141101D01*
X129355923Y-118141101D02*
X129279733Y-118141101D01*
X129279733Y-118141101D02*
X129203542Y-118103006D01*
X129203542Y-118103006D02*
X129165447Y-118064911D01*
X129165447Y-118064911D02*
X129127352Y-117988720D01*
X129127352Y-117988720D02*
X129127352Y-117722054D01*
X129013066Y-118522054D02*
X129013066Y-119131578D01*
X128708304Y-118826816D02*
X129317828Y-118826816D01*
D15*
X157095425Y-93940809D02*
X157232330Y-93988428D01*
X157232330Y-93988428D02*
X157273996Y-94036047D01*
X157273996Y-94036047D02*
X157309711Y-94131285D01*
X157309711Y-94131285D02*
X157291853Y-94274142D01*
X157291853Y-94274142D02*
X157232330Y-94369380D01*
X157232330Y-94369380D02*
X157178758Y-94417000D01*
X157178758Y-94417000D02*
X157077568Y-94464619D01*
X157077568Y-94464619D02*
X156696615Y-94464619D01*
X156696615Y-94464619D02*
X156821615Y-93464619D01*
X156821615Y-93464619D02*
X157154949Y-93464619D01*
X157154949Y-93464619D02*
X157244234Y-93512238D01*
X157244234Y-93512238D02*
X157285901Y-93559857D01*
X157285901Y-93559857D02*
X157321615Y-93655095D01*
X157321615Y-93655095D02*
X157309711Y-93750333D01*
X157309711Y-93750333D02*
X157250187Y-93845571D01*
X157250187Y-93845571D02*
X157196615Y-93893190D01*
X157196615Y-93893190D02*
X157095425Y-93940809D01*
X157095425Y-93940809D02*
X156762092Y-93940809D01*
X158012092Y-93464619D02*
X158202568Y-93464619D01*
X158202568Y-93464619D02*
X158291853Y-93512238D01*
X158291853Y-93512238D02*
X158375187Y-93607476D01*
X158375187Y-93607476D02*
X158398996Y-93797952D01*
X158398996Y-93797952D02*
X158357330Y-94131285D01*
X158357330Y-94131285D02*
X158285901Y-94321761D01*
X158285901Y-94321761D02*
X158178758Y-94417000D01*
X158178758Y-94417000D02*
X158077568Y-94464619D01*
X158077568Y-94464619D02*
X157887092Y-94464619D01*
X157887092Y-94464619D02*
X157797806Y-94417000D01*
X157797806Y-94417000D02*
X157714473Y-94321761D01*
X157714473Y-94321761D02*
X157690663Y-94131285D01*
X157690663Y-94131285D02*
X157732330Y-93797952D01*
X157732330Y-93797952D02*
X157803758Y-93607476D01*
X157803758Y-93607476D02*
X157910901Y-93512238D01*
X157910901Y-93512238D02*
X158012092Y-93464619D01*
X159059711Y-93464619D02*
X159250187Y-93464619D01*
X159250187Y-93464619D02*
X159339472Y-93512238D01*
X159339472Y-93512238D02*
X159422806Y-93607476D01*
X159422806Y-93607476D02*
X159446615Y-93797952D01*
X159446615Y-93797952D02*
X159404949Y-94131285D01*
X159404949Y-94131285D02*
X159333520Y-94321761D01*
X159333520Y-94321761D02*
X159226377Y-94417000D01*
X159226377Y-94417000D02*
X159125187Y-94464619D01*
X159125187Y-94464619D02*
X158934711Y-94464619D01*
X158934711Y-94464619D02*
X158845425Y-94417000D01*
X158845425Y-94417000D02*
X158762092Y-94321761D01*
X158762092Y-94321761D02*
X158738282Y-94131285D01*
X158738282Y-94131285D02*
X158779949Y-93797952D01*
X158779949Y-93797952D02*
X158851377Y-93607476D01*
X158851377Y-93607476D02*
X158958520Y-93512238D01*
X158958520Y-93512238D02*
X159059711Y-93464619D01*
X159773996Y-93464619D02*
X160345425Y-93464619D01*
X159934711Y-94464619D02*
X160059711Y-93464619D01*
X168618044Y-94464619D02*
X168344234Y-93988428D01*
X168046615Y-94464619D02*
X168171615Y-93464619D01*
X168171615Y-93464619D02*
X168552568Y-93464619D01*
X168552568Y-93464619D02*
X168641853Y-93512238D01*
X168641853Y-93512238D02*
X168683520Y-93559857D01*
X168683520Y-93559857D02*
X168719234Y-93655095D01*
X168719234Y-93655095D02*
X168701377Y-93797952D01*
X168701377Y-93797952D02*
X168641853Y-93893190D01*
X168641853Y-93893190D02*
X168588282Y-93940809D01*
X168588282Y-93940809D02*
X168487092Y-93988428D01*
X168487092Y-93988428D02*
X168106139Y-93988428D01*
X169004949Y-94417000D02*
X169141853Y-94464619D01*
X169141853Y-94464619D02*
X169379949Y-94464619D01*
X169379949Y-94464619D02*
X169481139Y-94417000D01*
X169481139Y-94417000D02*
X169534711Y-94369380D01*
X169534711Y-94369380D02*
X169594234Y-94274142D01*
X169594234Y-94274142D02*
X169606139Y-94178904D01*
X169606139Y-94178904D02*
X169570425Y-94083666D01*
X169570425Y-94083666D02*
X169528758Y-94036047D01*
X169528758Y-94036047D02*
X169439473Y-93988428D01*
X169439473Y-93988428D02*
X169254949Y-93940809D01*
X169254949Y-93940809D02*
X169165663Y-93893190D01*
X169165663Y-93893190D02*
X169123996Y-93845571D01*
X169123996Y-93845571D02*
X169088282Y-93750333D01*
X169088282Y-93750333D02*
X169100187Y-93655095D01*
X169100187Y-93655095D02*
X169159711Y-93559857D01*
X169159711Y-93559857D02*
X169213282Y-93512238D01*
X169213282Y-93512238D02*
X169314473Y-93464619D01*
X169314473Y-93464619D02*
X169552568Y-93464619D01*
X169552568Y-93464619D02*
X169689473Y-93512238D01*
X169981139Y-93464619D02*
X170552568Y-93464619D01*
X170141854Y-94464619D02*
X170266854Y-93464619D01*
X134375380Y-77292568D02*
X135375380Y-77292568D01*
X135375380Y-77292568D02*
X134661095Y-77625901D01*
X134661095Y-77625901D02*
X135375380Y-77959234D01*
X135375380Y-77959234D02*
X134375380Y-77959234D01*
X134375380Y-78959234D02*
X134375380Y-78387806D01*
X134375380Y-78673520D02*
X135375380Y-78673520D01*
X135375380Y-78673520D02*
X135232523Y-78578282D01*
X135232523Y-78578282D02*
X135137285Y-78483044D01*
X135137285Y-78483044D02*
X135089666Y-78387806D01*
X134661095Y-79340187D02*
X134661095Y-79816377D01*
X134375380Y-79244949D02*
X135375380Y-79578282D01*
X135375380Y-79578282D02*
X134375380Y-79911615D01*
X134375380Y-82392568D02*
X135375380Y-82392568D01*
X135375380Y-82392568D02*
X134661095Y-82725901D01*
X134661095Y-82725901D02*
X135375380Y-83059234D01*
X135375380Y-83059234D02*
X134375380Y-83059234D01*
X134375380Y-84059234D02*
X134375380Y-83487806D01*
X134375380Y-83773520D02*
X135375380Y-83773520D01*
X135375380Y-83773520D02*
X135232523Y-83678282D01*
X135232523Y-83678282D02*
X135137285Y-83583044D01*
X135137285Y-83583044D02*
X135089666Y-83487806D01*
X134899190Y-84821139D02*
X134851571Y-84963996D01*
X134851571Y-84963996D02*
X134803952Y-85011615D01*
X134803952Y-85011615D02*
X134708714Y-85059234D01*
X134708714Y-85059234D02*
X134565857Y-85059234D01*
X134565857Y-85059234D02*
X134470619Y-85011615D01*
X134470619Y-85011615D02*
X134423000Y-84963996D01*
X134423000Y-84963996D02*
X134375380Y-84868758D01*
X134375380Y-84868758D02*
X134375380Y-84487806D01*
X134375380Y-84487806D02*
X135375380Y-84487806D01*
X135375380Y-84487806D02*
X135375380Y-84821139D01*
X135375380Y-84821139D02*
X135327761Y-84916377D01*
X135327761Y-84916377D02*
X135280142Y-84963996D01*
X135280142Y-84963996D02*
X135184904Y-85011615D01*
X135184904Y-85011615D02*
X135089666Y-85011615D01*
X135089666Y-85011615D02*
X134994428Y-84963996D01*
X134994428Y-84963996D02*
X134946809Y-84916377D01*
X134946809Y-84916377D02*
X134899190Y-84821139D01*
X134899190Y-84821139D02*
X134899190Y-84487806D01*
X134375380Y-87492568D02*
X135375380Y-87492568D01*
X135375380Y-87492568D02*
X134661095Y-87825901D01*
X134661095Y-87825901D02*
X135375380Y-88159234D01*
X135375380Y-88159234D02*
X134375380Y-88159234D01*
X135280142Y-88587806D02*
X135327761Y-88635425D01*
X135327761Y-88635425D02*
X135375380Y-88730663D01*
X135375380Y-88730663D02*
X135375380Y-88968758D01*
X135375380Y-88968758D02*
X135327761Y-89063996D01*
X135327761Y-89063996D02*
X135280142Y-89111615D01*
X135280142Y-89111615D02*
X135184904Y-89159234D01*
X135184904Y-89159234D02*
X135089666Y-89159234D01*
X135089666Y-89159234D02*
X134946809Y-89111615D01*
X134946809Y-89111615D02*
X134375380Y-88540187D01*
X134375380Y-88540187D02*
X134375380Y-89159234D01*
X134661095Y-89540187D02*
X134661095Y-90016377D01*
X134375380Y-89444949D02*
X135375380Y-89778282D01*
X135375380Y-89778282D02*
X134375380Y-90111615D01*
X134375380Y-92492568D02*
X135375380Y-92492568D01*
X135375380Y-92492568D02*
X134661095Y-92825901D01*
X134661095Y-92825901D02*
X135375380Y-93159234D01*
X135375380Y-93159234D02*
X134375380Y-93159234D01*
X135280142Y-93587806D02*
X135327761Y-93635425D01*
X135327761Y-93635425D02*
X135375380Y-93730663D01*
X135375380Y-93730663D02*
X135375380Y-93968758D01*
X135375380Y-93968758D02*
X135327761Y-94063996D01*
X135327761Y-94063996D02*
X135280142Y-94111615D01*
X135280142Y-94111615D02*
X135184904Y-94159234D01*
X135184904Y-94159234D02*
X135089666Y-94159234D01*
X135089666Y-94159234D02*
X134946809Y-94111615D01*
X134946809Y-94111615D02*
X134375380Y-93540187D01*
X134375380Y-93540187D02*
X134375380Y-94159234D01*
X134899190Y-94921139D02*
X134851571Y-95063996D01*
X134851571Y-95063996D02*
X134803952Y-95111615D01*
X134803952Y-95111615D02*
X134708714Y-95159234D01*
X134708714Y-95159234D02*
X134565857Y-95159234D01*
X134565857Y-95159234D02*
X134470619Y-95111615D01*
X134470619Y-95111615D02*
X134423000Y-95063996D01*
X134423000Y-95063996D02*
X134375380Y-94968758D01*
X134375380Y-94968758D02*
X134375380Y-94587806D01*
X134375380Y-94587806D02*
X135375380Y-94587806D01*
X135375380Y-94587806D02*
X135375380Y-94921139D01*
X135375380Y-94921139D02*
X135327761Y-95016377D01*
X135327761Y-95016377D02*
X135280142Y-95063996D01*
X135280142Y-95063996D02*
X135184904Y-95111615D01*
X135184904Y-95111615D02*
X135089666Y-95111615D01*
X135089666Y-95111615D02*
X134994428Y-95063996D01*
X134994428Y-95063996D02*
X134946809Y-95016377D01*
X134946809Y-95016377D02*
X134899190Y-94921139D01*
X134899190Y-94921139D02*
X134899190Y-94587806D01*
D11*
X138411653Y-114587542D02*
X138525939Y-114587542D01*
X138525939Y-114587542D02*
X138640225Y-114644685D01*
X138640225Y-114644685D02*
X138697368Y-114701828D01*
X138697368Y-114701828D02*
X138754510Y-114816114D01*
X138754510Y-114816114D02*
X138811653Y-115044685D01*
X138811653Y-115044685D02*
X138811653Y-115330400D01*
X138811653Y-115330400D02*
X138754510Y-115558971D01*
X138754510Y-115558971D02*
X138697368Y-115673257D01*
X138697368Y-115673257D02*
X138640225Y-115730400D01*
X138640225Y-115730400D02*
X138525939Y-115787542D01*
X138525939Y-115787542D02*
X138411653Y-115787542D01*
X138411653Y-115787542D02*
X138297368Y-115730400D01*
X138297368Y-115730400D02*
X138240225Y-115673257D01*
X138240225Y-115673257D02*
X138183082Y-115558971D01*
X138183082Y-115558971D02*
X138125939Y-115330400D01*
X138125939Y-115330400D02*
X138125939Y-115044685D01*
X138125939Y-115044685D02*
X138183082Y-114816114D01*
X138183082Y-114816114D02*
X138240225Y-114701828D01*
X138240225Y-114701828D02*
X138297368Y-114644685D01*
X138297368Y-114644685D02*
X138411653Y-114587542D01*
X139325939Y-115673257D02*
X139383082Y-115730400D01*
X139383082Y-115730400D02*
X139325939Y-115787542D01*
X139325939Y-115787542D02*
X139268796Y-115730400D01*
X139268796Y-115730400D02*
X139325939Y-115673257D01*
X139325939Y-115673257D02*
X139325939Y-115787542D01*
X140525939Y-115787542D02*
X139840225Y-115787542D01*
X140183082Y-115787542D02*
X140183082Y-114587542D01*
X140183082Y-114587542D02*
X140068796Y-114758971D01*
X140068796Y-114758971D02*
X139954511Y-114873257D01*
X139954511Y-114873257D02*
X139840225Y-114930400D01*
X140983082Y-115787542D02*
X141268796Y-115787542D01*
X141268796Y-115787542D02*
X141268796Y-115558971D01*
X141268796Y-115558971D02*
X141154511Y-115501828D01*
X141154511Y-115501828D02*
X141040225Y-115387542D01*
X141040225Y-115387542D02*
X140983082Y-115216114D01*
X140983082Y-115216114D02*
X140983082Y-114930400D01*
X140983082Y-114930400D02*
X141040225Y-114758971D01*
X141040225Y-114758971D02*
X141154511Y-114644685D01*
X141154511Y-114644685D02*
X141325939Y-114587542D01*
X141325939Y-114587542D02*
X141554511Y-114587542D01*
X141554511Y-114587542D02*
X141725939Y-114644685D01*
X141725939Y-114644685D02*
X141840225Y-114758971D01*
X141840225Y-114758971D02*
X141897368Y-114930400D01*
X141897368Y-114930400D02*
X141897368Y-115216114D01*
X141897368Y-115216114D02*
X141840225Y-115387542D01*
X141840225Y-115387542D02*
X141725939Y-115501828D01*
X141725939Y-115501828D02*
X141611653Y-115558971D01*
X141611653Y-115558971D02*
X141611653Y-115787542D01*
X141611653Y-115787542D02*
X141897368Y-115787542D01*
X150633082Y-122247542D02*
X150633082Y-123218971D01*
X150633082Y-123218971D02*
X150690225Y-123333257D01*
X150690225Y-123333257D02*
X150747368Y-123390400D01*
X150747368Y-123390400D02*
X150861653Y-123447542D01*
X150861653Y-123447542D02*
X151090225Y-123447542D01*
X151090225Y-123447542D02*
X151204510Y-123390400D01*
X151204510Y-123390400D02*
X151261653Y-123333257D01*
X151261653Y-123333257D02*
X151318796Y-123218971D01*
X151318796Y-123218971D02*
X151318796Y-122247542D01*
X151833082Y-123390400D02*
X152004511Y-123447542D01*
X152004511Y-123447542D02*
X152290225Y-123447542D01*
X152290225Y-123447542D02*
X152404511Y-123390400D01*
X152404511Y-123390400D02*
X152461653Y-123333257D01*
X152461653Y-123333257D02*
X152518796Y-123218971D01*
X152518796Y-123218971D02*
X152518796Y-123104685D01*
X152518796Y-123104685D02*
X152461653Y-122990400D01*
X152461653Y-122990400D02*
X152404511Y-122933257D01*
X152404511Y-122933257D02*
X152290225Y-122876114D01*
X152290225Y-122876114D02*
X152061653Y-122818971D01*
X152061653Y-122818971D02*
X151947368Y-122761828D01*
X151947368Y-122761828D02*
X151890225Y-122704685D01*
X151890225Y-122704685D02*
X151833082Y-122590400D01*
X151833082Y-122590400D02*
X151833082Y-122476114D01*
X151833082Y-122476114D02*
X151890225Y-122361828D01*
X151890225Y-122361828D02*
X151947368Y-122304685D01*
X151947368Y-122304685D02*
X152061653Y-122247542D01*
X152061653Y-122247542D02*
X152347368Y-122247542D01*
X152347368Y-122247542D02*
X152518796Y-122304685D01*
X153433082Y-122818971D02*
X153604510Y-122876114D01*
X153604510Y-122876114D02*
X153661653Y-122933257D01*
X153661653Y-122933257D02*
X153718796Y-123047542D01*
X153718796Y-123047542D02*
X153718796Y-123218971D01*
X153718796Y-123218971D02*
X153661653Y-123333257D01*
X153661653Y-123333257D02*
X153604510Y-123390400D01*
X153604510Y-123390400D02*
X153490225Y-123447542D01*
X153490225Y-123447542D02*
X153033082Y-123447542D01*
X153033082Y-123447542D02*
X153033082Y-122247542D01*
X153033082Y-122247542D02*
X153433082Y-122247542D01*
X153433082Y-122247542D02*
X153547368Y-122304685D01*
X153547368Y-122304685D02*
X153604510Y-122361828D01*
X153604510Y-122361828D02*
X153661653Y-122476114D01*
X153661653Y-122476114D02*
X153661653Y-122590400D01*
X153661653Y-122590400D02*
X153604510Y-122704685D01*
X153604510Y-122704685D02*
X153547368Y-122761828D01*
X153547368Y-122761828D02*
X153433082Y-122818971D01*
X153433082Y-122818971D02*
X153033082Y-122818971D01*
X154233082Y-122990400D02*
X155147368Y-122990400D01*
X156404510Y-123333257D02*
X156347367Y-123390400D01*
X156347367Y-123390400D02*
X156175939Y-123447542D01*
X156175939Y-123447542D02*
X156061653Y-123447542D01*
X156061653Y-123447542D02*
X155890224Y-123390400D01*
X155890224Y-123390400D02*
X155775939Y-123276114D01*
X155775939Y-123276114D02*
X155718796Y-123161828D01*
X155718796Y-123161828D02*
X155661653Y-122933257D01*
X155661653Y-122933257D02*
X155661653Y-122761828D01*
X155661653Y-122761828D02*
X155718796Y-122533257D01*
X155718796Y-122533257D02*
X155775939Y-122418971D01*
X155775939Y-122418971D02*
X155890224Y-122304685D01*
X155890224Y-122304685D02*
X156061653Y-122247542D01*
X156061653Y-122247542D02*
X156175939Y-122247542D01*
X156175939Y-122247542D02*
X156347367Y-122304685D01*
X156347367Y-122304685D02*
X156404510Y-122361828D01*
X148198257Y-109163703D02*
X148255400Y-109220846D01*
X148255400Y-109220846D02*
X148312542Y-109392274D01*
X148312542Y-109392274D02*
X148312542Y-109506560D01*
X148312542Y-109506560D02*
X148255400Y-109677989D01*
X148255400Y-109677989D02*
X148141114Y-109792274D01*
X148141114Y-109792274D02*
X148026828Y-109849417D01*
X148026828Y-109849417D02*
X147798257Y-109906560D01*
X147798257Y-109906560D02*
X147626828Y-109906560D01*
X147626828Y-109906560D02*
X147398257Y-109849417D01*
X147398257Y-109849417D02*
X147283971Y-109792274D01*
X147283971Y-109792274D02*
X147169685Y-109677989D01*
X147169685Y-109677989D02*
X147112542Y-109506560D01*
X147112542Y-109506560D02*
X147112542Y-109392274D01*
X147112542Y-109392274D02*
X147169685Y-109220846D01*
X147169685Y-109220846D02*
X147226828Y-109163703D01*
X148312542Y-108649417D02*
X147112542Y-108649417D01*
X147683971Y-108649417D02*
X147683971Y-107963703D01*
X148312542Y-107963703D02*
X147112542Y-107963703D01*
X147112542Y-107506560D02*
X147112542Y-106763703D01*
X147112542Y-106763703D02*
X147569685Y-107163703D01*
X147569685Y-107163703D02*
X147569685Y-106992274D01*
X147569685Y-106992274D02*
X147626828Y-106877989D01*
X147626828Y-106877989D02*
X147683971Y-106820846D01*
X147683971Y-106820846D02*
X147798257Y-106763703D01*
X147798257Y-106763703D02*
X148083971Y-106763703D01*
X148083971Y-106763703D02*
X148198257Y-106820846D01*
X148198257Y-106820846D02*
X148255400Y-106877989D01*
X148255400Y-106877989D02*
X148312542Y-106992274D01*
X148312542Y-106992274D02*
X148312542Y-107335131D01*
X148312542Y-107335131D02*
X148255400Y-107449417D01*
X148255400Y-107449417D02*
X148198257Y-107506560D01*
X147512542Y-105735132D02*
X148312542Y-105735132D01*
X147055400Y-106020846D02*
X147912542Y-106306560D01*
X147912542Y-106306560D02*
X147912542Y-105563703D01*
X147112542Y-104877989D02*
X147112542Y-104763703D01*
X147112542Y-104763703D02*
X147169685Y-104649417D01*
X147169685Y-104649417D02*
X147226828Y-104592275D01*
X147226828Y-104592275D02*
X147341114Y-104535132D01*
X147341114Y-104535132D02*
X147569685Y-104477989D01*
X147569685Y-104477989D02*
X147855400Y-104477989D01*
X147855400Y-104477989D02*
X148083971Y-104535132D01*
X148083971Y-104535132D02*
X148198257Y-104592275D01*
X148198257Y-104592275D02*
X148255400Y-104649417D01*
X148255400Y-104649417D02*
X148312542Y-104763703D01*
X148312542Y-104763703D02*
X148312542Y-104877989D01*
X148312542Y-104877989D02*
X148255400Y-104992275D01*
X148255400Y-104992275D02*
X148198257Y-105049417D01*
X148198257Y-105049417D02*
X148083971Y-105106560D01*
X148083971Y-105106560D02*
X147855400Y-105163703D01*
X147855400Y-105163703D02*
X147569685Y-105163703D01*
X147569685Y-105163703D02*
X147341114Y-105106560D01*
X147341114Y-105106560D02*
X147226828Y-105049417D01*
X147226828Y-105049417D02*
X147169685Y-104992275D01*
X147169685Y-104992275D02*
X147112542Y-104877989D01*
X148198257Y-103277989D02*
X148255400Y-103335132D01*
X148255400Y-103335132D02*
X148312542Y-103506560D01*
X148312542Y-103506560D02*
X148312542Y-103620846D01*
X148312542Y-103620846D02*
X148255400Y-103792275D01*
X148255400Y-103792275D02*
X148141114Y-103906560D01*
X148141114Y-103906560D02*
X148026828Y-103963703D01*
X148026828Y-103963703D02*
X147798257Y-104020846D01*
X147798257Y-104020846D02*
X147626828Y-104020846D01*
X147626828Y-104020846D02*
X147398257Y-103963703D01*
X147398257Y-103963703D02*
X147283971Y-103906560D01*
X147283971Y-103906560D02*
X147169685Y-103792275D01*
X147169685Y-103792275D02*
X147112542Y-103620846D01*
X147112542Y-103620846D02*
X147112542Y-103506560D01*
X147112542Y-103506560D02*
X147169685Y-103335132D01*
X147169685Y-103335132D02*
X147226828Y-103277989D01*
X129259600Y-76873082D02*
X129259600Y-77787368D01*
X128802457Y-77330225D02*
X129716742Y-77330225D01*
X129259600Y-79373082D02*
X129259600Y-80287368D01*
X129259600Y-81973082D02*
X129259600Y-82887368D01*
X128802457Y-82430225D02*
X129716742Y-82430225D01*
X129259600Y-84473082D02*
X129259600Y-85387368D01*
X129259600Y-87073082D02*
X129259600Y-87987368D01*
X128802457Y-87530225D02*
X129716742Y-87530225D01*
X129259600Y-89573082D02*
X129259600Y-90487368D01*
X129259600Y-92173082D02*
X129259600Y-93087368D01*
X128802457Y-92630225D02*
X129716742Y-92630225D01*
X129259600Y-94673082D02*
X129259600Y-95587368D01*
X142362457Y-121011653D02*
X142362457Y-121125939D01*
X142362457Y-121125939D02*
X142305314Y-121240225D01*
X142305314Y-121240225D02*
X142248171Y-121297368D01*
X142248171Y-121297368D02*
X142133885Y-121354510D01*
X142133885Y-121354510D02*
X141905314Y-121411653D01*
X141905314Y-121411653D02*
X141619600Y-121411653D01*
X141619600Y-121411653D02*
X141391028Y-121354510D01*
X141391028Y-121354510D02*
X141276742Y-121297368D01*
X141276742Y-121297368D02*
X141219600Y-121240225D01*
X141219600Y-121240225D02*
X141162457Y-121125939D01*
X141162457Y-121125939D02*
X141162457Y-121011653D01*
X141162457Y-121011653D02*
X141219600Y-120897368D01*
X141219600Y-120897368D02*
X141276742Y-120840225D01*
X141276742Y-120840225D02*
X141391028Y-120783082D01*
X141391028Y-120783082D02*
X141619600Y-120725939D01*
X141619600Y-120725939D02*
X141905314Y-120725939D01*
X141905314Y-120725939D02*
X142133885Y-120783082D01*
X142133885Y-120783082D02*
X142248171Y-120840225D01*
X142248171Y-120840225D02*
X142305314Y-120897368D01*
X142305314Y-120897368D02*
X142362457Y-121011653D01*
X141276742Y-121925939D02*
X141219600Y-121983082D01*
X141219600Y-121983082D02*
X141162457Y-121925939D01*
X141162457Y-121925939D02*
X141219600Y-121868796D01*
X141219600Y-121868796D02*
X141276742Y-121925939D01*
X141276742Y-121925939D02*
X141162457Y-121925939D01*
X141162457Y-123125939D02*
X141162457Y-122440225D01*
X141162457Y-122783082D02*
X142362457Y-122783082D01*
X142362457Y-122783082D02*
X142191028Y-122668796D01*
X142191028Y-122668796D02*
X142076742Y-122554511D01*
X142076742Y-122554511D02*
X142019600Y-122440225D01*
X141162457Y-123583082D02*
X141162457Y-123868796D01*
X141162457Y-123868796D02*
X141391028Y-123868796D01*
X141391028Y-123868796D02*
X141448171Y-123754511D01*
X141448171Y-123754511D02*
X141562457Y-123640225D01*
X141562457Y-123640225D02*
X141733885Y-123583082D01*
X141733885Y-123583082D02*
X142019600Y-123583082D01*
X142019600Y-123583082D02*
X142191028Y-123640225D01*
X142191028Y-123640225D02*
X142305314Y-123754511D01*
X142305314Y-123754511D02*
X142362457Y-123925939D01*
X142362457Y-123925939D02*
X142362457Y-124154511D01*
X142362457Y-124154511D02*
X142305314Y-124325939D01*
X142305314Y-124325939D02*
X142191028Y-124440225D01*
X142191028Y-124440225D02*
X142019600Y-124497368D01*
X142019600Y-124497368D02*
X141733885Y-124497368D01*
X141733885Y-124497368D02*
X141562457Y-124440225D01*
X141562457Y-124440225D02*
X141448171Y-124325939D01*
X141448171Y-124325939D02*
X141391028Y-124211653D01*
X141391028Y-124211653D02*
X141162457Y-124211653D01*
X141162457Y-124211653D02*
X141162457Y-124497368D01*
X157862457Y-100183082D02*
X159062457Y-100183082D01*
X159062457Y-100811654D02*
X158833885Y-100697368D01*
X157862457Y-101325940D02*
X158662457Y-101325940D01*
X158548171Y-101325940D02*
X158605314Y-101383083D01*
X158605314Y-101383083D02*
X158662457Y-101497368D01*
X158662457Y-101497368D02*
X158662457Y-101668797D01*
X158662457Y-101668797D02*
X158605314Y-101783083D01*
X158605314Y-101783083D02*
X158491028Y-101840226D01*
X158491028Y-101840226D02*
X157862457Y-101840226D01*
X158491028Y-101840226D02*
X158605314Y-101897368D01*
X158605314Y-101897368D02*
X158662457Y-102011654D01*
X158662457Y-102011654D02*
X158662457Y-102183083D01*
X158662457Y-102183083D02*
X158605314Y-102297368D01*
X158605314Y-102297368D02*
X158491028Y-102354511D01*
X158491028Y-102354511D02*
X157862457Y-102354511D01*
X157862457Y-104354512D02*
X159062457Y-104354512D01*
X157919600Y-104354512D02*
X157862457Y-104240226D01*
X157862457Y-104240226D02*
X157862457Y-104011654D01*
X157862457Y-104011654D02*
X157919600Y-103897369D01*
X157919600Y-103897369D02*
X157976742Y-103840226D01*
X157976742Y-103840226D02*
X158091028Y-103783083D01*
X158091028Y-103783083D02*
X158433885Y-103783083D01*
X158433885Y-103783083D02*
X158548171Y-103840226D01*
X158548171Y-103840226D02*
X158605314Y-103897369D01*
X158605314Y-103897369D02*
X158662457Y-104011654D01*
X158662457Y-104011654D02*
X158662457Y-104240226D01*
X158662457Y-104240226D02*
X158605314Y-104354512D01*
X157919600Y-105383083D02*
X157862457Y-105268797D01*
X157862457Y-105268797D02*
X157862457Y-105040226D01*
X157862457Y-105040226D02*
X157919600Y-104925940D01*
X157919600Y-104925940D02*
X158033885Y-104868797D01*
X158033885Y-104868797D02*
X158491028Y-104868797D01*
X158491028Y-104868797D02*
X158605314Y-104925940D01*
X158605314Y-104925940D02*
X158662457Y-105040226D01*
X158662457Y-105040226D02*
X158662457Y-105268797D01*
X158662457Y-105268797D02*
X158605314Y-105383083D01*
X158605314Y-105383083D02*
X158491028Y-105440226D01*
X158491028Y-105440226D02*
X158376742Y-105440226D01*
X158376742Y-105440226D02*
X158262457Y-104868797D01*
X157862457Y-106468797D02*
X158491028Y-106468797D01*
X158491028Y-106468797D02*
X158605314Y-106411654D01*
X158605314Y-106411654D02*
X158662457Y-106297368D01*
X158662457Y-106297368D02*
X158662457Y-106068797D01*
X158662457Y-106068797D02*
X158605314Y-105954511D01*
X157919600Y-106468797D02*
X157862457Y-106354511D01*
X157862457Y-106354511D02*
X157862457Y-106068797D01*
X157862457Y-106068797D02*
X157919600Y-105954511D01*
X157919600Y-105954511D02*
X158033885Y-105897368D01*
X158033885Y-105897368D02*
X158148171Y-105897368D01*
X158148171Y-105897368D02*
X158262457Y-105954511D01*
X158262457Y-105954511D02*
X158319600Y-106068797D01*
X158319600Y-106068797D02*
X158319600Y-106354511D01*
X158319600Y-106354511D02*
X158376742Y-106468797D01*
X157862457Y-107554511D02*
X159062457Y-107554511D01*
X157919600Y-107554511D02*
X157862457Y-107440225D01*
X157862457Y-107440225D02*
X157862457Y-107211653D01*
X157862457Y-107211653D02*
X157919600Y-107097368D01*
X157919600Y-107097368D02*
X157976742Y-107040225D01*
X157976742Y-107040225D02*
X158091028Y-106983082D01*
X158091028Y-106983082D02*
X158433885Y-106983082D01*
X158433885Y-106983082D02*
X158548171Y-107040225D01*
X158548171Y-107040225D02*
X158605314Y-107097368D01*
X158605314Y-107097368D02*
X158662457Y-107211653D01*
X158662457Y-107211653D02*
X158662457Y-107440225D01*
X158662457Y-107440225D02*
X158605314Y-107554511D01*
X157976742Y-109040225D02*
X157919600Y-109097368D01*
X157919600Y-109097368D02*
X157862457Y-109040225D01*
X157862457Y-109040225D02*
X157919600Y-108983082D01*
X157919600Y-108983082D02*
X157976742Y-109040225D01*
X157976742Y-109040225D02*
X157862457Y-109040225D01*
X158605314Y-109040225D02*
X158548171Y-109097368D01*
X158548171Y-109097368D02*
X158491028Y-109040225D01*
X158491028Y-109040225D02*
X158548171Y-108983082D01*
X158548171Y-108983082D02*
X158605314Y-109040225D01*
X158605314Y-109040225D02*
X158491028Y-109040225D01*
X157405314Y-109954511D02*
X157462457Y-109897368D01*
X157462457Y-109897368D02*
X157633885Y-109783082D01*
X157633885Y-109783082D02*
X157748171Y-109725940D01*
X157748171Y-109725940D02*
X157919600Y-109668797D01*
X157919600Y-109668797D02*
X158205314Y-109611654D01*
X158205314Y-109611654D02*
X158433885Y-109611654D01*
X158433885Y-109611654D02*
X158719600Y-109668797D01*
X158719600Y-109668797D02*
X158891028Y-109725940D01*
X158891028Y-109725940D02*
X159005314Y-109783082D01*
X159005314Y-109783082D02*
X159176742Y-109897368D01*
X159176742Y-109897368D02*
X159233885Y-109954511D01*
X160362457Y-98283082D02*
X161562457Y-98283082D01*
X161162457Y-98683082D02*
X161162457Y-99140225D01*
X160362457Y-98854511D02*
X161391028Y-98854511D01*
X161391028Y-98854511D02*
X161505314Y-98911654D01*
X161505314Y-98911654D02*
X161562457Y-99025939D01*
X161562457Y-99025939D02*
X161562457Y-99140225D01*
X161162457Y-100340225D02*
X160362457Y-100625939D01*
X161162457Y-100911654D02*
X160362457Y-100625939D01*
X160362457Y-100625939D02*
X160076742Y-100511654D01*
X160076742Y-100511654D02*
X160019600Y-100454511D01*
X160019600Y-100454511D02*
X159962457Y-100340225D01*
X160362457Y-101540225D02*
X160419600Y-101425940D01*
X160419600Y-101425940D02*
X160476742Y-101368797D01*
X160476742Y-101368797D02*
X160591028Y-101311654D01*
X160591028Y-101311654D02*
X160933885Y-101311654D01*
X160933885Y-101311654D02*
X161048171Y-101368797D01*
X161048171Y-101368797D02*
X161105314Y-101425940D01*
X161105314Y-101425940D02*
X161162457Y-101540225D01*
X161162457Y-101540225D02*
X161162457Y-101711654D01*
X161162457Y-101711654D02*
X161105314Y-101825940D01*
X161105314Y-101825940D02*
X161048171Y-101883083D01*
X161048171Y-101883083D02*
X160933885Y-101940225D01*
X160933885Y-101940225D02*
X160591028Y-101940225D01*
X160591028Y-101940225D02*
X160476742Y-101883083D01*
X160476742Y-101883083D02*
X160419600Y-101825940D01*
X160419600Y-101825940D02*
X160362457Y-101711654D01*
X160362457Y-101711654D02*
X160362457Y-101540225D01*
X161162457Y-102968797D02*
X160362457Y-102968797D01*
X161162457Y-102454511D02*
X160533885Y-102454511D01*
X160533885Y-102454511D02*
X160419600Y-102511654D01*
X160419600Y-102511654D02*
X160362457Y-102625939D01*
X160362457Y-102625939D02*
X160362457Y-102797368D01*
X160362457Y-102797368D02*
X160419600Y-102911654D01*
X160419600Y-102911654D02*
X160476742Y-102968797D01*
X160419600Y-104397368D02*
X160362457Y-104511654D01*
X160362457Y-104511654D02*
X160362457Y-104740225D01*
X160362457Y-104740225D02*
X160419600Y-104854511D01*
X160419600Y-104854511D02*
X160533885Y-104911654D01*
X160533885Y-104911654D02*
X160591028Y-104911654D01*
X160591028Y-104911654D02*
X160705314Y-104854511D01*
X160705314Y-104854511D02*
X160762457Y-104740225D01*
X160762457Y-104740225D02*
X160762457Y-104568797D01*
X160762457Y-104568797D02*
X160819600Y-104454511D01*
X160819600Y-104454511D02*
X160933885Y-104397368D01*
X160933885Y-104397368D02*
X160991028Y-104397368D01*
X160991028Y-104397368D02*
X161105314Y-104454511D01*
X161105314Y-104454511D02*
X161162457Y-104568797D01*
X161162457Y-104568797D02*
X161162457Y-104740225D01*
X161162457Y-104740225D02*
X161105314Y-104854511D01*
X160419600Y-105883083D02*
X160362457Y-105768797D01*
X160362457Y-105768797D02*
X160362457Y-105540226D01*
X160362457Y-105540226D02*
X160419600Y-105425940D01*
X160419600Y-105425940D02*
X160533885Y-105368797D01*
X160533885Y-105368797D02*
X160991028Y-105368797D01*
X160991028Y-105368797D02*
X161105314Y-105425940D01*
X161105314Y-105425940D02*
X161162457Y-105540226D01*
X161162457Y-105540226D02*
X161162457Y-105768797D01*
X161162457Y-105768797D02*
X161105314Y-105883083D01*
X161105314Y-105883083D02*
X160991028Y-105940226D01*
X160991028Y-105940226D02*
X160876742Y-105940226D01*
X160876742Y-105940226D02*
X160762457Y-105368797D01*
X160419600Y-106911654D02*
X160362457Y-106797368D01*
X160362457Y-106797368D02*
X160362457Y-106568797D01*
X160362457Y-106568797D02*
X160419600Y-106454511D01*
X160419600Y-106454511D02*
X160533885Y-106397368D01*
X160533885Y-106397368D02*
X160991028Y-106397368D01*
X160991028Y-106397368D02*
X161105314Y-106454511D01*
X161105314Y-106454511D02*
X161162457Y-106568797D01*
X161162457Y-106568797D02*
X161162457Y-106797368D01*
X161162457Y-106797368D02*
X161105314Y-106911654D01*
X161105314Y-106911654D02*
X160991028Y-106968797D01*
X160991028Y-106968797D02*
X160876742Y-106968797D01*
X160876742Y-106968797D02*
X160762457Y-106397368D01*
X161162457Y-108225939D02*
X161162457Y-108683082D01*
X161562457Y-108397368D02*
X160533885Y-108397368D01*
X160533885Y-108397368D02*
X160419600Y-108454511D01*
X160419600Y-108454511D02*
X160362457Y-108568796D01*
X160362457Y-108568796D02*
X160362457Y-108683082D01*
X160362457Y-109083082D02*
X161562457Y-109083082D01*
X160362457Y-109597368D02*
X160991028Y-109597368D01*
X160991028Y-109597368D02*
X161105314Y-109540225D01*
X161105314Y-109540225D02*
X161162457Y-109425939D01*
X161162457Y-109425939D02*
X161162457Y-109254510D01*
X161162457Y-109254510D02*
X161105314Y-109140225D01*
X161105314Y-109140225D02*
X161048171Y-109083082D01*
X160362457Y-110168796D02*
X161162457Y-110168796D01*
X161562457Y-110168796D02*
X161505314Y-110111653D01*
X161505314Y-110111653D02*
X161448171Y-110168796D01*
X161448171Y-110168796D02*
X161505314Y-110225939D01*
X161505314Y-110225939D02*
X161562457Y-110168796D01*
X161562457Y-110168796D02*
X161448171Y-110168796D01*
X160419600Y-110683082D02*
X160362457Y-110797368D01*
X160362457Y-110797368D02*
X160362457Y-111025939D01*
X160362457Y-111025939D02*
X160419600Y-111140225D01*
X160419600Y-111140225D02*
X160533885Y-111197368D01*
X160533885Y-111197368D02*
X160591028Y-111197368D01*
X160591028Y-111197368D02*
X160705314Y-111140225D01*
X160705314Y-111140225D02*
X160762457Y-111025939D01*
X160762457Y-111025939D02*
X160762457Y-110854511D01*
X160762457Y-110854511D02*
X160819600Y-110740225D01*
X160819600Y-110740225D02*
X160933885Y-110683082D01*
X160933885Y-110683082D02*
X160991028Y-110683082D01*
X160991028Y-110683082D02*
X161105314Y-110740225D01*
X161105314Y-110740225D02*
X161162457Y-110854511D01*
X161162457Y-110854511D02*
X161162457Y-111025939D01*
X161162457Y-111025939D02*
X161105314Y-111140225D01*
X160419600Y-111768797D02*
X160362457Y-111768797D01*
X160362457Y-111768797D02*
X160248171Y-111711654D01*
X160248171Y-111711654D02*
X160191028Y-111654511D01*
D10*
X130161434Y-100947814D02*
X130223338Y-100885909D01*
X130223338Y-100885909D02*
X130347148Y-100824004D01*
X130347148Y-100824004D02*
X130656672Y-100824004D01*
X130656672Y-100824004D02*
X130780481Y-100885909D01*
X130780481Y-100885909D02*
X130842386Y-100947814D01*
X130842386Y-100947814D02*
X130904291Y-101071623D01*
X130904291Y-101071623D02*
X130904291Y-101195433D01*
X130904291Y-101195433D02*
X130842386Y-101381147D01*
X130842386Y-101381147D02*
X130099529Y-102124004D01*
X130099529Y-102124004D02*
X130904291Y-102124004D01*
X131399529Y-100947814D02*
X131461433Y-100885909D01*
X131461433Y-100885909D02*
X131585243Y-100824004D01*
X131585243Y-100824004D02*
X131894767Y-100824004D01*
X131894767Y-100824004D02*
X132018576Y-100885909D01*
X132018576Y-100885909D02*
X132080481Y-100947814D01*
X132080481Y-100947814D02*
X132142386Y-101071623D01*
X132142386Y-101071623D02*
X132142386Y-101195433D01*
X132142386Y-101195433D02*
X132080481Y-101381147D01*
X132080481Y-101381147D02*
X131337624Y-102124004D01*
X131337624Y-102124004D02*
X132142386Y-102124004D01*
X132699528Y-101257338D02*
X132699528Y-102557338D01*
X133318576Y-101938290D02*
X133380481Y-102062100D01*
X133380481Y-102062100D02*
X133504290Y-102124004D01*
X132699528Y-101938290D02*
X132761433Y-102062100D01*
X132761433Y-102062100D02*
X132885243Y-102124004D01*
X132885243Y-102124004D02*
X133132862Y-102124004D01*
X133132862Y-102124004D02*
X133256671Y-102062100D01*
X133256671Y-102062100D02*
X133318576Y-101938290D01*
X133318576Y-101938290D02*
X133318576Y-101257338D01*
X134061433Y-102124004D02*
X134061433Y-100824004D01*
X134061433Y-101443052D02*
X134804290Y-101443052D01*
X134804290Y-102124004D02*
X134804290Y-100824004D01*
D16*
X141603333Y-87774809D02*
X141603333Y-88131952D01*
X141603333Y-88131952D02*
X141579524Y-88203380D01*
X141579524Y-88203380D02*
X141531905Y-88251000D01*
X141531905Y-88251000D02*
X141460476Y-88274809D01*
X141460476Y-88274809D02*
X141412857Y-88274809D01*
X141841428Y-88274809D02*
X141841428Y-87774809D01*
X141841428Y-87774809D02*
X142031904Y-87774809D01*
X142031904Y-87774809D02*
X142079523Y-87798619D01*
X142079523Y-87798619D02*
X142103333Y-87822428D01*
X142103333Y-87822428D02*
X142127142Y-87870047D01*
X142127142Y-87870047D02*
X142127142Y-87941476D01*
X142127142Y-87941476D02*
X142103333Y-87989095D01*
X142103333Y-87989095D02*
X142079523Y-88012904D01*
X142079523Y-88012904D02*
X142031904Y-88036714D01*
X142031904Y-88036714D02*
X141841428Y-88036714D01*
X142412857Y-87989095D02*
X142365238Y-87965285D01*
X142365238Y-87965285D02*
X142341428Y-87941476D01*
X142341428Y-87941476D02*
X142317619Y-87893857D01*
X142317619Y-87893857D02*
X142317619Y-87870047D01*
X142317619Y-87870047D02*
X142341428Y-87822428D01*
X142341428Y-87822428D02*
X142365238Y-87798619D01*
X142365238Y-87798619D02*
X142412857Y-87774809D01*
X142412857Y-87774809D02*
X142508095Y-87774809D01*
X142508095Y-87774809D02*
X142555714Y-87798619D01*
X142555714Y-87798619D02*
X142579523Y-87822428D01*
X142579523Y-87822428D02*
X142603333Y-87870047D01*
X142603333Y-87870047D02*
X142603333Y-87893857D01*
X142603333Y-87893857D02*
X142579523Y-87941476D01*
X142579523Y-87941476D02*
X142555714Y-87965285D01*
X142555714Y-87965285D02*
X142508095Y-87989095D01*
X142508095Y-87989095D02*
X142412857Y-87989095D01*
X142412857Y-87989095D02*
X142365238Y-88012904D01*
X142365238Y-88012904D02*
X142341428Y-88036714D01*
X142341428Y-88036714D02*
X142317619Y-88084333D01*
X142317619Y-88084333D02*
X142317619Y-88179571D01*
X142317619Y-88179571D02*
X142341428Y-88227190D01*
X142341428Y-88227190D02*
X142365238Y-88251000D01*
X142365238Y-88251000D02*
X142412857Y-88274809D01*
X142412857Y-88274809D02*
X142508095Y-88274809D01*
X142508095Y-88274809D02*
X142555714Y-88251000D01*
X142555714Y-88251000D02*
X142579523Y-88227190D01*
X142579523Y-88227190D02*
X142603333Y-88179571D01*
X142603333Y-88179571D02*
X142603333Y-88084333D01*
X142603333Y-88084333D02*
X142579523Y-88036714D01*
X142579523Y-88036714D02*
X142555714Y-88012904D01*
X142555714Y-88012904D02*
X142508095Y-87989095D01*
X137613333Y-87774809D02*
X137613333Y-88131952D01*
X137613333Y-88131952D02*
X137589524Y-88203380D01*
X137589524Y-88203380D02*
X137541905Y-88251000D01*
X137541905Y-88251000D02*
X137470476Y-88274809D01*
X137470476Y-88274809D02*
X137422857Y-88274809D01*
X137851428Y-88274809D02*
X137851428Y-87774809D01*
X137851428Y-87774809D02*
X138041904Y-87774809D01*
X138041904Y-87774809D02*
X138089523Y-87798619D01*
X138089523Y-87798619D02*
X138113333Y-87822428D01*
X138113333Y-87822428D02*
X138137142Y-87870047D01*
X138137142Y-87870047D02*
X138137142Y-87941476D01*
X138137142Y-87941476D02*
X138113333Y-87989095D01*
X138113333Y-87989095D02*
X138089523Y-88012904D01*
X138089523Y-88012904D02*
X138041904Y-88036714D01*
X138041904Y-88036714D02*
X137851428Y-88036714D01*
X138303809Y-87774809D02*
X138637142Y-87774809D01*
X138637142Y-87774809D02*
X138422857Y-88274809D01*
X169883334Y-115424810D02*
X169883334Y-115781953D01*
X169883334Y-115781953D02*
X169859525Y-115853381D01*
X169859525Y-115853381D02*
X169811906Y-115901001D01*
X169811906Y-115901001D02*
X169740477Y-115924810D01*
X169740477Y-115924810D02*
X169692858Y-115924810D01*
X170121429Y-115924810D02*
X170121429Y-115424810D01*
X170121429Y-115424810D02*
X170311905Y-115424810D01*
X170311905Y-115424810D02*
X170359524Y-115448620D01*
X170359524Y-115448620D02*
X170383334Y-115472429D01*
X170383334Y-115472429D02*
X170407143Y-115520048D01*
X170407143Y-115520048D02*
X170407143Y-115591477D01*
X170407143Y-115591477D02*
X170383334Y-115639096D01*
X170383334Y-115639096D02*
X170359524Y-115662905D01*
X170359524Y-115662905D02*
X170311905Y-115686715D01*
X170311905Y-115686715D02*
X170121429Y-115686715D01*
X170883334Y-115924810D02*
X170597620Y-115924810D01*
X170740477Y-115924810D02*
X170740477Y-115424810D01*
X170740477Y-115424810D02*
X170692858Y-115496239D01*
X170692858Y-115496239D02*
X170645239Y-115543858D01*
X170645239Y-115543858D02*
X170597620Y-115567667D01*
X145278571Y-93327190D02*
X145254762Y-93351000D01*
X145254762Y-93351000D02*
X145183333Y-93374809D01*
X145183333Y-93374809D02*
X145135714Y-93374809D01*
X145135714Y-93374809D02*
X145064286Y-93351000D01*
X145064286Y-93351000D02*
X145016667Y-93303380D01*
X145016667Y-93303380D02*
X144992857Y-93255761D01*
X144992857Y-93255761D02*
X144969048Y-93160523D01*
X144969048Y-93160523D02*
X144969048Y-93089095D01*
X144969048Y-93089095D02*
X144992857Y-92993857D01*
X144992857Y-92993857D02*
X145016667Y-92946238D01*
X145016667Y-92946238D02*
X145064286Y-92898619D01*
X145064286Y-92898619D02*
X145135714Y-92874809D01*
X145135714Y-92874809D02*
X145183333Y-92874809D01*
X145183333Y-92874809D02*
X145254762Y-92898619D01*
X145254762Y-92898619D02*
X145278571Y-92922428D01*
X145469048Y-92922428D02*
X145492857Y-92898619D01*
X145492857Y-92898619D02*
X145540476Y-92874809D01*
X145540476Y-92874809D02*
X145659524Y-92874809D01*
X145659524Y-92874809D02*
X145707143Y-92898619D01*
X145707143Y-92898619D02*
X145730952Y-92922428D01*
X145730952Y-92922428D02*
X145754762Y-92970047D01*
X145754762Y-92970047D02*
X145754762Y-93017666D01*
X145754762Y-93017666D02*
X145730952Y-93089095D01*
X145730952Y-93089095D02*
X145445238Y-93374809D01*
X145445238Y-93374809D02*
X145754762Y-93374809D01*
X145945238Y-92922428D02*
X145969047Y-92898619D01*
X145969047Y-92898619D02*
X146016666Y-92874809D01*
X146016666Y-92874809D02*
X146135714Y-92874809D01*
X146135714Y-92874809D02*
X146183333Y-92898619D01*
X146183333Y-92898619D02*
X146207142Y-92922428D01*
X146207142Y-92922428D02*
X146230952Y-92970047D01*
X146230952Y-92970047D02*
X146230952Y-93017666D01*
X146230952Y-93017666D02*
X146207142Y-93089095D01*
X146207142Y-93089095D02*
X145921428Y-93374809D01*
X145921428Y-93374809D02*
X146230952Y-93374809D01*
X149830952Y-117824809D02*
X149830952Y-117324809D01*
X149830952Y-117324809D02*
X149950000Y-117324809D01*
X149950000Y-117324809D02*
X150021428Y-117348619D01*
X150021428Y-117348619D02*
X150069047Y-117396238D01*
X150069047Y-117396238D02*
X150092857Y-117443857D01*
X150092857Y-117443857D02*
X150116666Y-117539095D01*
X150116666Y-117539095D02*
X150116666Y-117610523D01*
X150116666Y-117610523D02*
X150092857Y-117705761D01*
X150092857Y-117705761D02*
X150069047Y-117753380D01*
X150069047Y-117753380D02*
X150021428Y-117801000D01*
X150021428Y-117801000D02*
X149950000Y-117824809D01*
X149950000Y-117824809D02*
X149830952Y-117824809D01*
X150569047Y-117324809D02*
X150330952Y-117324809D01*
X150330952Y-117324809D02*
X150307143Y-117562904D01*
X150307143Y-117562904D02*
X150330952Y-117539095D01*
X150330952Y-117539095D02*
X150378571Y-117515285D01*
X150378571Y-117515285D02*
X150497619Y-117515285D01*
X150497619Y-117515285D02*
X150545238Y-117539095D01*
X150545238Y-117539095D02*
X150569047Y-117562904D01*
X150569047Y-117562904D02*
X150592857Y-117610523D01*
X150592857Y-117610523D02*
X150592857Y-117729571D01*
X150592857Y-117729571D02*
X150569047Y-117777190D01*
X150569047Y-117777190D02*
X150545238Y-117801000D01*
X150545238Y-117801000D02*
X150497619Y-117824809D01*
X150497619Y-117824809D02*
X150378571Y-117824809D01*
X150378571Y-117824809D02*
X150330952Y-117801000D01*
X150330952Y-117801000D02*
X150307143Y-117777190D01*
X145128571Y-113027190D02*
X145104762Y-113051000D01*
X145104762Y-113051000D02*
X145033333Y-113074809D01*
X145033333Y-113074809D02*
X144985714Y-113074809D01*
X144985714Y-113074809D02*
X144914286Y-113051000D01*
X144914286Y-113051000D02*
X144866667Y-113003380D01*
X144866667Y-113003380D02*
X144842857Y-112955761D01*
X144842857Y-112955761D02*
X144819048Y-112860523D01*
X144819048Y-112860523D02*
X144819048Y-112789095D01*
X144819048Y-112789095D02*
X144842857Y-112693857D01*
X144842857Y-112693857D02*
X144866667Y-112646238D01*
X144866667Y-112646238D02*
X144914286Y-112598619D01*
X144914286Y-112598619D02*
X144985714Y-112574809D01*
X144985714Y-112574809D02*
X145033333Y-112574809D01*
X145033333Y-112574809D02*
X145104762Y-112598619D01*
X145104762Y-112598619D02*
X145128571Y-112622428D01*
X145295238Y-112574809D02*
X145604762Y-112574809D01*
X145604762Y-112574809D02*
X145438095Y-112765285D01*
X145438095Y-112765285D02*
X145509524Y-112765285D01*
X145509524Y-112765285D02*
X145557143Y-112789095D01*
X145557143Y-112789095D02*
X145580952Y-112812904D01*
X145580952Y-112812904D02*
X145604762Y-112860523D01*
X145604762Y-112860523D02*
X145604762Y-112979571D01*
X145604762Y-112979571D02*
X145580952Y-113027190D01*
X145580952Y-113027190D02*
X145557143Y-113051000D01*
X145557143Y-113051000D02*
X145509524Y-113074809D01*
X145509524Y-113074809D02*
X145366667Y-113074809D01*
X145366667Y-113074809D02*
X145319048Y-113051000D01*
X145319048Y-113051000D02*
X145295238Y-113027190D01*
X145771428Y-112574809D02*
X146080952Y-112574809D01*
X146080952Y-112574809D02*
X145914285Y-112765285D01*
X145914285Y-112765285D02*
X145985714Y-112765285D01*
X145985714Y-112765285D02*
X146033333Y-112789095D01*
X146033333Y-112789095D02*
X146057142Y-112812904D01*
X146057142Y-112812904D02*
X146080952Y-112860523D01*
X146080952Y-112860523D02*
X146080952Y-112979571D01*
X146080952Y-112979571D02*
X146057142Y-113027190D01*
X146057142Y-113027190D02*
X146033333Y-113051000D01*
X146033333Y-113051000D02*
X145985714Y-113074809D01*
X145985714Y-113074809D02*
X145842857Y-113074809D01*
X145842857Y-113074809D02*
X145795238Y-113051000D01*
X145795238Y-113051000D02*
X145771428Y-113027190D01*
X157152380Y-76322428D02*
X157104761Y-76298619D01*
X157104761Y-76298619D02*
X157057142Y-76251000D01*
X157057142Y-76251000D02*
X156985714Y-76179571D01*
X156985714Y-76179571D02*
X156938095Y-76155761D01*
X156938095Y-76155761D02*
X156890476Y-76155761D01*
X156914285Y-76274809D02*
X156866666Y-76251000D01*
X156866666Y-76251000D02*
X156819047Y-76203380D01*
X156819047Y-76203380D02*
X156795238Y-76108142D01*
X156795238Y-76108142D02*
X156795238Y-75941476D01*
X156795238Y-75941476D02*
X156819047Y-75846238D01*
X156819047Y-75846238D02*
X156866666Y-75798619D01*
X156866666Y-75798619D02*
X156914285Y-75774809D01*
X156914285Y-75774809D02*
X157009523Y-75774809D01*
X157009523Y-75774809D02*
X157057142Y-75798619D01*
X157057142Y-75798619D02*
X157104761Y-75846238D01*
X157104761Y-75846238D02*
X157128571Y-75941476D01*
X157128571Y-75941476D02*
X157128571Y-76108142D01*
X157128571Y-76108142D02*
X157104761Y-76203380D01*
X157104761Y-76203380D02*
X157057142Y-76251000D01*
X157057142Y-76251000D02*
X157009523Y-76274809D01*
X157009523Y-76274809D02*
X156914285Y-76274809D01*
X157319048Y-75822428D02*
X157342857Y-75798619D01*
X157342857Y-75798619D02*
X157390476Y-75774809D01*
X157390476Y-75774809D02*
X157509524Y-75774809D01*
X157509524Y-75774809D02*
X157557143Y-75798619D01*
X157557143Y-75798619D02*
X157580952Y-75822428D01*
X157580952Y-75822428D02*
X157604762Y-75870047D01*
X157604762Y-75870047D02*
X157604762Y-75917666D01*
X157604762Y-75917666D02*
X157580952Y-75989095D01*
X157580952Y-75989095D02*
X157295238Y-76274809D01*
X157295238Y-76274809D02*
X157604762Y-76274809D01*
X146283333Y-84074809D02*
X146283333Y-84431952D01*
X146283333Y-84431952D02*
X146259524Y-84503380D01*
X146259524Y-84503380D02*
X146211905Y-84551000D01*
X146211905Y-84551000D02*
X146140476Y-84574809D01*
X146140476Y-84574809D02*
X146092857Y-84574809D01*
X146521428Y-84574809D02*
X146521428Y-84074809D01*
X146521428Y-84074809D02*
X146711904Y-84074809D01*
X146711904Y-84074809D02*
X146759523Y-84098619D01*
X146759523Y-84098619D02*
X146783333Y-84122428D01*
X146783333Y-84122428D02*
X146807142Y-84170047D01*
X146807142Y-84170047D02*
X146807142Y-84241476D01*
X146807142Y-84241476D02*
X146783333Y-84289095D01*
X146783333Y-84289095D02*
X146759523Y-84312904D01*
X146759523Y-84312904D02*
X146711904Y-84336714D01*
X146711904Y-84336714D02*
X146521428Y-84336714D01*
X147045238Y-84574809D02*
X147140476Y-84574809D01*
X147140476Y-84574809D02*
X147188095Y-84551000D01*
X147188095Y-84551000D02*
X147211904Y-84527190D01*
X147211904Y-84527190D02*
X147259523Y-84455761D01*
X147259523Y-84455761D02*
X147283333Y-84360523D01*
X147283333Y-84360523D02*
X147283333Y-84170047D01*
X147283333Y-84170047D02*
X147259523Y-84122428D01*
X147259523Y-84122428D02*
X147235714Y-84098619D01*
X147235714Y-84098619D02*
X147188095Y-84074809D01*
X147188095Y-84074809D02*
X147092857Y-84074809D01*
X147092857Y-84074809D02*
X147045238Y-84098619D01*
X147045238Y-84098619D02*
X147021428Y-84122428D01*
X147021428Y-84122428D02*
X146997619Y-84170047D01*
X146997619Y-84170047D02*
X146997619Y-84289095D01*
X146997619Y-84289095D02*
X147021428Y-84336714D01*
X147021428Y-84336714D02*
X147045238Y-84360523D01*
X147045238Y-84360523D02*
X147092857Y-84384333D01*
X147092857Y-84384333D02*
X147188095Y-84384333D01*
X147188095Y-84384333D02*
X147235714Y-84360523D01*
X147235714Y-84360523D02*
X147259523Y-84336714D01*
X147259523Y-84336714D02*
X147283333Y-84289095D01*
X165069047Y-121674809D02*
X165069047Y-122079571D01*
X165069047Y-122079571D02*
X165092857Y-122127190D01*
X165092857Y-122127190D02*
X165116666Y-122151000D01*
X165116666Y-122151000D02*
X165164285Y-122174809D01*
X165164285Y-122174809D02*
X165259523Y-122174809D01*
X165259523Y-122174809D02*
X165307142Y-122151000D01*
X165307142Y-122151000D02*
X165330952Y-122127190D01*
X165330952Y-122127190D02*
X165354761Y-122079571D01*
X165354761Y-122079571D02*
X165354761Y-121674809D01*
X165807143Y-121841476D02*
X165807143Y-122174809D01*
X165688095Y-121651000D02*
X165569048Y-122008142D01*
X165569048Y-122008142D02*
X165878571Y-122008142D01*
X145428571Y-121177190D02*
X145404762Y-121201000D01*
X145404762Y-121201000D02*
X145333333Y-121224809D01*
X145333333Y-121224809D02*
X145285714Y-121224809D01*
X145285714Y-121224809D02*
X145214286Y-121201000D01*
X145214286Y-121201000D02*
X145166667Y-121153380D01*
X145166667Y-121153380D02*
X145142857Y-121105761D01*
X145142857Y-121105761D02*
X145119048Y-121010523D01*
X145119048Y-121010523D02*
X145119048Y-120939095D01*
X145119048Y-120939095D02*
X145142857Y-120843857D01*
X145142857Y-120843857D02*
X145166667Y-120796238D01*
X145166667Y-120796238D02*
X145214286Y-120748619D01*
X145214286Y-120748619D02*
X145285714Y-120724809D01*
X145285714Y-120724809D02*
X145333333Y-120724809D01*
X145333333Y-120724809D02*
X145404762Y-120748619D01*
X145404762Y-120748619D02*
X145428571Y-120772428D01*
X145619048Y-120772428D02*
X145642857Y-120748619D01*
X145642857Y-120748619D02*
X145690476Y-120724809D01*
X145690476Y-120724809D02*
X145809524Y-120724809D01*
X145809524Y-120724809D02*
X145857143Y-120748619D01*
X145857143Y-120748619D02*
X145880952Y-120772428D01*
X145880952Y-120772428D02*
X145904762Y-120820047D01*
X145904762Y-120820047D02*
X145904762Y-120867666D01*
X145904762Y-120867666D02*
X145880952Y-120939095D01*
X145880952Y-120939095D02*
X145595238Y-121224809D01*
X145595238Y-121224809D02*
X145904762Y-121224809D01*
X146190476Y-120939095D02*
X146142857Y-120915285D01*
X146142857Y-120915285D02*
X146119047Y-120891476D01*
X146119047Y-120891476D02*
X146095238Y-120843857D01*
X146095238Y-120843857D02*
X146095238Y-120820047D01*
X146095238Y-120820047D02*
X146119047Y-120772428D01*
X146119047Y-120772428D02*
X146142857Y-120748619D01*
X146142857Y-120748619D02*
X146190476Y-120724809D01*
X146190476Y-120724809D02*
X146285714Y-120724809D01*
X146285714Y-120724809D02*
X146333333Y-120748619D01*
X146333333Y-120748619D02*
X146357142Y-120772428D01*
X146357142Y-120772428D02*
X146380952Y-120820047D01*
X146380952Y-120820047D02*
X146380952Y-120843857D01*
X146380952Y-120843857D02*
X146357142Y-120891476D01*
X146357142Y-120891476D02*
X146333333Y-120915285D01*
X146333333Y-120915285D02*
X146285714Y-120939095D01*
X146285714Y-120939095D02*
X146190476Y-120939095D01*
X146190476Y-120939095D02*
X146142857Y-120962904D01*
X146142857Y-120962904D02*
X146119047Y-120986714D01*
X146119047Y-120986714D02*
X146095238Y-121034333D01*
X146095238Y-121034333D02*
X146095238Y-121129571D01*
X146095238Y-121129571D02*
X146119047Y-121177190D01*
X146119047Y-121177190D02*
X146142857Y-121201000D01*
X146142857Y-121201000D02*
X146190476Y-121224809D01*
X146190476Y-121224809D02*
X146285714Y-121224809D01*
X146285714Y-121224809D02*
X146333333Y-121201000D01*
X146333333Y-121201000D02*
X146357142Y-121177190D01*
X146357142Y-121177190D02*
X146380952Y-121129571D01*
X146380952Y-121129571D02*
X146380952Y-121034333D01*
X146380952Y-121034333D02*
X146357142Y-120986714D01*
X146357142Y-120986714D02*
X146333333Y-120962904D01*
X146333333Y-120962904D02*
X146285714Y-120939095D01*
X163716666Y-81474809D02*
X163550000Y-81236714D01*
X163430952Y-81474809D02*
X163430952Y-80974809D01*
X163430952Y-80974809D02*
X163621428Y-80974809D01*
X163621428Y-80974809D02*
X163669047Y-80998619D01*
X163669047Y-80998619D02*
X163692857Y-81022428D01*
X163692857Y-81022428D02*
X163716666Y-81070047D01*
X163716666Y-81070047D02*
X163716666Y-81141476D01*
X163716666Y-81141476D02*
X163692857Y-81189095D01*
X163692857Y-81189095D02*
X163669047Y-81212904D01*
X163669047Y-81212904D02*
X163621428Y-81236714D01*
X163621428Y-81236714D02*
X163430952Y-81236714D01*
X163954762Y-81474809D02*
X164050000Y-81474809D01*
X164050000Y-81474809D02*
X164097619Y-81451000D01*
X164097619Y-81451000D02*
X164121428Y-81427190D01*
X164121428Y-81427190D02*
X164169047Y-81355761D01*
X164169047Y-81355761D02*
X164192857Y-81260523D01*
X164192857Y-81260523D02*
X164192857Y-81070047D01*
X164192857Y-81070047D02*
X164169047Y-81022428D01*
X164169047Y-81022428D02*
X164145238Y-80998619D01*
X164145238Y-80998619D02*
X164097619Y-80974809D01*
X164097619Y-80974809D02*
X164002381Y-80974809D01*
X164002381Y-80974809D02*
X163954762Y-80998619D01*
X163954762Y-80998619D02*
X163930952Y-81022428D01*
X163930952Y-81022428D02*
X163907143Y-81070047D01*
X163907143Y-81070047D02*
X163907143Y-81189095D01*
X163907143Y-81189095D02*
X163930952Y-81236714D01*
X163930952Y-81236714D02*
X163954762Y-81260523D01*
X163954762Y-81260523D02*
X164002381Y-81284333D01*
X164002381Y-81284333D02*
X164097619Y-81284333D01*
X164097619Y-81284333D02*
X164145238Y-81260523D01*
X164145238Y-81260523D02*
X164169047Y-81236714D01*
X164169047Y-81236714D02*
X164192857Y-81189095D01*
X136719047Y-105024809D02*
X136719047Y-105429571D01*
X136719047Y-105429571D02*
X136742857Y-105477190D01*
X136742857Y-105477190D02*
X136766666Y-105501000D01*
X136766666Y-105501000D02*
X136814285Y-105524809D01*
X136814285Y-105524809D02*
X136909523Y-105524809D01*
X136909523Y-105524809D02*
X136957142Y-105501000D01*
X136957142Y-105501000D02*
X136980952Y-105477190D01*
X136980952Y-105477190D02*
X137004761Y-105429571D01*
X137004761Y-105429571D02*
X137004761Y-105024809D01*
X137219048Y-105072428D02*
X137242857Y-105048619D01*
X137242857Y-105048619D02*
X137290476Y-105024809D01*
X137290476Y-105024809D02*
X137409524Y-105024809D01*
X137409524Y-105024809D02*
X137457143Y-105048619D01*
X137457143Y-105048619D02*
X137480952Y-105072428D01*
X137480952Y-105072428D02*
X137504762Y-105120047D01*
X137504762Y-105120047D02*
X137504762Y-105167666D01*
X137504762Y-105167666D02*
X137480952Y-105239095D01*
X137480952Y-105239095D02*
X137195238Y-105524809D01*
X137195238Y-105524809D02*
X137504762Y-105524809D01*
X163528571Y-88824809D02*
X163361905Y-88586714D01*
X163242857Y-88824809D02*
X163242857Y-88324809D01*
X163242857Y-88324809D02*
X163433333Y-88324809D01*
X163433333Y-88324809D02*
X163480952Y-88348619D01*
X163480952Y-88348619D02*
X163504762Y-88372428D01*
X163504762Y-88372428D02*
X163528571Y-88420047D01*
X163528571Y-88420047D02*
X163528571Y-88491476D01*
X163528571Y-88491476D02*
X163504762Y-88539095D01*
X163504762Y-88539095D02*
X163480952Y-88562904D01*
X163480952Y-88562904D02*
X163433333Y-88586714D01*
X163433333Y-88586714D02*
X163242857Y-88586714D01*
X164004762Y-88824809D02*
X163719048Y-88824809D01*
X163861905Y-88824809D02*
X163861905Y-88324809D01*
X163861905Y-88324809D02*
X163814286Y-88396238D01*
X163814286Y-88396238D02*
X163766667Y-88443857D01*
X163766667Y-88443857D02*
X163719048Y-88467666D01*
X164480952Y-88824809D02*
X164195238Y-88824809D01*
X164338095Y-88824809D02*
X164338095Y-88324809D01*
X164338095Y-88324809D02*
X164290476Y-88396238D01*
X164290476Y-88396238D02*
X164242857Y-88443857D01*
X164242857Y-88443857D02*
X164195238Y-88467666D01*
X163528571Y-84974809D02*
X163361905Y-84736714D01*
X163242857Y-84974809D02*
X163242857Y-84474809D01*
X163242857Y-84474809D02*
X163433333Y-84474809D01*
X163433333Y-84474809D02*
X163480952Y-84498619D01*
X163480952Y-84498619D02*
X163504762Y-84522428D01*
X163504762Y-84522428D02*
X163528571Y-84570047D01*
X163528571Y-84570047D02*
X163528571Y-84641476D01*
X163528571Y-84641476D02*
X163504762Y-84689095D01*
X163504762Y-84689095D02*
X163480952Y-84712904D01*
X163480952Y-84712904D02*
X163433333Y-84736714D01*
X163433333Y-84736714D02*
X163242857Y-84736714D01*
X164004762Y-84974809D02*
X163719048Y-84974809D01*
X163861905Y-84974809D02*
X163861905Y-84474809D01*
X163861905Y-84474809D02*
X163814286Y-84546238D01*
X163814286Y-84546238D02*
X163766667Y-84593857D01*
X163766667Y-84593857D02*
X163719048Y-84617666D01*
X164314285Y-84474809D02*
X164361904Y-84474809D01*
X164361904Y-84474809D02*
X164409523Y-84498619D01*
X164409523Y-84498619D02*
X164433333Y-84522428D01*
X164433333Y-84522428D02*
X164457142Y-84570047D01*
X164457142Y-84570047D02*
X164480952Y-84665285D01*
X164480952Y-84665285D02*
X164480952Y-84784333D01*
X164480952Y-84784333D02*
X164457142Y-84879571D01*
X164457142Y-84879571D02*
X164433333Y-84927190D01*
X164433333Y-84927190D02*
X164409523Y-84951000D01*
X164409523Y-84951000D02*
X164361904Y-84974809D01*
X164361904Y-84974809D02*
X164314285Y-84974809D01*
X164314285Y-84974809D02*
X164266666Y-84951000D01*
X164266666Y-84951000D02*
X164242857Y-84927190D01*
X164242857Y-84927190D02*
X164219047Y-84879571D01*
X164219047Y-84879571D02*
X164195238Y-84784333D01*
X164195238Y-84784333D02*
X164195238Y-84665285D01*
X164195238Y-84665285D02*
X164219047Y-84570047D01*
X164219047Y-84570047D02*
X164242857Y-84522428D01*
X164242857Y-84522428D02*
X164266666Y-84498619D01*
X164266666Y-84498619D02*
X164314285Y-84474809D01*
X143219047Y-97609809D02*
X143219047Y-98014571D01*
X143219047Y-98014571D02*
X143242857Y-98062190D01*
X143242857Y-98062190D02*
X143266666Y-98086000D01*
X143266666Y-98086000D02*
X143314285Y-98109809D01*
X143314285Y-98109809D02*
X143409523Y-98109809D01*
X143409523Y-98109809D02*
X143457142Y-98086000D01*
X143457142Y-98086000D02*
X143480952Y-98062190D01*
X143480952Y-98062190D02*
X143504761Y-98014571D01*
X143504761Y-98014571D02*
X143504761Y-97609809D01*
X143695238Y-97609809D02*
X144028571Y-97609809D01*
X144028571Y-97609809D02*
X143814286Y-98109809D01*
X136783333Y-103324809D02*
X136783333Y-103681952D01*
X136783333Y-103681952D02*
X136759524Y-103753380D01*
X136759524Y-103753380D02*
X136711905Y-103801000D01*
X136711905Y-103801000D02*
X136640476Y-103824809D01*
X136640476Y-103824809D02*
X136592857Y-103824809D01*
X137021428Y-103824809D02*
X137021428Y-103324809D01*
X137021428Y-103324809D02*
X137211904Y-103324809D01*
X137211904Y-103324809D02*
X137259523Y-103348619D01*
X137259523Y-103348619D02*
X137283333Y-103372428D01*
X137283333Y-103372428D02*
X137307142Y-103420047D01*
X137307142Y-103420047D02*
X137307142Y-103491476D01*
X137307142Y-103491476D02*
X137283333Y-103539095D01*
X137283333Y-103539095D02*
X137259523Y-103562904D01*
X137259523Y-103562904D02*
X137211904Y-103586714D01*
X137211904Y-103586714D02*
X137021428Y-103586714D01*
X137497619Y-103372428D02*
X137521428Y-103348619D01*
X137521428Y-103348619D02*
X137569047Y-103324809D01*
X137569047Y-103324809D02*
X137688095Y-103324809D01*
X137688095Y-103324809D02*
X137735714Y-103348619D01*
X137735714Y-103348619D02*
X137759523Y-103372428D01*
X137759523Y-103372428D02*
X137783333Y-103420047D01*
X137783333Y-103420047D02*
X137783333Y-103467666D01*
X137783333Y-103467666D02*
X137759523Y-103539095D01*
X137759523Y-103539095D02*
X137473809Y-103824809D01*
X137473809Y-103824809D02*
X137783333Y-103824809D01*
X166028571Y-80027190D02*
X166004762Y-80051000D01*
X166004762Y-80051000D02*
X165933333Y-80074809D01*
X165933333Y-80074809D02*
X165885714Y-80074809D01*
X165885714Y-80074809D02*
X165814286Y-80051000D01*
X165814286Y-80051000D02*
X165766667Y-80003380D01*
X165766667Y-80003380D02*
X165742857Y-79955761D01*
X165742857Y-79955761D02*
X165719048Y-79860523D01*
X165719048Y-79860523D02*
X165719048Y-79789095D01*
X165719048Y-79789095D02*
X165742857Y-79693857D01*
X165742857Y-79693857D02*
X165766667Y-79646238D01*
X165766667Y-79646238D02*
X165814286Y-79598619D01*
X165814286Y-79598619D02*
X165885714Y-79574809D01*
X165885714Y-79574809D02*
X165933333Y-79574809D01*
X165933333Y-79574809D02*
X166004762Y-79598619D01*
X166004762Y-79598619D02*
X166028571Y-79622428D01*
X166195238Y-79574809D02*
X166504762Y-79574809D01*
X166504762Y-79574809D02*
X166338095Y-79765285D01*
X166338095Y-79765285D02*
X166409524Y-79765285D01*
X166409524Y-79765285D02*
X166457143Y-79789095D01*
X166457143Y-79789095D02*
X166480952Y-79812904D01*
X166480952Y-79812904D02*
X166504762Y-79860523D01*
X166504762Y-79860523D02*
X166504762Y-79979571D01*
X166504762Y-79979571D02*
X166480952Y-80027190D01*
X166480952Y-80027190D02*
X166457143Y-80051000D01*
X166457143Y-80051000D02*
X166409524Y-80074809D01*
X166409524Y-80074809D02*
X166266667Y-80074809D01*
X166266667Y-80074809D02*
X166219048Y-80051000D01*
X166219048Y-80051000D02*
X166195238Y-80027190D01*
X166695238Y-79622428D02*
X166719047Y-79598619D01*
X166719047Y-79598619D02*
X166766666Y-79574809D01*
X166766666Y-79574809D02*
X166885714Y-79574809D01*
X166885714Y-79574809D02*
X166933333Y-79598619D01*
X166933333Y-79598619D02*
X166957142Y-79622428D01*
X166957142Y-79622428D02*
X166980952Y-79670047D01*
X166980952Y-79670047D02*
X166980952Y-79717666D01*
X166980952Y-79717666D02*
X166957142Y-79789095D01*
X166957142Y-79789095D02*
X166671428Y-80074809D01*
X166671428Y-80074809D02*
X166980952Y-80074809D01*
X137678571Y-93677190D02*
X137654762Y-93701000D01*
X137654762Y-93701000D02*
X137583333Y-93724809D01*
X137583333Y-93724809D02*
X137535714Y-93724809D01*
X137535714Y-93724809D02*
X137464286Y-93701000D01*
X137464286Y-93701000D02*
X137416667Y-93653380D01*
X137416667Y-93653380D02*
X137392857Y-93605761D01*
X137392857Y-93605761D02*
X137369048Y-93510523D01*
X137369048Y-93510523D02*
X137369048Y-93439095D01*
X137369048Y-93439095D02*
X137392857Y-93343857D01*
X137392857Y-93343857D02*
X137416667Y-93296238D01*
X137416667Y-93296238D02*
X137464286Y-93248619D01*
X137464286Y-93248619D02*
X137535714Y-93224809D01*
X137535714Y-93224809D02*
X137583333Y-93224809D01*
X137583333Y-93224809D02*
X137654762Y-93248619D01*
X137654762Y-93248619D02*
X137678571Y-93272428D01*
X138154762Y-93724809D02*
X137869048Y-93724809D01*
X138011905Y-93724809D02*
X138011905Y-93224809D01*
X138011905Y-93224809D02*
X137964286Y-93296238D01*
X137964286Y-93296238D02*
X137916667Y-93343857D01*
X137916667Y-93343857D02*
X137869048Y-93367666D01*
X138392857Y-93724809D02*
X138488095Y-93724809D01*
X138488095Y-93724809D02*
X138535714Y-93701000D01*
X138535714Y-93701000D02*
X138559523Y-93677190D01*
X138559523Y-93677190D02*
X138607142Y-93605761D01*
X138607142Y-93605761D02*
X138630952Y-93510523D01*
X138630952Y-93510523D02*
X138630952Y-93320047D01*
X138630952Y-93320047D02*
X138607142Y-93272428D01*
X138607142Y-93272428D02*
X138583333Y-93248619D01*
X138583333Y-93248619D02*
X138535714Y-93224809D01*
X138535714Y-93224809D02*
X138440476Y-93224809D01*
X138440476Y-93224809D02*
X138392857Y-93248619D01*
X138392857Y-93248619D02*
X138369047Y-93272428D01*
X138369047Y-93272428D02*
X138345238Y-93320047D01*
X138345238Y-93320047D02*
X138345238Y-93439095D01*
X138345238Y-93439095D02*
X138369047Y-93486714D01*
X138369047Y-93486714D02*
X138392857Y-93510523D01*
X138392857Y-93510523D02*
X138440476Y-93534333D01*
X138440476Y-93534333D02*
X138535714Y-93534333D01*
X138535714Y-93534333D02*
X138583333Y-93510523D01*
X138583333Y-93510523D02*
X138607142Y-93486714D01*
X138607142Y-93486714D02*
X138630952Y-93439095D01*
X163528571Y-90874809D02*
X163361905Y-90636714D01*
X163242857Y-90874809D02*
X163242857Y-90374809D01*
X163242857Y-90374809D02*
X163433333Y-90374809D01*
X163433333Y-90374809D02*
X163480952Y-90398619D01*
X163480952Y-90398619D02*
X163504762Y-90422428D01*
X163504762Y-90422428D02*
X163528571Y-90470047D01*
X163528571Y-90470047D02*
X163528571Y-90541476D01*
X163528571Y-90541476D02*
X163504762Y-90589095D01*
X163504762Y-90589095D02*
X163480952Y-90612904D01*
X163480952Y-90612904D02*
X163433333Y-90636714D01*
X163433333Y-90636714D02*
X163242857Y-90636714D01*
X164004762Y-90874809D02*
X163719048Y-90874809D01*
X163861905Y-90874809D02*
X163861905Y-90374809D01*
X163861905Y-90374809D02*
X163814286Y-90446238D01*
X163814286Y-90446238D02*
X163766667Y-90493857D01*
X163766667Y-90493857D02*
X163719048Y-90517666D01*
X164171428Y-90374809D02*
X164480952Y-90374809D01*
X164480952Y-90374809D02*
X164314285Y-90565285D01*
X164314285Y-90565285D02*
X164385714Y-90565285D01*
X164385714Y-90565285D02*
X164433333Y-90589095D01*
X164433333Y-90589095D02*
X164457142Y-90612904D01*
X164457142Y-90612904D02*
X164480952Y-90660523D01*
X164480952Y-90660523D02*
X164480952Y-90779571D01*
X164480952Y-90779571D02*
X164457142Y-90827190D01*
X164457142Y-90827190D02*
X164433333Y-90851000D01*
X164433333Y-90851000D02*
X164385714Y-90874809D01*
X164385714Y-90874809D02*
X164242857Y-90874809D01*
X164242857Y-90874809D02*
X164195238Y-90851000D01*
X164195238Y-90851000D02*
X164171428Y-90827190D01*
X146628571Y-89127190D02*
X146604762Y-89151000D01*
X146604762Y-89151000D02*
X146533333Y-89174809D01*
X146533333Y-89174809D02*
X146485714Y-89174809D01*
X146485714Y-89174809D02*
X146414286Y-89151000D01*
X146414286Y-89151000D02*
X146366667Y-89103380D01*
X146366667Y-89103380D02*
X146342857Y-89055761D01*
X146342857Y-89055761D02*
X146319048Y-88960523D01*
X146319048Y-88960523D02*
X146319048Y-88889095D01*
X146319048Y-88889095D02*
X146342857Y-88793857D01*
X146342857Y-88793857D02*
X146366667Y-88746238D01*
X146366667Y-88746238D02*
X146414286Y-88698619D01*
X146414286Y-88698619D02*
X146485714Y-88674809D01*
X146485714Y-88674809D02*
X146533333Y-88674809D01*
X146533333Y-88674809D02*
X146604762Y-88698619D01*
X146604762Y-88698619D02*
X146628571Y-88722428D01*
X146819048Y-88722428D02*
X146842857Y-88698619D01*
X146842857Y-88698619D02*
X146890476Y-88674809D01*
X146890476Y-88674809D02*
X147009524Y-88674809D01*
X147009524Y-88674809D02*
X147057143Y-88698619D01*
X147057143Y-88698619D02*
X147080952Y-88722428D01*
X147080952Y-88722428D02*
X147104762Y-88770047D01*
X147104762Y-88770047D02*
X147104762Y-88817666D01*
X147104762Y-88817666D02*
X147080952Y-88889095D01*
X147080952Y-88889095D02*
X146795238Y-89174809D01*
X146795238Y-89174809D02*
X147104762Y-89174809D01*
X147580952Y-89174809D02*
X147295238Y-89174809D01*
X147438095Y-89174809D02*
X147438095Y-88674809D01*
X147438095Y-88674809D02*
X147390476Y-88746238D01*
X147390476Y-88746238D02*
X147342857Y-88793857D01*
X147342857Y-88793857D02*
X147295238Y-88817666D01*
X147330952Y-117824809D02*
X147330952Y-117324809D01*
X147330952Y-117324809D02*
X147450000Y-117324809D01*
X147450000Y-117324809D02*
X147521428Y-117348619D01*
X147521428Y-117348619D02*
X147569047Y-117396238D01*
X147569047Y-117396238D02*
X147592857Y-117443857D01*
X147592857Y-117443857D02*
X147616666Y-117539095D01*
X147616666Y-117539095D02*
X147616666Y-117610523D01*
X147616666Y-117610523D02*
X147592857Y-117705761D01*
X147592857Y-117705761D02*
X147569047Y-117753380D01*
X147569047Y-117753380D02*
X147521428Y-117801000D01*
X147521428Y-117801000D02*
X147450000Y-117824809D01*
X147450000Y-117824809D02*
X147330952Y-117824809D01*
X148045238Y-117491476D02*
X148045238Y-117824809D01*
X147926190Y-117301000D02*
X147807143Y-117658142D01*
X147807143Y-117658142D02*
X148116666Y-117658142D01*
X166866666Y-121024809D02*
X166700000Y-120786714D01*
X166580952Y-121024809D02*
X166580952Y-120524809D01*
X166580952Y-120524809D02*
X166771428Y-120524809D01*
X166771428Y-120524809D02*
X166819047Y-120548619D01*
X166819047Y-120548619D02*
X166842857Y-120572428D01*
X166842857Y-120572428D02*
X166866666Y-120620047D01*
X166866666Y-120620047D02*
X166866666Y-120691476D01*
X166866666Y-120691476D02*
X166842857Y-120739095D01*
X166842857Y-120739095D02*
X166819047Y-120762904D01*
X166819047Y-120762904D02*
X166771428Y-120786714D01*
X166771428Y-120786714D02*
X166580952Y-120786714D01*
X167342857Y-121024809D02*
X167057143Y-121024809D01*
X167200000Y-121024809D02*
X167200000Y-120524809D01*
X167200000Y-120524809D02*
X167152381Y-120596238D01*
X167152381Y-120596238D02*
X167104762Y-120643857D01*
X167104762Y-120643857D02*
X167057143Y-120667666D01*
X141616666Y-111177190D02*
X141592857Y-111201000D01*
X141592857Y-111201000D02*
X141521428Y-111224809D01*
X141521428Y-111224809D02*
X141473809Y-111224809D01*
X141473809Y-111224809D02*
X141402381Y-111201000D01*
X141402381Y-111201000D02*
X141354762Y-111153380D01*
X141354762Y-111153380D02*
X141330952Y-111105761D01*
X141330952Y-111105761D02*
X141307143Y-111010523D01*
X141307143Y-111010523D02*
X141307143Y-110939095D01*
X141307143Y-110939095D02*
X141330952Y-110843857D01*
X141330952Y-110843857D02*
X141354762Y-110796238D01*
X141354762Y-110796238D02*
X141402381Y-110748619D01*
X141402381Y-110748619D02*
X141473809Y-110724809D01*
X141473809Y-110724809D02*
X141521428Y-110724809D01*
X141521428Y-110724809D02*
X141592857Y-110748619D01*
X141592857Y-110748619D02*
X141616666Y-110772428D01*
X141902381Y-110939095D02*
X141854762Y-110915285D01*
X141854762Y-110915285D02*
X141830952Y-110891476D01*
X141830952Y-110891476D02*
X141807143Y-110843857D01*
X141807143Y-110843857D02*
X141807143Y-110820047D01*
X141807143Y-110820047D02*
X141830952Y-110772428D01*
X141830952Y-110772428D02*
X141854762Y-110748619D01*
X141854762Y-110748619D02*
X141902381Y-110724809D01*
X141902381Y-110724809D02*
X141997619Y-110724809D01*
X141997619Y-110724809D02*
X142045238Y-110748619D01*
X142045238Y-110748619D02*
X142069047Y-110772428D01*
X142069047Y-110772428D02*
X142092857Y-110820047D01*
X142092857Y-110820047D02*
X142092857Y-110843857D01*
X142092857Y-110843857D02*
X142069047Y-110891476D01*
X142069047Y-110891476D02*
X142045238Y-110915285D01*
X142045238Y-110915285D02*
X141997619Y-110939095D01*
X141997619Y-110939095D02*
X141902381Y-110939095D01*
X141902381Y-110939095D02*
X141854762Y-110962904D01*
X141854762Y-110962904D02*
X141830952Y-110986714D01*
X141830952Y-110986714D02*
X141807143Y-111034333D01*
X141807143Y-111034333D02*
X141807143Y-111129571D01*
X141807143Y-111129571D02*
X141830952Y-111177190D01*
X141830952Y-111177190D02*
X141854762Y-111201000D01*
X141854762Y-111201000D02*
X141902381Y-111224809D01*
X141902381Y-111224809D02*
X141997619Y-111224809D01*
X141997619Y-111224809D02*
X142045238Y-111201000D01*
X142045238Y-111201000D02*
X142069047Y-111177190D01*
X142069047Y-111177190D02*
X142092857Y-111129571D01*
X142092857Y-111129571D02*
X142092857Y-111034333D01*
X142092857Y-111034333D02*
X142069047Y-110986714D01*
X142069047Y-110986714D02*
X142045238Y-110962904D01*
X142045238Y-110962904D02*
X141997619Y-110939095D01*
X142766666Y-106077190D02*
X142742857Y-106101000D01*
X142742857Y-106101000D02*
X142671428Y-106124809D01*
X142671428Y-106124809D02*
X142623809Y-106124809D01*
X142623809Y-106124809D02*
X142552381Y-106101000D01*
X142552381Y-106101000D02*
X142504762Y-106053380D01*
X142504762Y-106053380D02*
X142480952Y-106005761D01*
X142480952Y-106005761D02*
X142457143Y-105910523D01*
X142457143Y-105910523D02*
X142457143Y-105839095D01*
X142457143Y-105839095D02*
X142480952Y-105743857D01*
X142480952Y-105743857D02*
X142504762Y-105696238D01*
X142504762Y-105696238D02*
X142552381Y-105648619D01*
X142552381Y-105648619D02*
X142623809Y-105624809D01*
X142623809Y-105624809D02*
X142671428Y-105624809D01*
X142671428Y-105624809D02*
X142742857Y-105648619D01*
X142742857Y-105648619D02*
X142766666Y-105672428D01*
X143195238Y-105624809D02*
X143100000Y-105624809D01*
X143100000Y-105624809D02*
X143052381Y-105648619D01*
X143052381Y-105648619D02*
X143028571Y-105672428D01*
X143028571Y-105672428D02*
X142980952Y-105743857D01*
X142980952Y-105743857D02*
X142957143Y-105839095D01*
X142957143Y-105839095D02*
X142957143Y-106029571D01*
X142957143Y-106029571D02*
X142980952Y-106077190D01*
X142980952Y-106077190D02*
X143004762Y-106101000D01*
X143004762Y-106101000D02*
X143052381Y-106124809D01*
X143052381Y-106124809D02*
X143147619Y-106124809D01*
X143147619Y-106124809D02*
X143195238Y-106101000D01*
X143195238Y-106101000D02*
X143219047Y-106077190D01*
X143219047Y-106077190D02*
X143242857Y-106029571D01*
X143242857Y-106029571D02*
X143242857Y-105910523D01*
X143242857Y-105910523D02*
X143219047Y-105862904D01*
X143219047Y-105862904D02*
X143195238Y-105839095D01*
X143195238Y-105839095D02*
X143147619Y-105815285D01*
X143147619Y-105815285D02*
X143052381Y-105815285D01*
X143052381Y-105815285D02*
X143004762Y-105839095D01*
X143004762Y-105839095D02*
X142980952Y-105862904D01*
X142980952Y-105862904D02*
X142957143Y-105910523D01*
X143195238Y-117824809D02*
X143195238Y-118181952D01*
X143195238Y-118181952D02*
X143171429Y-118253380D01*
X143171429Y-118253380D02*
X143123810Y-118301000D01*
X143123810Y-118301000D02*
X143052381Y-118324809D01*
X143052381Y-118324809D02*
X143004762Y-118324809D01*
X143433333Y-118324809D02*
X143433333Y-117824809D01*
X143433333Y-117824809D02*
X143623809Y-117824809D01*
X143623809Y-117824809D02*
X143671428Y-117848619D01*
X143671428Y-117848619D02*
X143695238Y-117872428D01*
X143695238Y-117872428D02*
X143719047Y-117920047D01*
X143719047Y-117920047D02*
X143719047Y-117991476D01*
X143719047Y-117991476D02*
X143695238Y-118039095D01*
X143695238Y-118039095D02*
X143671428Y-118062904D01*
X143671428Y-118062904D02*
X143623809Y-118086714D01*
X143623809Y-118086714D02*
X143433333Y-118086714D01*
X144195238Y-118324809D02*
X143909524Y-118324809D01*
X144052381Y-118324809D02*
X144052381Y-117824809D01*
X144052381Y-117824809D02*
X144004762Y-117896238D01*
X144004762Y-117896238D02*
X143957143Y-117943857D01*
X143957143Y-117943857D02*
X143909524Y-117967666D01*
X144504761Y-117824809D02*
X144552380Y-117824809D01*
X144552380Y-117824809D02*
X144599999Y-117848619D01*
X144599999Y-117848619D02*
X144623809Y-117872428D01*
X144623809Y-117872428D02*
X144647618Y-117920047D01*
X144647618Y-117920047D02*
X144671428Y-118015285D01*
X144671428Y-118015285D02*
X144671428Y-118134333D01*
X144671428Y-118134333D02*
X144647618Y-118229571D01*
X144647618Y-118229571D02*
X144623809Y-118277190D01*
X144623809Y-118277190D02*
X144599999Y-118301000D01*
X144599999Y-118301000D02*
X144552380Y-118324809D01*
X144552380Y-118324809D02*
X144504761Y-118324809D01*
X144504761Y-118324809D02*
X144457142Y-118301000D01*
X144457142Y-118301000D02*
X144433333Y-118277190D01*
X144433333Y-118277190D02*
X144409523Y-118229571D01*
X144409523Y-118229571D02*
X144385714Y-118134333D01*
X144385714Y-118134333D02*
X144385714Y-118015285D01*
X144385714Y-118015285D02*
X144409523Y-117920047D01*
X144409523Y-117920047D02*
X144433333Y-117872428D01*
X144433333Y-117872428D02*
X144457142Y-117848619D01*
X144457142Y-117848619D02*
X144504761Y-117824809D01*
X138111071Y-73077190D02*
X138087262Y-73101000D01*
X138087262Y-73101000D02*
X138015833Y-73124809D01*
X138015833Y-73124809D02*
X137968214Y-73124809D01*
X137968214Y-73124809D02*
X137896786Y-73101000D01*
X137896786Y-73101000D02*
X137849167Y-73053380D01*
X137849167Y-73053380D02*
X137825357Y-73005761D01*
X137825357Y-73005761D02*
X137801548Y-72910523D01*
X137801548Y-72910523D02*
X137801548Y-72839095D01*
X137801548Y-72839095D02*
X137825357Y-72743857D01*
X137825357Y-72743857D02*
X137849167Y-72696238D01*
X137849167Y-72696238D02*
X137896786Y-72648619D01*
X137896786Y-72648619D02*
X137968214Y-72624809D01*
X137968214Y-72624809D02*
X138015833Y-72624809D01*
X138015833Y-72624809D02*
X138087262Y-72648619D01*
X138087262Y-72648619D02*
X138111071Y-72672428D01*
X138587262Y-73124809D02*
X138301548Y-73124809D01*
X138444405Y-73124809D02*
X138444405Y-72624809D01*
X138444405Y-72624809D02*
X138396786Y-72696238D01*
X138396786Y-72696238D02*
X138349167Y-72743857D01*
X138349167Y-72743857D02*
X138301548Y-72767666D01*
X138753928Y-72624809D02*
X139087261Y-72624809D01*
X139087261Y-72624809D02*
X138872976Y-73124809D01*
X152478571Y-93277190D02*
X152454762Y-93301000D01*
X152454762Y-93301000D02*
X152383333Y-93324809D01*
X152383333Y-93324809D02*
X152335714Y-93324809D01*
X152335714Y-93324809D02*
X152264286Y-93301000D01*
X152264286Y-93301000D02*
X152216667Y-93253380D01*
X152216667Y-93253380D02*
X152192857Y-93205761D01*
X152192857Y-93205761D02*
X152169048Y-93110523D01*
X152169048Y-93110523D02*
X152169048Y-93039095D01*
X152169048Y-93039095D02*
X152192857Y-92943857D01*
X152192857Y-92943857D02*
X152216667Y-92896238D01*
X152216667Y-92896238D02*
X152264286Y-92848619D01*
X152264286Y-92848619D02*
X152335714Y-92824809D01*
X152335714Y-92824809D02*
X152383333Y-92824809D01*
X152383333Y-92824809D02*
X152454762Y-92848619D01*
X152454762Y-92848619D02*
X152478571Y-92872428D01*
X152669048Y-92872428D02*
X152692857Y-92848619D01*
X152692857Y-92848619D02*
X152740476Y-92824809D01*
X152740476Y-92824809D02*
X152859524Y-92824809D01*
X152859524Y-92824809D02*
X152907143Y-92848619D01*
X152907143Y-92848619D02*
X152930952Y-92872428D01*
X152930952Y-92872428D02*
X152954762Y-92920047D01*
X152954762Y-92920047D02*
X152954762Y-92967666D01*
X152954762Y-92967666D02*
X152930952Y-93039095D01*
X152930952Y-93039095D02*
X152645238Y-93324809D01*
X152645238Y-93324809D02*
X152954762Y-93324809D01*
X153264285Y-92824809D02*
X153311904Y-92824809D01*
X153311904Y-92824809D02*
X153359523Y-92848619D01*
X153359523Y-92848619D02*
X153383333Y-92872428D01*
X153383333Y-92872428D02*
X153407142Y-92920047D01*
X153407142Y-92920047D02*
X153430952Y-93015285D01*
X153430952Y-93015285D02*
X153430952Y-93134333D01*
X153430952Y-93134333D02*
X153407142Y-93229571D01*
X153407142Y-93229571D02*
X153383333Y-93277190D01*
X153383333Y-93277190D02*
X153359523Y-93301000D01*
X153359523Y-93301000D02*
X153311904Y-93324809D01*
X153311904Y-93324809D02*
X153264285Y-93324809D01*
X153264285Y-93324809D02*
X153216666Y-93301000D01*
X153216666Y-93301000D02*
X153192857Y-93277190D01*
X153192857Y-93277190D02*
X153169047Y-93229571D01*
X153169047Y-93229571D02*
X153145238Y-93134333D01*
X153145238Y-93134333D02*
X153145238Y-93015285D01*
X153145238Y-93015285D02*
X153169047Y-92920047D01*
X153169047Y-92920047D02*
X153192857Y-92872428D01*
X153192857Y-92872428D02*
X153216666Y-92848619D01*
X153216666Y-92848619D02*
X153264285Y-92824809D01*
X164366666Y-126377190D02*
X164342857Y-126401000D01*
X164342857Y-126401000D02*
X164271428Y-126424809D01*
X164271428Y-126424809D02*
X164223809Y-126424809D01*
X164223809Y-126424809D02*
X164152381Y-126401000D01*
X164152381Y-126401000D02*
X164104762Y-126353380D01*
X164104762Y-126353380D02*
X164080952Y-126305761D01*
X164080952Y-126305761D02*
X164057143Y-126210523D01*
X164057143Y-126210523D02*
X164057143Y-126139095D01*
X164057143Y-126139095D02*
X164080952Y-126043857D01*
X164080952Y-126043857D02*
X164104762Y-125996238D01*
X164104762Y-125996238D02*
X164152381Y-125948619D01*
X164152381Y-125948619D02*
X164223809Y-125924809D01*
X164223809Y-125924809D02*
X164271428Y-125924809D01*
X164271428Y-125924809D02*
X164342857Y-125948619D01*
X164342857Y-125948619D02*
X164366666Y-125972428D01*
X164533333Y-125924809D02*
X164842857Y-125924809D01*
X164842857Y-125924809D02*
X164676190Y-126115285D01*
X164676190Y-126115285D02*
X164747619Y-126115285D01*
X164747619Y-126115285D02*
X164795238Y-126139095D01*
X164795238Y-126139095D02*
X164819047Y-126162904D01*
X164819047Y-126162904D02*
X164842857Y-126210523D01*
X164842857Y-126210523D02*
X164842857Y-126329571D01*
X164842857Y-126329571D02*
X164819047Y-126377190D01*
X164819047Y-126377190D02*
X164795238Y-126401000D01*
X164795238Y-126401000D02*
X164747619Y-126424809D01*
X164747619Y-126424809D02*
X164604762Y-126424809D01*
X164604762Y-126424809D02*
X164557143Y-126401000D01*
X164557143Y-126401000D02*
X164533333Y-126377190D01*
X171216666Y-80674809D02*
X171050000Y-80436714D01*
X170930952Y-80674809D02*
X170930952Y-80174809D01*
X170930952Y-80174809D02*
X171121428Y-80174809D01*
X171121428Y-80174809D02*
X171169047Y-80198619D01*
X171169047Y-80198619D02*
X171192857Y-80222428D01*
X171192857Y-80222428D02*
X171216666Y-80270047D01*
X171216666Y-80270047D02*
X171216666Y-80341476D01*
X171216666Y-80341476D02*
X171192857Y-80389095D01*
X171192857Y-80389095D02*
X171169047Y-80412904D01*
X171169047Y-80412904D02*
X171121428Y-80436714D01*
X171121428Y-80436714D02*
X170930952Y-80436714D01*
X171383333Y-80174809D02*
X171716666Y-80174809D01*
X171716666Y-80174809D02*
X171502381Y-80674809D01*
X162279166Y-117754809D02*
X162112500Y-117516714D01*
X161993452Y-117754809D02*
X161993452Y-117254809D01*
X161993452Y-117254809D02*
X162183928Y-117254809D01*
X162183928Y-117254809D02*
X162231547Y-117278619D01*
X162231547Y-117278619D02*
X162255357Y-117302428D01*
X162255357Y-117302428D02*
X162279166Y-117350047D01*
X162279166Y-117350047D02*
X162279166Y-117421476D01*
X162279166Y-117421476D02*
X162255357Y-117469095D01*
X162255357Y-117469095D02*
X162231547Y-117492904D01*
X162231547Y-117492904D02*
X162183928Y-117516714D01*
X162183928Y-117516714D02*
X161993452Y-117516714D01*
X162469643Y-117302428D02*
X162493452Y-117278619D01*
X162493452Y-117278619D02*
X162541071Y-117254809D01*
X162541071Y-117254809D02*
X162660119Y-117254809D01*
X162660119Y-117254809D02*
X162707738Y-117278619D01*
X162707738Y-117278619D02*
X162731547Y-117302428D01*
X162731547Y-117302428D02*
X162755357Y-117350047D01*
X162755357Y-117350047D02*
X162755357Y-117397666D01*
X162755357Y-117397666D02*
X162731547Y-117469095D01*
X162731547Y-117469095D02*
X162445833Y-117754809D01*
X162445833Y-117754809D02*
X162755357Y-117754809D01*
X170602380Y-76334927D02*
X170554761Y-76311118D01*
X170554761Y-76311118D02*
X170507142Y-76263499D01*
X170507142Y-76263499D02*
X170435714Y-76192070D01*
X170435714Y-76192070D02*
X170388095Y-76168260D01*
X170388095Y-76168260D02*
X170340476Y-76168260D01*
X170364285Y-76287308D02*
X170316666Y-76263499D01*
X170316666Y-76263499D02*
X170269047Y-76215879D01*
X170269047Y-76215879D02*
X170245238Y-76120641D01*
X170245238Y-76120641D02*
X170245238Y-75953975D01*
X170245238Y-75953975D02*
X170269047Y-75858737D01*
X170269047Y-75858737D02*
X170316666Y-75811118D01*
X170316666Y-75811118D02*
X170364285Y-75787308D01*
X170364285Y-75787308D02*
X170459523Y-75787308D01*
X170459523Y-75787308D02*
X170507142Y-75811118D01*
X170507142Y-75811118D02*
X170554761Y-75858737D01*
X170554761Y-75858737D02*
X170578571Y-75953975D01*
X170578571Y-75953975D02*
X170578571Y-76120641D01*
X170578571Y-76120641D02*
X170554761Y-76215879D01*
X170554761Y-76215879D02*
X170507142Y-76263499D01*
X170507142Y-76263499D02*
X170459523Y-76287308D01*
X170459523Y-76287308D02*
X170364285Y-76287308D01*
X171054762Y-76287308D02*
X170769048Y-76287308D01*
X170911905Y-76287308D02*
X170911905Y-75787308D01*
X170911905Y-75787308D02*
X170864286Y-75858737D01*
X170864286Y-75858737D02*
X170816667Y-75906356D01*
X170816667Y-75906356D02*
X170769048Y-75930165D01*
X134016666Y-116927190D02*
X133992857Y-116951000D01*
X133992857Y-116951000D02*
X133921428Y-116974809D01*
X133921428Y-116974809D02*
X133873809Y-116974809D01*
X133873809Y-116974809D02*
X133802381Y-116951000D01*
X133802381Y-116951000D02*
X133754762Y-116903380D01*
X133754762Y-116903380D02*
X133730952Y-116855761D01*
X133730952Y-116855761D02*
X133707143Y-116760523D01*
X133707143Y-116760523D02*
X133707143Y-116689095D01*
X133707143Y-116689095D02*
X133730952Y-116593857D01*
X133730952Y-116593857D02*
X133754762Y-116546238D01*
X133754762Y-116546238D02*
X133802381Y-116498619D01*
X133802381Y-116498619D02*
X133873809Y-116474809D01*
X133873809Y-116474809D02*
X133921428Y-116474809D01*
X133921428Y-116474809D02*
X133992857Y-116498619D01*
X133992857Y-116498619D02*
X134016666Y-116522428D01*
X134445238Y-116641476D02*
X134445238Y-116974809D01*
X134326190Y-116451000D02*
X134207143Y-116808142D01*
X134207143Y-116808142D02*
X134516666Y-116808142D01*
X149506547Y-92874809D02*
X149506547Y-93279571D01*
X149506547Y-93279571D02*
X149530357Y-93327190D01*
X149530357Y-93327190D02*
X149554166Y-93351000D01*
X149554166Y-93351000D02*
X149601785Y-93374809D01*
X149601785Y-93374809D02*
X149697023Y-93374809D01*
X149697023Y-93374809D02*
X149744642Y-93351000D01*
X149744642Y-93351000D02*
X149768452Y-93327190D01*
X149768452Y-93327190D02*
X149792261Y-93279571D01*
X149792261Y-93279571D02*
X149792261Y-92874809D01*
X150054167Y-93374809D02*
X150149405Y-93374809D01*
X150149405Y-93374809D02*
X150197024Y-93351000D01*
X150197024Y-93351000D02*
X150220833Y-93327190D01*
X150220833Y-93327190D02*
X150268452Y-93255761D01*
X150268452Y-93255761D02*
X150292262Y-93160523D01*
X150292262Y-93160523D02*
X150292262Y-92970047D01*
X150292262Y-92970047D02*
X150268452Y-92922428D01*
X150268452Y-92922428D02*
X150244643Y-92898619D01*
X150244643Y-92898619D02*
X150197024Y-92874809D01*
X150197024Y-92874809D02*
X150101786Y-92874809D01*
X150101786Y-92874809D02*
X150054167Y-92898619D01*
X150054167Y-92898619D02*
X150030357Y-92922428D01*
X150030357Y-92922428D02*
X150006548Y-92970047D01*
X150006548Y-92970047D02*
X150006548Y-93089095D01*
X150006548Y-93089095D02*
X150030357Y-93136714D01*
X150030357Y-93136714D02*
X150054167Y-93160523D01*
X150054167Y-93160523D02*
X150101786Y-93184333D01*
X150101786Y-93184333D02*
X150197024Y-93184333D01*
X150197024Y-93184333D02*
X150244643Y-93160523D01*
X150244643Y-93160523D02*
X150268452Y-93136714D01*
X150268452Y-93136714D02*
X150292262Y-93089095D01*
X143728571Y-77674809D02*
X143561905Y-77436714D01*
X143442857Y-77674809D02*
X143442857Y-77174809D01*
X143442857Y-77174809D02*
X143633333Y-77174809D01*
X143633333Y-77174809D02*
X143680952Y-77198619D01*
X143680952Y-77198619D02*
X143704762Y-77222428D01*
X143704762Y-77222428D02*
X143728571Y-77270047D01*
X143728571Y-77270047D02*
X143728571Y-77341476D01*
X143728571Y-77341476D02*
X143704762Y-77389095D01*
X143704762Y-77389095D02*
X143680952Y-77412904D01*
X143680952Y-77412904D02*
X143633333Y-77436714D01*
X143633333Y-77436714D02*
X143442857Y-77436714D01*
X144204762Y-77674809D02*
X143919048Y-77674809D01*
X144061905Y-77674809D02*
X144061905Y-77174809D01*
X144061905Y-77174809D02*
X144014286Y-77246238D01*
X144014286Y-77246238D02*
X143966667Y-77293857D01*
X143966667Y-77293857D02*
X143919048Y-77317666D01*
X144657142Y-77174809D02*
X144419047Y-77174809D01*
X144419047Y-77174809D02*
X144395238Y-77412904D01*
X144395238Y-77412904D02*
X144419047Y-77389095D01*
X144419047Y-77389095D02*
X144466666Y-77365285D01*
X144466666Y-77365285D02*
X144585714Y-77365285D01*
X144585714Y-77365285D02*
X144633333Y-77389095D01*
X144633333Y-77389095D02*
X144657142Y-77412904D01*
X144657142Y-77412904D02*
X144680952Y-77460523D01*
X144680952Y-77460523D02*
X144680952Y-77579571D01*
X144680952Y-77579571D02*
X144657142Y-77627190D01*
X144657142Y-77627190D02*
X144633333Y-77651000D01*
X144633333Y-77651000D02*
X144585714Y-77674809D01*
X144585714Y-77674809D02*
X144466666Y-77674809D01*
X144466666Y-77674809D02*
X144419047Y-77651000D01*
X144419047Y-77651000D02*
X144395238Y-77627190D01*
X141553333Y-83674809D02*
X141553333Y-84031952D01*
X141553333Y-84031952D02*
X141529524Y-84103380D01*
X141529524Y-84103380D02*
X141481905Y-84151000D01*
X141481905Y-84151000D02*
X141410476Y-84174809D01*
X141410476Y-84174809D02*
X141362857Y-84174809D01*
X141791428Y-84174809D02*
X141791428Y-83674809D01*
X141791428Y-83674809D02*
X141981904Y-83674809D01*
X141981904Y-83674809D02*
X142029523Y-83698619D01*
X142029523Y-83698619D02*
X142053333Y-83722428D01*
X142053333Y-83722428D02*
X142077142Y-83770047D01*
X142077142Y-83770047D02*
X142077142Y-83841476D01*
X142077142Y-83841476D02*
X142053333Y-83889095D01*
X142053333Y-83889095D02*
X142029523Y-83912904D01*
X142029523Y-83912904D02*
X141981904Y-83936714D01*
X141981904Y-83936714D02*
X141791428Y-83936714D01*
X142505714Y-83674809D02*
X142410476Y-83674809D01*
X142410476Y-83674809D02*
X142362857Y-83698619D01*
X142362857Y-83698619D02*
X142339047Y-83722428D01*
X142339047Y-83722428D02*
X142291428Y-83793857D01*
X142291428Y-83793857D02*
X142267619Y-83889095D01*
X142267619Y-83889095D02*
X142267619Y-84079571D01*
X142267619Y-84079571D02*
X142291428Y-84127190D01*
X142291428Y-84127190D02*
X142315238Y-84151000D01*
X142315238Y-84151000D02*
X142362857Y-84174809D01*
X142362857Y-84174809D02*
X142458095Y-84174809D01*
X142458095Y-84174809D02*
X142505714Y-84151000D01*
X142505714Y-84151000D02*
X142529523Y-84127190D01*
X142529523Y-84127190D02*
X142553333Y-84079571D01*
X142553333Y-84079571D02*
X142553333Y-83960523D01*
X142553333Y-83960523D02*
X142529523Y-83912904D01*
X142529523Y-83912904D02*
X142505714Y-83889095D01*
X142505714Y-83889095D02*
X142458095Y-83865285D01*
X142458095Y-83865285D02*
X142362857Y-83865285D01*
X142362857Y-83865285D02*
X142315238Y-83889095D01*
X142315238Y-83889095D02*
X142291428Y-83912904D01*
X142291428Y-83912904D02*
X142267619Y-83960523D01*
X134016666Y-120977190D02*
X133992857Y-121001000D01*
X133992857Y-121001000D02*
X133921428Y-121024809D01*
X133921428Y-121024809D02*
X133873809Y-121024809D01*
X133873809Y-121024809D02*
X133802381Y-121001000D01*
X133802381Y-121001000D02*
X133754762Y-120953380D01*
X133754762Y-120953380D02*
X133730952Y-120905761D01*
X133730952Y-120905761D02*
X133707143Y-120810523D01*
X133707143Y-120810523D02*
X133707143Y-120739095D01*
X133707143Y-120739095D02*
X133730952Y-120643857D01*
X133730952Y-120643857D02*
X133754762Y-120596238D01*
X133754762Y-120596238D02*
X133802381Y-120548619D01*
X133802381Y-120548619D02*
X133873809Y-120524809D01*
X133873809Y-120524809D02*
X133921428Y-120524809D01*
X133921428Y-120524809D02*
X133992857Y-120548619D01*
X133992857Y-120548619D02*
X134016666Y-120572428D01*
X134469047Y-120524809D02*
X134230952Y-120524809D01*
X134230952Y-120524809D02*
X134207143Y-120762904D01*
X134207143Y-120762904D02*
X134230952Y-120739095D01*
X134230952Y-120739095D02*
X134278571Y-120715285D01*
X134278571Y-120715285D02*
X134397619Y-120715285D01*
X134397619Y-120715285D02*
X134445238Y-120739095D01*
X134445238Y-120739095D02*
X134469047Y-120762904D01*
X134469047Y-120762904D02*
X134492857Y-120810523D01*
X134492857Y-120810523D02*
X134492857Y-120929571D01*
X134492857Y-120929571D02*
X134469047Y-120977190D01*
X134469047Y-120977190D02*
X134445238Y-121001000D01*
X134445238Y-121001000D02*
X134397619Y-121024809D01*
X134397619Y-121024809D02*
X134278571Y-121024809D01*
X134278571Y-121024809D02*
X134230952Y-121001000D01*
X134230952Y-121001000D02*
X134207143Y-120977190D01*
X138444047Y-82887309D02*
X138444047Y-83292071D01*
X138444047Y-83292071D02*
X138467857Y-83339690D01*
X138467857Y-83339690D02*
X138491666Y-83363500D01*
X138491666Y-83363500D02*
X138539285Y-83387309D01*
X138539285Y-83387309D02*
X138634523Y-83387309D01*
X138634523Y-83387309D02*
X138682142Y-83363500D01*
X138682142Y-83363500D02*
X138705952Y-83339690D01*
X138705952Y-83339690D02*
X138729761Y-83292071D01*
X138729761Y-83292071D02*
X138729761Y-82887309D01*
X138920238Y-82887309D02*
X139229762Y-82887309D01*
X139229762Y-82887309D02*
X139063095Y-83077785D01*
X139063095Y-83077785D02*
X139134524Y-83077785D01*
X139134524Y-83077785D02*
X139182143Y-83101595D01*
X139182143Y-83101595D02*
X139205952Y-83125404D01*
X139205952Y-83125404D02*
X139229762Y-83173023D01*
X139229762Y-83173023D02*
X139229762Y-83292071D01*
X139229762Y-83292071D02*
X139205952Y-83339690D01*
X139205952Y-83339690D02*
X139182143Y-83363500D01*
X139182143Y-83363500D02*
X139134524Y-83387309D01*
X139134524Y-83387309D02*
X138991667Y-83387309D01*
X138991667Y-83387309D02*
X138944048Y-83363500D01*
X138944048Y-83363500D02*
X138920238Y-83339690D01*
X134183333Y-107024809D02*
X134183333Y-107381952D01*
X134183333Y-107381952D02*
X134159524Y-107453380D01*
X134159524Y-107453380D02*
X134111905Y-107501000D01*
X134111905Y-107501000D02*
X134040476Y-107524809D01*
X134040476Y-107524809D02*
X133992857Y-107524809D01*
X134421428Y-107524809D02*
X134421428Y-107024809D01*
X134421428Y-107024809D02*
X134611904Y-107024809D01*
X134611904Y-107024809D02*
X134659523Y-107048619D01*
X134659523Y-107048619D02*
X134683333Y-107072428D01*
X134683333Y-107072428D02*
X134707142Y-107120047D01*
X134707142Y-107120047D02*
X134707142Y-107191476D01*
X134707142Y-107191476D02*
X134683333Y-107239095D01*
X134683333Y-107239095D02*
X134659523Y-107262904D01*
X134659523Y-107262904D02*
X134611904Y-107286714D01*
X134611904Y-107286714D02*
X134421428Y-107286714D01*
X134873809Y-107024809D02*
X135183333Y-107024809D01*
X135183333Y-107024809D02*
X135016666Y-107215285D01*
X135016666Y-107215285D02*
X135088095Y-107215285D01*
X135088095Y-107215285D02*
X135135714Y-107239095D01*
X135135714Y-107239095D02*
X135159523Y-107262904D01*
X135159523Y-107262904D02*
X135183333Y-107310523D01*
X135183333Y-107310523D02*
X135183333Y-107429571D01*
X135183333Y-107429571D02*
X135159523Y-107477190D01*
X135159523Y-107477190D02*
X135135714Y-107501000D01*
X135135714Y-107501000D02*
X135088095Y-107524809D01*
X135088095Y-107524809D02*
X134945238Y-107524809D01*
X134945238Y-107524809D02*
X134897619Y-107501000D01*
X134897619Y-107501000D02*
X134873809Y-107477190D01*
X151147190Y-109671428D02*
X151171000Y-109695237D01*
X151171000Y-109695237D02*
X151194809Y-109766666D01*
X151194809Y-109766666D02*
X151194809Y-109814285D01*
X151194809Y-109814285D02*
X151171000Y-109885713D01*
X151171000Y-109885713D02*
X151123380Y-109933332D01*
X151123380Y-109933332D02*
X151075761Y-109957142D01*
X151075761Y-109957142D02*
X150980523Y-109980951D01*
X150980523Y-109980951D02*
X150909095Y-109980951D01*
X150909095Y-109980951D02*
X150813857Y-109957142D01*
X150813857Y-109957142D02*
X150766238Y-109933332D01*
X150766238Y-109933332D02*
X150718619Y-109885713D01*
X150718619Y-109885713D02*
X150694809Y-109814285D01*
X150694809Y-109814285D02*
X150694809Y-109766666D01*
X150694809Y-109766666D02*
X150718619Y-109695237D01*
X150718619Y-109695237D02*
X150742428Y-109671428D01*
X150742428Y-109480951D02*
X150718619Y-109457142D01*
X150718619Y-109457142D02*
X150694809Y-109409523D01*
X150694809Y-109409523D02*
X150694809Y-109290475D01*
X150694809Y-109290475D02*
X150718619Y-109242856D01*
X150718619Y-109242856D02*
X150742428Y-109219047D01*
X150742428Y-109219047D02*
X150790047Y-109195237D01*
X150790047Y-109195237D02*
X150837666Y-109195237D01*
X150837666Y-109195237D02*
X150909095Y-109219047D01*
X150909095Y-109219047D02*
X151194809Y-109504761D01*
X151194809Y-109504761D02*
X151194809Y-109195237D01*
X151194809Y-108957142D02*
X151194809Y-108861904D01*
X151194809Y-108861904D02*
X151171000Y-108814285D01*
X151171000Y-108814285D02*
X151147190Y-108790476D01*
X151147190Y-108790476D02*
X151075761Y-108742857D01*
X151075761Y-108742857D02*
X150980523Y-108719047D01*
X150980523Y-108719047D02*
X150790047Y-108719047D01*
X150790047Y-108719047D02*
X150742428Y-108742857D01*
X150742428Y-108742857D02*
X150718619Y-108766666D01*
X150718619Y-108766666D02*
X150694809Y-108814285D01*
X150694809Y-108814285D02*
X150694809Y-108909523D01*
X150694809Y-108909523D02*
X150718619Y-108957142D01*
X150718619Y-108957142D02*
X150742428Y-108980952D01*
X150742428Y-108980952D02*
X150790047Y-109004761D01*
X150790047Y-109004761D02*
X150909095Y-109004761D01*
X150909095Y-109004761D02*
X150956714Y-108980952D01*
X150956714Y-108980952D02*
X150980523Y-108957142D01*
X150980523Y-108957142D02*
X151004333Y-108909523D01*
X151004333Y-108909523D02*
X151004333Y-108814285D01*
X151004333Y-108814285D02*
X150980523Y-108766666D01*
X150980523Y-108766666D02*
X150956714Y-108742857D01*
X150956714Y-108742857D02*
X150909095Y-108719047D01*
X160466666Y-80724809D02*
X160300000Y-80486714D01*
X160180952Y-80724809D02*
X160180952Y-80224809D01*
X160180952Y-80224809D02*
X160371428Y-80224809D01*
X160371428Y-80224809D02*
X160419047Y-80248619D01*
X160419047Y-80248619D02*
X160442857Y-80272428D01*
X160442857Y-80272428D02*
X160466666Y-80320047D01*
X160466666Y-80320047D02*
X160466666Y-80391476D01*
X160466666Y-80391476D02*
X160442857Y-80439095D01*
X160442857Y-80439095D02*
X160419047Y-80462904D01*
X160419047Y-80462904D02*
X160371428Y-80486714D01*
X160371428Y-80486714D02*
X160180952Y-80486714D01*
X160752381Y-80439095D02*
X160704762Y-80415285D01*
X160704762Y-80415285D02*
X160680952Y-80391476D01*
X160680952Y-80391476D02*
X160657143Y-80343857D01*
X160657143Y-80343857D02*
X160657143Y-80320047D01*
X160657143Y-80320047D02*
X160680952Y-80272428D01*
X160680952Y-80272428D02*
X160704762Y-80248619D01*
X160704762Y-80248619D02*
X160752381Y-80224809D01*
X160752381Y-80224809D02*
X160847619Y-80224809D01*
X160847619Y-80224809D02*
X160895238Y-80248619D01*
X160895238Y-80248619D02*
X160919047Y-80272428D01*
X160919047Y-80272428D02*
X160942857Y-80320047D01*
X160942857Y-80320047D02*
X160942857Y-80343857D01*
X160942857Y-80343857D02*
X160919047Y-80391476D01*
X160919047Y-80391476D02*
X160895238Y-80415285D01*
X160895238Y-80415285D02*
X160847619Y-80439095D01*
X160847619Y-80439095D02*
X160752381Y-80439095D01*
X160752381Y-80439095D02*
X160704762Y-80462904D01*
X160704762Y-80462904D02*
X160680952Y-80486714D01*
X160680952Y-80486714D02*
X160657143Y-80534333D01*
X160657143Y-80534333D02*
X160657143Y-80629571D01*
X160657143Y-80629571D02*
X160680952Y-80677190D01*
X160680952Y-80677190D02*
X160704762Y-80701000D01*
X160704762Y-80701000D02*
X160752381Y-80724809D01*
X160752381Y-80724809D02*
X160847619Y-80724809D01*
X160847619Y-80724809D02*
X160895238Y-80701000D01*
X160895238Y-80701000D02*
X160919047Y-80677190D01*
X160919047Y-80677190D02*
X160942857Y-80629571D01*
X160942857Y-80629571D02*
X160942857Y-80534333D01*
X160942857Y-80534333D02*
X160919047Y-80486714D01*
X160919047Y-80486714D02*
X160895238Y-80462904D01*
X160895238Y-80462904D02*
X160847619Y-80439095D01*
X141778571Y-93677190D02*
X141754762Y-93701000D01*
X141754762Y-93701000D02*
X141683333Y-93724809D01*
X141683333Y-93724809D02*
X141635714Y-93724809D01*
X141635714Y-93724809D02*
X141564286Y-93701000D01*
X141564286Y-93701000D02*
X141516667Y-93653380D01*
X141516667Y-93653380D02*
X141492857Y-93605761D01*
X141492857Y-93605761D02*
X141469048Y-93510523D01*
X141469048Y-93510523D02*
X141469048Y-93439095D01*
X141469048Y-93439095D02*
X141492857Y-93343857D01*
X141492857Y-93343857D02*
X141516667Y-93296238D01*
X141516667Y-93296238D02*
X141564286Y-93248619D01*
X141564286Y-93248619D02*
X141635714Y-93224809D01*
X141635714Y-93224809D02*
X141683333Y-93224809D01*
X141683333Y-93224809D02*
X141754762Y-93248619D01*
X141754762Y-93248619D02*
X141778571Y-93272428D01*
X142254762Y-93724809D02*
X141969048Y-93724809D01*
X142111905Y-93724809D02*
X142111905Y-93224809D01*
X142111905Y-93224809D02*
X142064286Y-93296238D01*
X142064286Y-93296238D02*
X142016667Y-93343857D01*
X142016667Y-93343857D02*
X141969048Y-93367666D01*
X142540476Y-93439095D02*
X142492857Y-93415285D01*
X142492857Y-93415285D02*
X142469047Y-93391476D01*
X142469047Y-93391476D02*
X142445238Y-93343857D01*
X142445238Y-93343857D02*
X142445238Y-93320047D01*
X142445238Y-93320047D02*
X142469047Y-93272428D01*
X142469047Y-93272428D02*
X142492857Y-93248619D01*
X142492857Y-93248619D02*
X142540476Y-93224809D01*
X142540476Y-93224809D02*
X142635714Y-93224809D01*
X142635714Y-93224809D02*
X142683333Y-93248619D01*
X142683333Y-93248619D02*
X142707142Y-93272428D01*
X142707142Y-93272428D02*
X142730952Y-93320047D01*
X142730952Y-93320047D02*
X142730952Y-93343857D01*
X142730952Y-93343857D02*
X142707142Y-93391476D01*
X142707142Y-93391476D02*
X142683333Y-93415285D01*
X142683333Y-93415285D02*
X142635714Y-93439095D01*
X142635714Y-93439095D02*
X142540476Y-93439095D01*
X142540476Y-93439095D02*
X142492857Y-93462904D01*
X142492857Y-93462904D02*
X142469047Y-93486714D01*
X142469047Y-93486714D02*
X142445238Y-93534333D01*
X142445238Y-93534333D02*
X142445238Y-93629571D01*
X142445238Y-93629571D02*
X142469047Y-93677190D01*
X142469047Y-93677190D02*
X142492857Y-93701000D01*
X142492857Y-93701000D02*
X142540476Y-93724809D01*
X142540476Y-93724809D02*
X142635714Y-93724809D01*
X142635714Y-93724809D02*
X142683333Y-93701000D01*
X142683333Y-93701000D02*
X142707142Y-93677190D01*
X142707142Y-93677190D02*
X142730952Y-93629571D01*
X142730952Y-93629571D02*
X142730952Y-93534333D01*
X142730952Y-93534333D02*
X142707142Y-93486714D01*
X142707142Y-93486714D02*
X142683333Y-93462904D01*
X142683333Y-93462904D02*
X142635714Y-93439095D01*
X145366666Y-117824809D02*
X145200000Y-117586714D01*
X145080952Y-117824809D02*
X145080952Y-117324809D01*
X145080952Y-117324809D02*
X145271428Y-117324809D01*
X145271428Y-117324809D02*
X145319047Y-117348619D01*
X145319047Y-117348619D02*
X145342857Y-117372428D01*
X145342857Y-117372428D02*
X145366666Y-117420047D01*
X145366666Y-117420047D02*
X145366666Y-117491476D01*
X145366666Y-117491476D02*
X145342857Y-117539095D01*
X145342857Y-117539095D02*
X145319047Y-117562904D01*
X145319047Y-117562904D02*
X145271428Y-117586714D01*
X145271428Y-117586714D02*
X145080952Y-117586714D01*
X145795238Y-117491476D02*
X145795238Y-117824809D01*
X145676190Y-117301000D02*
X145557143Y-117658142D01*
X145557143Y-117658142D02*
X145866666Y-117658142D01*
X134916666Y-105924809D02*
X134678571Y-105924809D01*
X134678571Y-105924809D02*
X134678571Y-105424809D01*
X135345238Y-105924809D02*
X135059524Y-105924809D01*
X135202381Y-105924809D02*
X135202381Y-105424809D01*
X135202381Y-105424809D02*
X135154762Y-105496238D01*
X135154762Y-105496238D02*
X135107143Y-105543857D01*
X135107143Y-105543857D02*
X135059524Y-105567666D01*
X149380952Y-82124809D02*
X149380952Y-82529571D01*
X149380952Y-82529571D02*
X149404762Y-82577190D01*
X149404762Y-82577190D02*
X149428571Y-82601000D01*
X149428571Y-82601000D02*
X149476190Y-82624809D01*
X149476190Y-82624809D02*
X149571428Y-82624809D01*
X149571428Y-82624809D02*
X149619047Y-82601000D01*
X149619047Y-82601000D02*
X149642857Y-82577190D01*
X149642857Y-82577190D02*
X149666666Y-82529571D01*
X149666666Y-82529571D02*
X149666666Y-82124809D01*
X150166667Y-82624809D02*
X149880953Y-82624809D01*
X150023810Y-82624809D02*
X150023810Y-82124809D01*
X150023810Y-82124809D02*
X149976191Y-82196238D01*
X149976191Y-82196238D02*
X149928572Y-82243857D01*
X149928572Y-82243857D02*
X149880953Y-82267666D01*
X150476190Y-82124809D02*
X150523809Y-82124809D01*
X150523809Y-82124809D02*
X150571428Y-82148619D01*
X150571428Y-82148619D02*
X150595238Y-82172428D01*
X150595238Y-82172428D02*
X150619047Y-82220047D01*
X150619047Y-82220047D02*
X150642857Y-82315285D01*
X150642857Y-82315285D02*
X150642857Y-82434333D01*
X150642857Y-82434333D02*
X150619047Y-82529571D01*
X150619047Y-82529571D02*
X150595238Y-82577190D01*
X150595238Y-82577190D02*
X150571428Y-82601000D01*
X150571428Y-82601000D02*
X150523809Y-82624809D01*
X150523809Y-82624809D02*
X150476190Y-82624809D01*
X150476190Y-82624809D02*
X150428571Y-82601000D01*
X150428571Y-82601000D02*
X150404762Y-82577190D01*
X150404762Y-82577190D02*
X150380952Y-82529571D01*
X150380952Y-82529571D02*
X150357143Y-82434333D01*
X150357143Y-82434333D02*
X150357143Y-82315285D01*
X150357143Y-82315285D02*
X150380952Y-82220047D01*
X150380952Y-82220047D02*
X150404762Y-82172428D01*
X150404762Y-82172428D02*
X150428571Y-82148619D01*
X150428571Y-82148619D02*
X150476190Y-82124809D01*
X162278571Y-78177190D02*
X162254762Y-78201000D01*
X162254762Y-78201000D02*
X162183333Y-78224809D01*
X162183333Y-78224809D02*
X162135714Y-78224809D01*
X162135714Y-78224809D02*
X162064286Y-78201000D01*
X162064286Y-78201000D02*
X162016667Y-78153380D01*
X162016667Y-78153380D02*
X161992857Y-78105761D01*
X161992857Y-78105761D02*
X161969048Y-78010523D01*
X161969048Y-78010523D02*
X161969048Y-77939095D01*
X161969048Y-77939095D02*
X161992857Y-77843857D01*
X161992857Y-77843857D02*
X162016667Y-77796238D01*
X162016667Y-77796238D02*
X162064286Y-77748619D01*
X162064286Y-77748619D02*
X162135714Y-77724809D01*
X162135714Y-77724809D02*
X162183333Y-77724809D01*
X162183333Y-77724809D02*
X162254762Y-77748619D01*
X162254762Y-77748619D02*
X162278571Y-77772428D01*
X162445238Y-77724809D02*
X162754762Y-77724809D01*
X162754762Y-77724809D02*
X162588095Y-77915285D01*
X162588095Y-77915285D02*
X162659524Y-77915285D01*
X162659524Y-77915285D02*
X162707143Y-77939095D01*
X162707143Y-77939095D02*
X162730952Y-77962904D01*
X162730952Y-77962904D02*
X162754762Y-78010523D01*
X162754762Y-78010523D02*
X162754762Y-78129571D01*
X162754762Y-78129571D02*
X162730952Y-78177190D01*
X162730952Y-78177190D02*
X162707143Y-78201000D01*
X162707143Y-78201000D02*
X162659524Y-78224809D01*
X162659524Y-78224809D02*
X162516667Y-78224809D01*
X162516667Y-78224809D02*
X162469048Y-78201000D01*
X162469048Y-78201000D02*
X162445238Y-78177190D01*
X163230952Y-78224809D02*
X162945238Y-78224809D01*
X163088095Y-78224809D02*
X163088095Y-77724809D01*
X163088095Y-77724809D02*
X163040476Y-77796238D01*
X163040476Y-77796238D02*
X162992857Y-77843857D01*
X162992857Y-77843857D02*
X162945238Y-77867666D01*
X141478571Y-73077190D02*
X141454762Y-73101000D01*
X141454762Y-73101000D02*
X141383333Y-73124809D01*
X141383333Y-73124809D02*
X141335714Y-73124809D01*
X141335714Y-73124809D02*
X141264286Y-73101000D01*
X141264286Y-73101000D02*
X141216667Y-73053380D01*
X141216667Y-73053380D02*
X141192857Y-73005761D01*
X141192857Y-73005761D02*
X141169048Y-72910523D01*
X141169048Y-72910523D02*
X141169048Y-72839095D01*
X141169048Y-72839095D02*
X141192857Y-72743857D01*
X141192857Y-72743857D02*
X141216667Y-72696238D01*
X141216667Y-72696238D02*
X141264286Y-72648619D01*
X141264286Y-72648619D02*
X141335714Y-72624809D01*
X141335714Y-72624809D02*
X141383333Y-72624809D01*
X141383333Y-72624809D02*
X141454762Y-72648619D01*
X141454762Y-72648619D02*
X141478571Y-72672428D01*
X141954762Y-73124809D02*
X141669048Y-73124809D01*
X141811905Y-73124809D02*
X141811905Y-72624809D01*
X141811905Y-72624809D02*
X141764286Y-72696238D01*
X141764286Y-72696238D02*
X141716667Y-72743857D01*
X141716667Y-72743857D02*
X141669048Y-72767666D01*
X142383333Y-72624809D02*
X142288095Y-72624809D01*
X142288095Y-72624809D02*
X142240476Y-72648619D01*
X142240476Y-72648619D02*
X142216666Y-72672428D01*
X142216666Y-72672428D02*
X142169047Y-72743857D01*
X142169047Y-72743857D02*
X142145238Y-72839095D01*
X142145238Y-72839095D02*
X142145238Y-73029571D01*
X142145238Y-73029571D02*
X142169047Y-73077190D01*
X142169047Y-73077190D02*
X142192857Y-73101000D01*
X142192857Y-73101000D02*
X142240476Y-73124809D01*
X142240476Y-73124809D02*
X142335714Y-73124809D01*
X142335714Y-73124809D02*
X142383333Y-73101000D01*
X142383333Y-73101000D02*
X142407142Y-73077190D01*
X142407142Y-73077190D02*
X142430952Y-73029571D01*
X142430952Y-73029571D02*
X142430952Y-72910523D01*
X142430952Y-72910523D02*
X142407142Y-72862904D01*
X142407142Y-72862904D02*
X142383333Y-72839095D01*
X142383333Y-72839095D02*
X142335714Y-72815285D01*
X142335714Y-72815285D02*
X142240476Y-72815285D01*
X142240476Y-72815285D02*
X142192857Y-72839095D01*
X142192857Y-72839095D02*
X142169047Y-72862904D01*
X142169047Y-72862904D02*
X142145238Y-72910523D01*
X168230952Y-117524809D02*
X168230952Y-117024809D01*
X168230952Y-117024809D02*
X168350000Y-117024809D01*
X168350000Y-117024809D02*
X168421428Y-117048619D01*
X168421428Y-117048619D02*
X168469047Y-117096238D01*
X168469047Y-117096238D02*
X168492857Y-117143857D01*
X168492857Y-117143857D02*
X168516666Y-117239095D01*
X168516666Y-117239095D02*
X168516666Y-117310523D01*
X168516666Y-117310523D02*
X168492857Y-117405761D01*
X168492857Y-117405761D02*
X168469047Y-117453380D01*
X168469047Y-117453380D02*
X168421428Y-117501000D01*
X168421428Y-117501000D02*
X168350000Y-117524809D01*
X168350000Y-117524809D02*
X168230952Y-117524809D01*
X168683333Y-117024809D02*
X168992857Y-117024809D01*
X168992857Y-117024809D02*
X168826190Y-117215285D01*
X168826190Y-117215285D02*
X168897619Y-117215285D01*
X168897619Y-117215285D02*
X168945238Y-117239095D01*
X168945238Y-117239095D02*
X168969047Y-117262904D01*
X168969047Y-117262904D02*
X168992857Y-117310523D01*
X168992857Y-117310523D02*
X168992857Y-117429571D01*
X168992857Y-117429571D02*
X168969047Y-117477190D01*
X168969047Y-117477190D02*
X168945238Y-117501000D01*
X168945238Y-117501000D02*
X168897619Y-117524809D01*
X168897619Y-117524809D02*
X168754762Y-117524809D01*
X168754762Y-117524809D02*
X168707143Y-117501000D01*
X168707143Y-117501000D02*
X168683333Y-117477190D01*
X145078571Y-74074809D02*
X144911905Y-73836714D01*
X144792857Y-74074809D02*
X144792857Y-73574809D01*
X144792857Y-73574809D02*
X144983333Y-73574809D01*
X144983333Y-73574809D02*
X145030952Y-73598619D01*
X145030952Y-73598619D02*
X145054762Y-73622428D01*
X145054762Y-73622428D02*
X145078571Y-73670047D01*
X145078571Y-73670047D02*
X145078571Y-73741476D01*
X145078571Y-73741476D02*
X145054762Y-73789095D01*
X145054762Y-73789095D02*
X145030952Y-73812904D01*
X145030952Y-73812904D02*
X144983333Y-73836714D01*
X144983333Y-73836714D02*
X144792857Y-73836714D01*
X145554762Y-74074809D02*
X145269048Y-74074809D01*
X145411905Y-74074809D02*
X145411905Y-73574809D01*
X145411905Y-73574809D02*
X145364286Y-73646238D01*
X145364286Y-73646238D02*
X145316667Y-73693857D01*
X145316667Y-73693857D02*
X145269048Y-73717666D01*
X145983333Y-73741476D02*
X145983333Y-74074809D01*
X145864285Y-73551000D02*
X145745238Y-73908142D01*
X145745238Y-73908142D02*
X146054761Y-73908142D01*
X145319047Y-124674809D02*
X145319047Y-125079571D01*
X145319047Y-125079571D02*
X145342857Y-125127190D01*
X145342857Y-125127190D02*
X145366666Y-125151000D01*
X145366666Y-125151000D02*
X145414285Y-125174809D01*
X145414285Y-125174809D02*
X145509523Y-125174809D01*
X145509523Y-125174809D02*
X145557142Y-125151000D01*
X145557142Y-125151000D02*
X145580952Y-125127190D01*
X145580952Y-125127190D02*
X145604761Y-125079571D01*
X145604761Y-125079571D02*
X145604761Y-124674809D01*
X146080952Y-124674809D02*
X145842857Y-124674809D01*
X145842857Y-124674809D02*
X145819048Y-124912904D01*
X145819048Y-124912904D02*
X145842857Y-124889095D01*
X145842857Y-124889095D02*
X145890476Y-124865285D01*
X145890476Y-124865285D02*
X146009524Y-124865285D01*
X146009524Y-124865285D02*
X146057143Y-124889095D01*
X146057143Y-124889095D02*
X146080952Y-124912904D01*
X146080952Y-124912904D02*
X146104762Y-124960523D01*
X146104762Y-124960523D02*
X146104762Y-125079571D01*
X146104762Y-125079571D02*
X146080952Y-125127190D01*
X146080952Y-125127190D02*
X146057143Y-125151000D01*
X146057143Y-125151000D02*
X146009524Y-125174809D01*
X146009524Y-125174809D02*
X145890476Y-125174809D01*
X145890476Y-125174809D02*
X145842857Y-125151000D01*
X145842857Y-125151000D02*
X145819048Y-125127190D01*
X153466666Y-118057190D02*
X153442857Y-118081000D01*
X153442857Y-118081000D02*
X153371428Y-118104809D01*
X153371428Y-118104809D02*
X153323809Y-118104809D01*
X153323809Y-118104809D02*
X153252381Y-118081000D01*
X153252381Y-118081000D02*
X153204762Y-118033380D01*
X153204762Y-118033380D02*
X153180952Y-117985761D01*
X153180952Y-117985761D02*
X153157143Y-117890523D01*
X153157143Y-117890523D02*
X153157143Y-117819095D01*
X153157143Y-117819095D02*
X153180952Y-117723857D01*
X153180952Y-117723857D02*
X153204762Y-117676238D01*
X153204762Y-117676238D02*
X153252381Y-117628619D01*
X153252381Y-117628619D02*
X153323809Y-117604809D01*
X153323809Y-117604809D02*
X153371428Y-117604809D01*
X153371428Y-117604809D02*
X153442857Y-117628619D01*
X153442857Y-117628619D02*
X153466666Y-117652428D01*
X153942857Y-118104809D02*
X153657143Y-118104809D01*
X153800000Y-118104809D02*
X153800000Y-117604809D01*
X153800000Y-117604809D02*
X153752381Y-117676238D01*
X153752381Y-117676238D02*
X153704762Y-117723857D01*
X153704762Y-117723857D02*
X153657143Y-117747666D01*
X150869047Y-111874809D02*
X150869047Y-112279571D01*
X150869047Y-112279571D02*
X150892857Y-112327190D01*
X150892857Y-112327190D02*
X150916666Y-112351000D01*
X150916666Y-112351000D02*
X150964285Y-112374809D01*
X150964285Y-112374809D02*
X151059523Y-112374809D01*
X151059523Y-112374809D02*
X151107142Y-112351000D01*
X151107142Y-112351000D02*
X151130952Y-112327190D01*
X151130952Y-112327190D02*
X151154761Y-112279571D01*
X151154761Y-112279571D02*
X151154761Y-111874809D01*
X151654762Y-112374809D02*
X151369048Y-112374809D01*
X151511905Y-112374809D02*
X151511905Y-111874809D01*
X151511905Y-111874809D02*
X151464286Y-111946238D01*
X151464286Y-111946238D02*
X151416667Y-111993857D01*
X151416667Y-111993857D02*
X151369048Y-112017666D01*
X166816666Y-115374809D02*
X166650000Y-115136714D01*
X166530952Y-115374809D02*
X166530952Y-114874809D01*
X166530952Y-114874809D02*
X166721428Y-114874809D01*
X166721428Y-114874809D02*
X166769047Y-114898619D01*
X166769047Y-114898619D02*
X166792857Y-114922428D01*
X166792857Y-114922428D02*
X166816666Y-114970047D01*
X166816666Y-114970047D02*
X166816666Y-115041476D01*
X166816666Y-115041476D02*
X166792857Y-115089095D01*
X166792857Y-115089095D02*
X166769047Y-115112904D01*
X166769047Y-115112904D02*
X166721428Y-115136714D01*
X166721428Y-115136714D02*
X166530952Y-115136714D01*
X166983333Y-114874809D02*
X167292857Y-114874809D01*
X167292857Y-114874809D02*
X167126190Y-115065285D01*
X167126190Y-115065285D02*
X167197619Y-115065285D01*
X167197619Y-115065285D02*
X167245238Y-115089095D01*
X167245238Y-115089095D02*
X167269047Y-115112904D01*
X167269047Y-115112904D02*
X167292857Y-115160523D01*
X167292857Y-115160523D02*
X167292857Y-115279571D01*
X167292857Y-115279571D02*
X167269047Y-115327190D01*
X167269047Y-115327190D02*
X167245238Y-115351000D01*
X167245238Y-115351000D02*
X167197619Y-115374809D01*
X167197619Y-115374809D02*
X167054762Y-115374809D01*
X167054762Y-115374809D02*
X167007143Y-115351000D01*
X167007143Y-115351000D02*
X166983333Y-115327190D01*
X139116666Y-117927190D02*
X139092857Y-117951000D01*
X139092857Y-117951000D02*
X139021428Y-117974809D01*
X139021428Y-117974809D02*
X138973809Y-117974809D01*
X138973809Y-117974809D02*
X138902381Y-117951000D01*
X138902381Y-117951000D02*
X138854762Y-117903380D01*
X138854762Y-117903380D02*
X138830952Y-117855761D01*
X138830952Y-117855761D02*
X138807143Y-117760523D01*
X138807143Y-117760523D02*
X138807143Y-117689095D01*
X138807143Y-117689095D02*
X138830952Y-117593857D01*
X138830952Y-117593857D02*
X138854762Y-117546238D01*
X138854762Y-117546238D02*
X138902381Y-117498619D01*
X138902381Y-117498619D02*
X138973809Y-117474809D01*
X138973809Y-117474809D02*
X139021428Y-117474809D01*
X139021428Y-117474809D02*
X139092857Y-117498619D01*
X139092857Y-117498619D02*
X139116666Y-117522428D01*
X139283333Y-117474809D02*
X139616666Y-117474809D01*
X139616666Y-117474809D02*
X139402381Y-117974809D01*
X137528571Y-112177190D02*
X137504762Y-112201000D01*
X137504762Y-112201000D02*
X137433333Y-112224809D01*
X137433333Y-112224809D02*
X137385714Y-112224809D01*
X137385714Y-112224809D02*
X137314286Y-112201000D01*
X137314286Y-112201000D02*
X137266667Y-112153380D01*
X137266667Y-112153380D02*
X137242857Y-112105761D01*
X137242857Y-112105761D02*
X137219048Y-112010523D01*
X137219048Y-112010523D02*
X137219048Y-111939095D01*
X137219048Y-111939095D02*
X137242857Y-111843857D01*
X137242857Y-111843857D02*
X137266667Y-111796238D01*
X137266667Y-111796238D02*
X137314286Y-111748619D01*
X137314286Y-111748619D02*
X137385714Y-111724809D01*
X137385714Y-111724809D02*
X137433333Y-111724809D01*
X137433333Y-111724809D02*
X137504762Y-111748619D01*
X137504762Y-111748619D02*
X137528571Y-111772428D01*
X138004762Y-112224809D02*
X137719048Y-112224809D01*
X137861905Y-112224809D02*
X137861905Y-111724809D01*
X137861905Y-111724809D02*
X137814286Y-111796238D01*
X137814286Y-111796238D02*
X137766667Y-111843857D01*
X137766667Y-111843857D02*
X137719048Y-111867666D01*
X138457142Y-111724809D02*
X138219047Y-111724809D01*
X138219047Y-111724809D02*
X138195238Y-111962904D01*
X138195238Y-111962904D02*
X138219047Y-111939095D01*
X138219047Y-111939095D02*
X138266666Y-111915285D01*
X138266666Y-111915285D02*
X138385714Y-111915285D01*
X138385714Y-111915285D02*
X138433333Y-111939095D01*
X138433333Y-111939095D02*
X138457142Y-111962904D01*
X138457142Y-111962904D02*
X138480952Y-112010523D01*
X138480952Y-112010523D02*
X138480952Y-112129571D01*
X138480952Y-112129571D02*
X138457142Y-112177190D01*
X138457142Y-112177190D02*
X138433333Y-112201000D01*
X138433333Y-112201000D02*
X138385714Y-112224809D01*
X138385714Y-112224809D02*
X138266666Y-112224809D01*
X138266666Y-112224809D02*
X138219047Y-112201000D01*
X138219047Y-112201000D02*
X138195238Y-112177190D01*
X150378571Y-94877190D02*
X150354762Y-94901000D01*
X150354762Y-94901000D02*
X150283333Y-94924809D01*
X150283333Y-94924809D02*
X150235714Y-94924809D01*
X150235714Y-94924809D02*
X150164286Y-94901000D01*
X150164286Y-94901000D02*
X150116667Y-94853380D01*
X150116667Y-94853380D02*
X150092857Y-94805761D01*
X150092857Y-94805761D02*
X150069048Y-94710523D01*
X150069048Y-94710523D02*
X150069048Y-94639095D01*
X150069048Y-94639095D02*
X150092857Y-94543857D01*
X150092857Y-94543857D02*
X150116667Y-94496238D01*
X150116667Y-94496238D02*
X150164286Y-94448619D01*
X150164286Y-94448619D02*
X150235714Y-94424809D01*
X150235714Y-94424809D02*
X150283333Y-94424809D01*
X150283333Y-94424809D02*
X150354762Y-94448619D01*
X150354762Y-94448619D02*
X150378571Y-94472428D01*
X150545238Y-94424809D02*
X150854762Y-94424809D01*
X150854762Y-94424809D02*
X150688095Y-94615285D01*
X150688095Y-94615285D02*
X150759524Y-94615285D01*
X150759524Y-94615285D02*
X150807143Y-94639095D01*
X150807143Y-94639095D02*
X150830952Y-94662904D01*
X150830952Y-94662904D02*
X150854762Y-94710523D01*
X150854762Y-94710523D02*
X150854762Y-94829571D01*
X150854762Y-94829571D02*
X150830952Y-94877190D01*
X150830952Y-94877190D02*
X150807143Y-94901000D01*
X150807143Y-94901000D02*
X150759524Y-94924809D01*
X150759524Y-94924809D02*
X150616667Y-94924809D01*
X150616667Y-94924809D02*
X150569048Y-94901000D01*
X150569048Y-94901000D02*
X150545238Y-94877190D01*
X151164285Y-94424809D02*
X151211904Y-94424809D01*
X151211904Y-94424809D02*
X151259523Y-94448619D01*
X151259523Y-94448619D02*
X151283333Y-94472428D01*
X151283333Y-94472428D02*
X151307142Y-94520047D01*
X151307142Y-94520047D02*
X151330952Y-94615285D01*
X151330952Y-94615285D02*
X151330952Y-94734333D01*
X151330952Y-94734333D02*
X151307142Y-94829571D01*
X151307142Y-94829571D02*
X151283333Y-94877190D01*
X151283333Y-94877190D02*
X151259523Y-94901000D01*
X151259523Y-94901000D02*
X151211904Y-94924809D01*
X151211904Y-94924809D02*
X151164285Y-94924809D01*
X151164285Y-94924809D02*
X151116666Y-94901000D01*
X151116666Y-94901000D02*
X151092857Y-94877190D01*
X151092857Y-94877190D02*
X151069047Y-94829571D01*
X151069047Y-94829571D02*
X151045238Y-94734333D01*
X151045238Y-94734333D02*
X151045238Y-94615285D01*
X151045238Y-94615285D02*
X151069047Y-94520047D01*
X151069047Y-94520047D02*
X151092857Y-94472428D01*
X151092857Y-94472428D02*
X151116666Y-94448619D01*
X151116666Y-94448619D02*
X151164285Y-94424809D01*
X152628571Y-82577190D02*
X152604762Y-82601000D01*
X152604762Y-82601000D02*
X152533333Y-82624809D01*
X152533333Y-82624809D02*
X152485714Y-82624809D01*
X152485714Y-82624809D02*
X152414286Y-82601000D01*
X152414286Y-82601000D02*
X152366667Y-82553380D01*
X152366667Y-82553380D02*
X152342857Y-82505761D01*
X152342857Y-82505761D02*
X152319048Y-82410523D01*
X152319048Y-82410523D02*
X152319048Y-82339095D01*
X152319048Y-82339095D02*
X152342857Y-82243857D01*
X152342857Y-82243857D02*
X152366667Y-82196238D01*
X152366667Y-82196238D02*
X152414286Y-82148619D01*
X152414286Y-82148619D02*
X152485714Y-82124809D01*
X152485714Y-82124809D02*
X152533333Y-82124809D01*
X152533333Y-82124809D02*
X152604762Y-82148619D01*
X152604762Y-82148619D02*
X152628571Y-82172428D01*
X152819048Y-82172428D02*
X152842857Y-82148619D01*
X152842857Y-82148619D02*
X152890476Y-82124809D01*
X152890476Y-82124809D02*
X153009524Y-82124809D01*
X153009524Y-82124809D02*
X153057143Y-82148619D01*
X153057143Y-82148619D02*
X153080952Y-82172428D01*
X153080952Y-82172428D02*
X153104762Y-82220047D01*
X153104762Y-82220047D02*
X153104762Y-82267666D01*
X153104762Y-82267666D02*
X153080952Y-82339095D01*
X153080952Y-82339095D02*
X152795238Y-82624809D01*
X152795238Y-82624809D02*
X153104762Y-82624809D01*
X153271428Y-82124809D02*
X153580952Y-82124809D01*
X153580952Y-82124809D02*
X153414285Y-82315285D01*
X153414285Y-82315285D02*
X153485714Y-82315285D01*
X153485714Y-82315285D02*
X153533333Y-82339095D01*
X153533333Y-82339095D02*
X153557142Y-82362904D01*
X153557142Y-82362904D02*
X153580952Y-82410523D01*
X153580952Y-82410523D02*
X153580952Y-82529571D01*
X153580952Y-82529571D02*
X153557142Y-82577190D01*
X153557142Y-82577190D02*
X153533333Y-82601000D01*
X153533333Y-82601000D02*
X153485714Y-82624809D01*
X153485714Y-82624809D02*
X153342857Y-82624809D01*
X153342857Y-82624809D02*
X153295238Y-82601000D01*
X153295238Y-82601000D02*
X153271428Y-82577190D01*
X163178571Y-94277190D02*
X163154762Y-94301000D01*
X163154762Y-94301000D02*
X163083333Y-94324809D01*
X163083333Y-94324809D02*
X163035714Y-94324809D01*
X163035714Y-94324809D02*
X162964286Y-94301000D01*
X162964286Y-94301000D02*
X162916667Y-94253380D01*
X162916667Y-94253380D02*
X162892857Y-94205761D01*
X162892857Y-94205761D02*
X162869048Y-94110523D01*
X162869048Y-94110523D02*
X162869048Y-94039095D01*
X162869048Y-94039095D02*
X162892857Y-93943857D01*
X162892857Y-93943857D02*
X162916667Y-93896238D01*
X162916667Y-93896238D02*
X162964286Y-93848619D01*
X162964286Y-93848619D02*
X163035714Y-93824809D01*
X163035714Y-93824809D02*
X163083333Y-93824809D01*
X163083333Y-93824809D02*
X163154762Y-93848619D01*
X163154762Y-93848619D02*
X163178571Y-93872428D01*
X163369048Y-93872428D02*
X163392857Y-93848619D01*
X163392857Y-93848619D02*
X163440476Y-93824809D01*
X163440476Y-93824809D02*
X163559524Y-93824809D01*
X163559524Y-93824809D02*
X163607143Y-93848619D01*
X163607143Y-93848619D02*
X163630952Y-93872428D01*
X163630952Y-93872428D02*
X163654762Y-93920047D01*
X163654762Y-93920047D02*
X163654762Y-93967666D01*
X163654762Y-93967666D02*
X163630952Y-94039095D01*
X163630952Y-94039095D02*
X163345238Y-94324809D01*
X163345238Y-94324809D02*
X163654762Y-94324809D01*
X164083333Y-93824809D02*
X163988095Y-93824809D01*
X163988095Y-93824809D02*
X163940476Y-93848619D01*
X163940476Y-93848619D02*
X163916666Y-93872428D01*
X163916666Y-93872428D02*
X163869047Y-93943857D01*
X163869047Y-93943857D02*
X163845238Y-94039095D01*
X163845238Y-94039095D02*
X163845238Y-94229571D01*
X163845238Y-94229571D02*
X163869047Y-94277190D01*
X163869047Y-94277190D02*
X163892857Y-94301000D01*
X163892857Y-94301000D02*
X163940476Y-94324809D01*
X163940476Y-94324809D02*
X164035714Y-94324809D01*
X164035714Y-94324809D02*
X164083333Y-94301000D01*
X164083333Y-94301000D02*
X164107142Y-94277190D01*
X164107142Y-94277190D02*
X164130952Y-94229571D01*
X164130952Y-94229571D02*
X164130952Y-94110523D01*
X164130952Y-94110523D02*
X164107142Y-94062904D01*
X164107142Y-94062904D02*
X164083333Y-94039095D01*
X164083333Y-94039095D02*
X164035714Y-94015285D01*
X164035714Y-94015285D02*
X163940476Y-94015285D01*
X163940476Y-94015285D02*
X163892857Y-94039095D01*
X163892857Y-94039095D02*
X163869047Y-94062904D01*
X163869047Y-94062904D02*
X163845238Y-94110523D01*
X157166666Y-115577190D02*
X157142857Y-115601000D01*
X157142857Y-115601000D02*
X157071428Y-115624809D01*
X157071428Y-115624809D02*
X157023809Y-115624809D01*
X157023809Y-115624809D02*
X156952381Y-115601000D01*
X156952381Y-115601000D02*
X156904762Y-115553380D01*
X156904762Y-115553380D02*
X156880952Y-115505761D01*
X156880952Y-115505761D02*
X156857143Y-115410523D01*
X156857143Y-115410523D02*
X156857143Y-115339095D01*
X156857143Y-115339095D02*
X156880952Y-115243857D01*
X156880952Y-115243857D02*
X156904762Y-115196238D01*
X156904762Y-115196238D02*
X156952381Y-115148619D01*
X156952381Y-115148619D02*
X157023809Y-115124809D01*
X157023809Y-115124809D02*
X157071428Y-115124809D01*
X157071428Y-115124809D02*
X157142857Y-115148619D01*
X157142857Y-115148619D02*
X157166666Y-115172428D01*
X157357143Y-115172428D02*
X157380952Y-115148619D01*
X157380952Y-115148619D02*
X157428571Y-115124809D01*
X157428571Y-115124809D02*
X157547619Y-115124809D01*
X157547619Y-115124809D02*
X157595238Y-115148619D01*
X157595238Y-115148619D02*
X157619047Y-115172428D01*
X157619047Y-115172428D02*
X157642857Y-115220047D01*
X157642857Y-115220047D02*
X157642857Y-115267666D01*
X157642857Y-115267666D02*
X157619047Y-115339095D01*
X157619047Y-115339095D02*
X157333333Y-115624809D01*
X157333333Y-115624809D02*
X157642857Y-115624809D01*
X145528571Y-82677190D02*
X145504762Y-82701000D01*
X145504762Y-82701000D02*
X145433333Y-82724809D01*
X145433333Y-82724809D02*
X145385714Y-82724809D01*
X145385714Y-82724809D02*
X145314286Y-82701000D01*
X145314286Y-82701000D02*
X145266667Y-82653380D01*
X145266667Y-82653380D02*
X145242857Y-82605761D01*
X145242857Y-82605761D02*
X145219048Y-82510523D01*
X145219048Y-82510523D02*
X145219048Y-82439095D01*
X145219048Y-82439095D02*
X145242857Y-82343857D01*
X145242857Y-82343857D02*
X145266667Y-82296238D01*
X145266667Y-82296238D02*
X145314286Y-82248619D01*
X145314286Y-82248619D02*
X145385714Y-82224809D01*
X145385714Y-82224809D02*
X145433333Y-82224809D01*
X145433333Y-82224809D02*
X145504762Y-82248619D01*
X145504762Y-82248619D02*
X145528571Y-82272428D01*
X145719048Y-82272428D02*
X145742857Y-82248619D01*
X145742857Y-82248619D02*
X145790476Y-82224809D01*
X145790476Y-82224809D02*
X145909524Y-82224809D01*
X145909524Y-82224809D02*
X145957143Y-82248619D01*
X145957143Y-82248619D02*
X145980952Y-82272428D01*
X145980952Y-82272428D02*
X146004762Y-82320047D01*
X146004762Y-82320047D02*
X146004762Y-82367666D01*
X146004762Y-82367666D02*
X145980952Y-82439095D01*
X145980952Y-82439095D02*
X145695238Y-82724809D01*
X145695238Y-82724809D02*
X146004762Y-82724809D01*
X146457142Y-82224809D02*
X146219047Y-82224809D01*
X146219047Y-82224809D02*
X146195238Y-82462904D01*
X146195238Y-82462904D02*
X146219047Y-82439095D01*
X146219047Y-82439095D02*
X146266666Y-82415285D01*
X146266666Y-82415285D02*
X146385714Y-82415285D01*
X146385714Y-82415285D02*
X146433333Y-82439095D01*
X146433333Y-82439095D02*
X146457142Y-82462904D01*
X146457142Y-82462904D02*
X146480952Y-82510523D01*
X146480952Y-82510523D02*
X146480952Y-82629571D01*
X146480952Y-82629571D02*
X146457142Y-82677190D01*
X146457142Y-82677190D02*
X146433333Y-82701000D01*
X146433333Y-82701000D02*
X146385714Y-82724809D01*
X146385714Y-82724809D02*
X146266666Y-82724809D01*
X146266666Y-82724809D02*
X146219047Y-82701000D01*
X146219047Y-82701000D02*
X146195238Y-82677190D01*
X144380952Y-95374809D02*
X144380952Y-94874809D01*
X144380952Y-94874809D02*
X144500000Y-94874809D01*
X144500000Y-94874809D02*
X144571428Y-94898619D01*
X144571428Y-94898619D02*
X144619047Y-94946238D01*
X144619047Y-94946238D02*
X144642857Y-94993857D01*
X144642857Y-94993857D02*
X144666666Y-95089095D01*
X144666666Y-95089095D02*
X144666666Y-95160523D01*
X144666666Y-95160523D02*
X144642857Y-95255761D01*
X144642857Y-95255761D02*
X144619047Y-95303380D01*
X144619047Y-95303380D02*
X144571428Y-95351000D01*
X144571428Y-95351000D02*
X144500000Y-95374809D01*
X144500000Y-95374809D02*
X144380952Y-95374809D01*
X145095238Y-94874809D02*
X145000000Y-94874809D01*
X145000000Y-94874809D02*
X144952381Y-94898619D01*
X144952381Y-94898619D02*
X144928571Y-94922428D01*
X144928571Y-94922428D02*
X144880952Y-94993857D01*
X144880952Y-94993857D02*
X144857143Y-95089095D01*
X144857143Y-95089095D02*
X144857143Y-95279571D01*
X144857143Y-95279571D02*
X144880952Y-95327190D01*
X144880952Y-95327190D02*
X144904762Y-95351000D01*
X144904762Y-95351000D02*
X144952381Y-95374809D01*
X144952381Y-95374809D02*
X145047619Y-95374809D01*
X145047619Y-95374809D02*
X145095238Y-95351000D01*
X145095238Y-95351000D02*
X145119047Y-95327190D01*
X145119047Y-95327190D02*
X145142857Y-95279571D01*
X145142857Y-95279571D02*
X145142857Y-95160523D01*
X145142857Y-95160523D02*
X145119047Y-95112904D01*
X145119047Y-95112904D02*
X145095238Y-95089095D01*
X145095238Y-95089095D02*
X145047619Y-95065285D01*
X145047619Y-95065285D02*
X144952381Y-95065285D01*
X144952381Y-95065285D02*
X144904762Y-95089095D01*
X144904762Y-95089095D02*
X144880952Y-95112904D01*
X144880952Y-95112904D02*
X144857143Y-95160523D01*
X146678571Y-78877190D02*
X146654762Y-78901000D01*
X146654762Y-78901000D02*
X146583333Y-78924809D01*
X146583333Y-78924809D02*
X146535714Y-78924809D01*
X146535714Y-78924809D02*
X146464286Y-78901000D01*
X146464286Y-78901000D02*
X146416667Y-78853380D01*
X146416667Y-78853380D02*
X146392857Y-78805761D01*
X146392857Y-78805761D02*
X146369048Y-78710523D01*
X146369048Y-78710523D02*
X146369048Y-78639095D01*
X146369048Y-78639095D02*
X146392857Y-78543857D01*
X146392857Y-78543857D02*
X146416667Y-78496238D01*
X146416667Y-78496238D02*
X146464286Y-78448619D01*
X146464286Y-78448619D02*
X146535714Y-78424809D01*
X146535714Y-78424809D02*
X146583333Y-78424809D01*
X146583333Y-78424809D02*
X146654762Y-78448619D01*
X146654762Y-78448619D02*
X146678571Y-78472428D01*
X146869048Y-78472428D02*
X146892857Y-78448619D01*
X146892857Y-78448619D02*
X146940476Y-78424809D01*
X146940476Y-78424809D02*
X147059524Y-78424809D01*
X147059524Y-78424809D02*
X147107143Y-78448619D01*
X147107143Y-78448619D02*
X147130952Y-78472428D01*
X147130952Y-78472428D02*
X147154762Y-78520047D01*
X147154762Y-78520047D02*
X147154762Y-78567666D01*
X147154762Y-78567666D02*
X147130952Y-78639095D01*
X147130952Y-78639095D02*
X146845238Y-78924809D01*
X146845238Y-78924809D02*
X147154762Y-78924809D01*
X147583333Y-78591476D02*
X147583333Y-78924809D01*
X147464285Y-78401000D02*
X147345238Y-78758142D01*
X147345238Y-78758142D02*
X147654761Y-78758142D01*
X137603333Y-83704808D02*
X137603333Y-84061951D01*
X137603333Y-84061951D02*
X137579524Y-84133379D01*
X137579524Y-84133379D02*
X137531905Y-84180999D01*
X137531905Y-84180999D02*
X137460476Y-84204808D01*
X137460476Y-84204808D02*
X137412857Y-84204808D01*
X137841428Y-84204808D02*
X137841428Y-83704808D01*
X137841428Y-83704808D02*
X138031904Y-83704808D01*
X138031904Y-83704808D02*
X138079523Y-83728618D01*
X138079523Y-83728618D02*
X138103333Y-83752427D01*
X138103333Y-83752427D02*
X138127142Y-83800046D01*
X138127142Y-83800046D02*
X138127142Y-83871475D01*
X138127142Y-83871475D02*
X138103333Y-83919094D01*
X138103333Y-83919094D02*
X138079523Y-83942903D01*
X138079523Y-83942903D02*
X138031904Y-83966713D01*
X138031904Y-83966713D02*
X137841428Y-83966713D01*
X138579523Y-83704808D02*
X138341428Y-83704808D01*
X138341428Y-83704808D02*
X138317619Y-83942903D01*
X138317619Y-83942903D02*
X138341428Y-83919094D01*
X138341428Y-83919094D02*
X138389047Y-83895284D01*
X138389047Y-83895284D02*
X138508095Y-83895284D01*
X138508095Y-83895284D02*
X138555714Y-83919094D01*
X138555714Y-83919094D02*
X138579523Y-83942903D01*
X138579523Y-83942903D02*
X138603333Y-83990522D01*
X138603333Y-83990522D02*
X138603333Y-84109570D01*
X138603333Y-84109570D02*
X138579523Y-84157189D01*
X138579523Y-84157189D02*
X138555714Y-84180999D01*
X138555714Y-84180999D02*
X138508095Y-84204808D01*
X138508095Y-84204808D02*
X138389047Y-84204808D01*
X138389047Y-84204808D02*
X138341428Y-84180999D01*
X138341428Y-84180999D02*
X138317619Y-84157189D01*
X135230952Y-126774809D02*
X135230952Y-126274809D01*
X135230952Y-126274809D02*
X135350000Y-126274809D01*
X135350000Y-126274809D02*
X135421428Y-126298619D01*
X135421428Y-126298619D02*
X135469047Y-126346238D01*
X135469047Y-126346238D02*
X135492857Y-126393857D01*
X135492857Y-126393857D02*
X135516666Y-126489095D01*
X135516666Y-126489095D02*
X135516666Y-126560523D01*
X135516666Y-126560523D02*
X135492857Y-126655761D01*
X135492857Y-126655761D02*
X135469047Y-126703380D01*
X135469047Y-126703380D02*
X135421428Y-126751000D01*
X135421428Y-126751000D02*
X135350000Y-126774809D01*
X135350000Y-126774809D02*
X135230952Y-126774809D01*
X135992857Y-126774809D02*
X135707143Y-126774809D01*
X135850000Y-126774809D02*
X135850000Y-126274809D01*
X135850000Y-126274809D02*
X135802381Y-126346238D01*
X135802381Y-126346238D02*
X135754762Y-126393857D01*
X135754762Y-126393857D02*
X135707143Y-126417666D01*
X139616666Y-113374809D02*
X139450000Y-113136714D01*
X139330952Y-113374809D02*
X139330952Y-112874809D01*
X139330952Y-112874809D02*
X139521428Y-112874809D01*
X139521428Y-112874809D02*
X139569047Y-112898619D01*
X139569047Y-112898619D02*
X139592857Y-112922428D01*
X139592857Y-112922428D02*
X139616666Y-112970047D01*
X139616666Y-112970047D02*
X139616666Y-113041476D01*
X139616666Y-113041476D02*
X139592857Y-113089095D01*
X139592857Y-113089095D02*
X139569047Y-113112904D01*
X139569047Y-113112904D02*
X139521428Y-113136714D01*
X139521428Y-113136714D02*
X139330952Y-113136714D01*
X140069047Y-112874809D02*
X139830952Y-112874809D01*
X139830952Y-112874809D02*
X139807143Y-113112904D01*
X139807143Y-113112904D02*
X139830952Y-113089095D01*
X139830952Y-113089095D02*
X139878571Y-113065285D01*
X139878571Y-113065285D02*
X139997619Y-113065285D01*
X139997619Y-113065285D02*
X140045238Y-113089095D01*
X140045238Y-113089095D02*
X140069047Y-113112904D01*
X140069047Y-113112904D02*
X140092857Y-113160523D01*
X140092857Y-113160523D02*
X140092857Y-113279571D01*
X140092857Y-113279571D02*
X140069047Y-113327190D01*
X140069047Y-113327190D02*
X140045238Y-113351000D01*
X140045238Y-113351000D02*
X139997619Y-113374809D01*
X139997619Y-113374809D02*
X139878571Y-113374809D01*
X139878571Y-113374809D02*
X139830952Y-113351000D01*
X139830952Y-113351000D02*
X139807143Y-113327190D01*
X135983333Y-70824809D02*
X135983333Y-71181952D01*
X135983333Y-71181952D02*
X135959524Y-71253380D01*
X135959524Y-71253380D02*
X135911905Y-71301000D01*
X135911905Y-71301000D02*
X135840476Y-71324809D01*
X135840476Y-71324809D02*
X135792857Y-71324809D01*
X136459523Y-70824809D02*
X136221428Y-70824809D01*
X136221428Y-70824809D02*
X136197619Y-71062904D01*
X136197619Y-71062904D02*
X136221428Y-71039095D01*
X136221428Y-71039095D02*
X136269047Y-71015285D01*
X136269047Y-71015285D02*
X136388095Y-71015285D01*
X136388095Y-71015285D02*
X136435714Y-71039095D01*
X136435714Y-71039095D02*
X136459523Y-71062904D01*
X136459523Y-71062904D02*
X136483333Y-71110523D01*
X136483333Y-71110523D02*
X136483333Y-71229571D01*
X136483333Y-71229571D02*
X136459523Y-71277190D01*
X136459523Y-71277190D02*
X136435714Y-71301000D01*
X136435714Y-71301000D02*
X136388095Y-71324809D01*
X136388095Y-71324809D02*
X136269047Y-71324809D01*
X136269047Y-71324809D02*
X136221428Y-71301000D01*
X136221428Y-71301000D02*
X136197619Y-71277190D01*
%TO.C,JP8*%
D17*
X143000000Y-90800000D02*
G75*
G02*
X142300000Y-91500001I-700001J0D01*
G01*
X142300001Y-88700000D02*
G75*
G02*
X143000000Y-89400000I-1J-700000D01*
G01*
X141699999Y-91500000D02*
G75*
G02*
X141000000Y-90800000I0J699999D01*
G01*
X141000000Y-89400000D02*
G75*
G02*
X141700000Y-88700000I700000J0D01*
G01*
X143000000Y-89400000D02*
X143000000Y-90800000D01*
X142300000Y-91500001D02*
X141699999Y-91500000D01*
X141700000Y-88699999D02*
X142300001Y-88700000D01*
X141000000Y-90800000D02*
X141000000Y-89400000D01*
%TO.C,JP7*%
X139000000Y-90800000D02*
G75*
G02*
X138300000Y-91500000I-700000J0D01*
G01*
X138300001Y-88700000D02*
G75*
G02*
X139000000Y-89400000I0J-699999D01*
G01*
X137699999Y-91500000D02*
G75*
G02*
X137000000Y-90800000I1J700000D01*
G01*
X137000000Y-89400000D02*
G75*
G02*
X137700000Y-88699999I700001J0D01*
G01*
X139000000Y-89400000D02*
X139000000Y-90800000D01*
X138300000Y-91500001D02*
X137699999Y-91500000D01*
X137700000Y-88699999D02*
X138300001Y-88700000D01*
X137000000Y-90800000D02*
X137000000Y-89400000D01*
%TO.C,JP1*%
X169300000Y-118550000D02*
X169300000Y-117150000D01*
X169999999Y-116450000D02*
X170600001Y-116450000D01*
X170600001Y-119250000D02*
X169999999Y-119250000D01*
X171300000Y-117150000D02*
X171300000Y-118550000D01*
X169300000Y-117150000D02*
G75*
G02*
X169999999Y-116450000I699999J1D01*
G01*
X169999999Y-119250000D02*
G75*
G02*
X169300000Y-118550000I1J700000D01*
G01*
X170600001Y-116450000D02*
G75*
G02*
X171300000Y-117150000I0J-699999D01*
G01*
X171300000Y-118550000D02*
G75*
G02*
X170600001Y-119250000I-700000J0D01*
G01*
%TO.C,C22*%
X145177500Y-91196267D02*
X145177500Y-90903733D01*
X146197500Y-91196267D02*
X146197500Y-90903733D01*
%TO.C,D5*%
X149465000Y-114040000D02*
X149465000Y-116500000D01*
X150935000Y-114040000D02*
X149465000Y-114040000D01*
X150935000Y-116500000D02*
X150935000Y-114040000D01*
%TO.C,C33*%
X148046267Y-112340000D02*
X147753733Y-112340000D01*
X148046267Y-113360000D02*
X147753733Y-113360000D01*
%TO.C,Q2*%
X156840000Y-76690000D02*
X157840000Y-76690000D01*
X156840000Y-78210000D02*
X156840000Y-76690000D01*
X156890000Y-78210000D02*
X156840000Y-78210000D01*
X158790000Y-78210000D02*
X158010000Y-78210000D01*
X158960000Y-76690000D02*
X159960000Y-76690000D01*
X159960000Y-76690000D02*
X159960000Y-78210000D01*
X159960000Y-78210000D02*
X159910000Y-78210000D01*
X158020000Y-78750000D02*
X158350000Y-78510000D01*
X158350000Y-78990000D01*
X158020000Y-78750000D01*
G36*
X158350000Y-78990000D02*
G01*
X158020000Y-78750000D01*
X158350000Y-78510000D01*
X158350000Y-78990000D01*
G37*
%TO.C,JP9*%
X145325000Y-84950000D02*
X148125000Y-84950000D01*
X145325000Y-86950000D02*
X145325000Y-84950000D01*
X148125000Y-84950000D02*
X148125000Y-86950000D01*
X148125000Y-86950000D02*
X145325000Y-86950000D01*
%TO.C,R6*%
X139990001Y-120322936D02*
X139990001Y-124677064D01*
X143409999Y-120322936D02*
X143409999Y-124677064D01*
%TO.C,U4*%
X159740001Y-123322500D02*
X159740001Y-119202500D01*
X164859999Y-119202500D02*
X164859999Y-123322500D01*
X160300000Y-125002500D02*
X160540000Y-125332501D01*
X160060000Y-125332500D01*
X160300000Y-125002500D01*
G36*
X160540000Y-125332501D02*
G01*
X160060000Y-125332500D01*
X160300000Y-125002500D01*
X160540000Y-125332501D01*
G37*
%TO.C,C28*%
X145653733Y-121440000D02*
X145946267Y-121440000D01*
X145653733Y-122460000D02*
X145946267Y-122460000D01*
%TO.C,R9*%
X163545276Y-81677500D02*
X164054724Y-81677500D01*
X163545276Y-82722500D02*
X164054724Y-82722500D01*
%TO.C,J3*%
X129870000Y-107395000D02*
X131250000Y-107395000D01*
X129870000Y-108775000D02*
X129870000Y-107395000D01*
X129870000Y-110045000D02*
X129870000Y-112695000D01*
X129870000Y-110045000D02*
X132630000Y-110045000D01*
X129870000Y-112695000D02*
X132630000Y-112695000D01*
X132630000Y-110045000D02*
X132630000Y-112695000D01*
%TO.C,U2*%
X136914999Y-110085000D02*
X136915000Y-109385000D01*
X136915000Y-105864999D02*
X137615000Y-105865000D01*
X136915000Y-106565000D02*
X136915000Y-105864999D01*
X137615000Y-110085000D02*
X136914999Y-110085000D01*
X140435000Y-105865000D02*
X141135001Y-105865000D01*
X141135000Y-109385000D02*
X141135000Y-110085001D01*
X141135000Y-110085001D02*
X140435000Y-110085000D01*
X141135001Y-105865000D02*
X141135000Y-106565000D01*
X140005001Y-105335000D02*
X139765000Y-105005000D01*
X140245000Y-105005000D01*
X140005001Y-105335000D01*
G36*
X140005001Y-105335000D02*
G01*
X139765000Y-105005000D01*
X140245000Y-105005000D01*
X140005001Y-105335000D01*
G37*
%TO.C,R11*%
X164104724Y-87077500D02*
X163595276Y-87077500D01*
X164104724Y-88122500D02*
X163595276Y-88122500D01*
%TO.C,R10*%
X163580276Y-85177500D02*
X164089724Y-85177500D01*
X163580276Y-86222500D02*
X164089724Y-86222500D01*
%TO.C,U7*%
X137565001Y-95840000D02*
X137565000Y-95489999D01*
X137565001Y-100110000D02*
X137565001Y-99760000D01*
X143034999Y-95490000D02*
X143034999Y-95840000D01*
X143034999Y-99760000D02*
X143035000Y-100110001D01*
X138020000Y-101710000D02*
X138260000Y-102040000D01*
X137780000Y-102040000D01*
X138020000Y-101710000D01*
G36*
X138260000Y-102040000D02*
G01*
X137780000Y-102040000D01*
X138020000Y-101710000D01*
X138260000Y-102040000D01*
G37*
%TO.C,JP2*%
X138424999Y-102750000D02*
X141225000Y-102750001D01*
X138425000Y-104749999D02*
X138424999Y-102750000D01*
X141225000Y-102750001D02*
X141225001Y-104750000D01*
X141225001Y-104750000D02*
X138425000Y-104749999D01*
%TO.C,C32*%
X165840000Y-77753733D02*
X165840000Y-78046267D01*
X166860000Y-77753733D02*
X166860000Y-78046267D01*
%TO.C,J8*%
X147340000Y-69620000D02*
X147340000Y-74920000D01*
X152530000Y-69620000D02*
X147340000Y-69620000D01*
X152530000Y-69620000D02*
X152530000Y-72270000D01*
X152530000Y-72270000D02*
X155180000Y-72270000D01*
X153800000Y-69620000D02*
X155180000Y-69620000D01*
X155180000Y-69620000D02*
X155180000Y-71000000D01*
X155180000Y-72270000D02*
X155180000Y-74920000D01*
X155180000Y-74920000D02*
X147340000Y-74920000D01*
%TO.C,C19*%
X137853733Y-91990000D02*
X138146267Y-91990000D01*
X137853733Y-93010000D02*
X138146267Y-93010000D01*
%TO.C,R13*%
X164104724Y-89077500D02*
X163595276Y-89077500D01*
X164104724Y-90122500D02*
X163595276Y-90122500D01*
%TO.C,C21*%
X146377500Y-91196267D02*
X146377500Y-90903733D01*
X147397500Y-91196267D02*
X147397500Y-90903733D01*
%TO.C,D4*%
X146965000Y-114065000D02*
X146965000Y-116525000D01*
X148435000Y-114065000D02*
X146965000Y-114065000D01*
X148435000Y-116525000D02*
X148435000Y-114065000D01*
%TO.C,SW1*%
X155299998Y-90299998D02*
X155400000Y-90300001D01*
X155300002Y-84099998D02*
X155299998Y-90299998D01*
X155300002Y-84099998D02*
X155399999Y-84100000D01*
X159899998Y-84100002D02*
X156899999Y-84099998D01*
X159900001Y-90300002D02*
X156900002Y-90299998D01*
X161400001Y-90300000D02*
X161499998Y-90300002D01*
X161500002Y-84100002D02*
X161400000Y-84099999D01*
X161500002Y-84100002D02*
X161499998Y-90300002D01*
%TO.C,R1*%
X167142224Y-119277500D02*
X166632776Y-119277500D01*
X167142224Y-120322500D02*
X166632776Y-120322500D01*
%TO.C,J11*%
X157903200Y-69678000D02*
X157903200Y-74978000D01*
X163093200Y-69678000D02*
X157903200Y-69678000D01*
X163093200Y-69678000D02*
X163093200Y-72328000D01*
X163093200Y-72328000D02*
X165743200Y-72328000D01*
X164363200Y-69678000D02*
X165743200Y-69678000D01*
X165743200Y-69678000D02*
X165743200Y-71058000D01*
X165743200Y-72328000D02*
X165743200Y-74978000D01*
X165743200Y-74978000D02*
X157903200Y-74978000D01*
%TO.C,C8*%
X141553733Y-111440000D02*
X141846267Y-111440000D01*
X141553733Y-112460000D02*
X141846267Y-112460000D01*
%TO.C,C6*%
X142340000Y-108046267D02*
X142340000Y-107753733D01*
X143360000Y-108046267D02*
X143360000Y-107753733D01*
%TO.C,JP10*%
X144449999Y-119700000D02*
X144450000Y-119099999D01*
X145150000Y-118400000D02*
X146550000Y-118400000D01*
X146550000Y-120400000D02*
X145150000Y-120400000D01*
X147250001Y-119100000D02*
X147250000Y-119700001D01*
X144450000Y-119099999D02*
G75*
G02*
X145150000Y-118400000I700000J-1D01*
G01*
X145150000Y-120400000D02*
G75*
G02*
X144450000Y-119700000I0J700000D01*
G01*
X146550000Y-118400000D02*
G75*
G02*
X147250001Y-119100000I0J-700001D01*
G01*
X147250000Y-119700001D02*
G75*
G02*
X146550000Y-120400000I-699999J0D01*
G01*
%TO.C,C17*%
X138286233Y-73340000D02*
X138578767Y-73340000D01*
X138286233Y-74360000D02*
X138578767Y-74360000D01*
%TO.C,C20*%
X152277500Y-90903733D02*
X152277500Y-91196267D01*
X153297500Y-90903733D02*
X153297500Y-91196267D01*
%TO.C,C3*%
X162296267Y-125640000D02*
X162003733Y-125640000D01*
X162296267Y-126660000D02*
X162003733Y-126660000D01*
%TO.C,R7*%
X168995276Y-79877500D02*
X169504724Y-79877500D01*
X168995276Y-80922500D02*
X169504724Y-80922500D01*
%TO.C,R2*%
X162617224Y-115577500D02*
X162107776Y-115577500D01*
X162617224Y-116622500D02*
X162107776Y-116622500D01*
%TO.C,Q1*%
X167690000Y-76640000D02*
X168690000Y-76640000D01*
X167690000Y-78160000D02*
X167690000Y-76640000D01*
X167740000Y-78160000D02*
X167690000Y-78160000D01*
X169640000Y-78160000D02*
X168860000Y-78160000D01*
X169810000Y-76640000D02*
X170810000Y-76640000D01*
X170810000Y-76640000D02*
X170810000Y-78160000D01*
X170810000Y-78160000D02*
X170760000Y-78160000D01*
X168870000Y-78700000D02*
X169200000Y-78460000D01*
X169200000Y-78940000D01*
X168870000Y-78700000D01*
G36*
X169200000Y-78940000D02*
G01*
X168870000Y-78700000D01*
X169200000Y-78460000D01*
X169200000Y-78940000D01*
G37*
%TO.C,C4*%
X133590000Y-114996267D02*
X133590000Y-114703733D01*
X134610000Y-114996267D02*
X134610000Y-114703733D01*
%TO.C,U9*%
X148977500Y-89490000D02*
X150797500Y-89490000D01*
X148977500Y-89540000D02*
X148977500Y-89490000D01*
X148977500Y-91440000D02*
X148977500Y-90660000D01*
X148977500Y-92610000D02*
X148977500Y-92560000D01*
X150797500Y-89490000D02*
X150797500Y-89540000D01*
X150797500Y-92560000D02*
X150797500Y-92610000D01*
X150797500Y-92610000D02*
X148977500Y-92610000D01*
X151337500Y-92560000D02*
X151577500Y-92890000D01*
X151097500Y-92890000D01*
X151337500Y-92560000D01*
G36*
X151577500Y-92890000D02*
G01*
X151097500Y-92890000D01*
X151337500Y-92560000D01*
X151577500Y-92890000D01*
G37*
%TO.C,R15*%
X145145276Y-75977500D02*
X145654724Y-75977500D01*
X145145276Y-77022500D02*
X145654724Y-77022500D01*
%TO.C,JP6*%
X141000000Y-86700000D02*
X141000000Y-85300000D01*
X141700000Y-84599999D02*
X142300001Y-84600000D01*
X142300000Y-87400001D02*
X141699999Y-87400000D01*
X143000000Y-85300000D02*
X143000000Y-86700000D01*
X141000000Y-85300000D02*
G75*
G02*
X141700000Y-84600000I700000J0D01*
G01*
X141699999Y-87400000D02*
G75*
G02*
X141000000Y-86700000I0J699999D01*
G01*
X142300001Y-84600000D02*
G75*
G02*
X143000000Y-85300000I-1J-700000D01*
G01*
X143000000Y-86700000D02*
G75*
G02*
X142300000Y-87400001I-700001J0D01*
G01*
%TO.C,C5*%
X133590000Y-119033767D02*
X133590000Y-118741233D01*
X134610000Y-119033767D02*
X134610000Y-118741233D01*
%TO.C,U3*%
X137490001Y-77102500D02*
X137490000Y-76752499D01*
X137490001Y-81372500D02*
X137490001Y-81022500D01*
X142959999Y-76752500D02*
X142959999Y-77102500D01*
X142959999Y-81022500D02*
X142960000Y-81372501D01*
X137945000Y-82972500D02*
X138185000Y-83302500D01*
X137705000Y-83302500D01*
X137945000Y-82972500D01*
G36*
X138185000Y-83302500D02*
G01*
X137705000Y-83302500D01*
X137945000Y-82972500D01*
X138185000Y-83302500D01*
G37*
%TO.C,JP3*%
X133600000Y-110575001D02*
X133600001Y-107775000D01*
X133600001Y-107775000D02*
X135600000Y-107774999D01*
X135599999Y-110575000D02*
X133600000Y-110575001D01*
X135600000Y-107774999D02*
X135599999Y-110575000D01*
%TO.C,J4*%
X129520000Y-78645000D02*
X129520000Y-96485000D01*
X129520000Y-78645000D02*
X132180000Y-78645000D01*
X129520000Y-96485000D02*
X132180000Y-96485000D01*
X130850000Y-76045000D02*
X132180000Y-76045000D01*
X132180000Y-76045000D02*
X132180000Y-77375000D01*
X132180000Y-78645000D02*
X132180000Y-96485000D01*
%TO.C,C29*%
X151890000Y-109496267D02*
X151890000Y-109203733D01*
X152910000Y-109496267D02*
X152910000Y-109203733D01*
%TO.C,U8*%
X154010000Y-95700000D02*
X154960000Y-95700000D01*
X154010000Y-97100000D02*
X154010000Y-95700000D01*
X154010000Y-112700000D02*
X154010000Y-114100000D01*
X154010000Y-114100000D02*
X154960000Y-114100000D01*
X172960000Y-95700000D02*
X172960000Y-95200000D01*
X173460000Y-95700000D01*
X172960000Y-95700000D01*
G36*
X173460000Y-95700000D02*
G01*
X172960000Y-95700000D01*
X172960000Y-95200000D01*
X173460000Y-95700000D01*
G37*
%TO.C,R8*%
X158132776Y-79877500D02*
X158642224Y-79877500D01*
X158132776Y-80922500D02*
X158642224Y-80922500D01*
%TO.C,C18*%
X141953733Y-91990000D02*
X142246267Y-91990000D01*
X141953733Y-93010000D02*
X142246267Y-93010000D01*
%TO.C,R4*%
X144877500Y-115929723D02*
X144877500Y-115420277D01*
X145922500Y-115929723D02*
X145922500Y-115420277D01*
%TO.C,L1*%
X128990000Y-98365000D02*
X130389999Y-98365000D01*
X128990000Y-105035000D02*
X128990000Y-98365000D01*
X130389999Y-105035000D02*
X128990000Y-105035000D01*
X134410001Y-98365000D02*
X135810000Y-98365000D01*
X135810000Y-98365000D02*
X135810000Y-105035000D01*
X135810000Y-105035000D02*
X134410001Y-105035000D01*
%TO.C,U10*%
X149090000Y-78740000D02*
X150910000Y-78740000D01*
X149090000Y-78790000D02*
X149090000Y-78740000D01*
X149090000Y-80690000D02*
X149090000Y-79910000D01*
X149090000Y-81860000D02*
X149090000Y-81810000D01*
X150910000Y-78740000D02*
X150910000Y-78790000D01*
X150910000Y-81810000D02*
X150910000Y-81860000D01*
X150910000Y-81860000D02*
X149090000Y-81860000D01*
X151450000Y-81810000D02*
X151690000Y-82140000D01*
X151210000Y-82140000D01*
X151450000Y-81810000D01*
G36*
X151690000Y-82140000D02*
G01*
X151210000Y-82140000D01*
X151450000Y-81810000D01*
X151690000Y-82140000D01*
G37*
%TO.C,C31*%
X160740000Y-77753733D02*
X160740000Y-78046267D01*
X161760000Y-77753733D02*
X161760000Y-78046267D01*
%TO.C,C16*%
X141653733Y-73340000D02*
X141946267Y-73340000D01*
X141653733Y-74360000D02*
X141946267Y-74360000D01*
%TO.C,D3*%
X166055000Y-118735000D02*
X168515000Y-118735000D01*
X168515000Y-117265000D02*
X166055000Y-117265000D01*
X168515000Y-118735000D02*
X168515000Y-117265000D01*
%TO.C,R14*%
X145145276Y-74277500D02*
X145654724Y-74277500D01*
X145145276Y-75322500D02*
X145654724Y-75322500D01*
%TO.C,U5*%
X144140000Y-124040000D02*
X144215000Y-124040000D01*
X144140000Y-125860000D02*
X144140000Y-124040000D01*
X144215000Y-125860000D02*
X144140000Y-125860000D01*
X147185000Y-124040000D02*
X147260000Y-124040000D01*
X147260000Y-124040000D02*
X147260000Y-125860000D01*
X147260000Y-125860000D02*
X147185000Y-125860000D01*
X144210000Y-126400000D02*
X143880000Y-126640000D01*
X143880000Y-126160000D01*
X144210000Y-126400000D01*
G36*
X144210000Y-126400000D02*
G01*
X143880000Y-126640000D01*
X143880000Y-126160000D01*
X144210000Y-126400000D01*
G37*
%TO.C,C1*%
X153696267Y-115940000D02*
X153403733Y-115940000D01*
X153696267Y-116960000D02*
X153403733Y-116960000D01*
%TO.C,U1*%
X145615000Y-101740001D02*
X145615001Y-101685000D01*
X145615000Y-111805001D02*
X145615000Y-111749999D01*
X145615001Y-101685000D02*
X149735000Y-101684999D01*
X149734999Y-111805000D02*
X145615000Y-111805001D01*
X149735000Y-101684999D02*
X149735000Y-101740001D01*
X149735000Y-111749999D02*
X149734999Y-111805000D01*
X150275001Y-111755000D02*
X150515000Y-112085000D01*
X150035000Y-112085000D01*
X150275001Y-111755000D01*
G36*
X150515000Y-112085000D02*
G01*
X150035000Y-112085000D01*
X150275001Y-111755000D01*
X150515000Y-112085000D01*
G37*
%TO.C,R3*%
X166625276Y-115577500D02*
X167134724Y-115577500D01*
X166625276Y-116622500D02*
X167134724Y-116622500D01*
%TO.C,C7*%
X137546267Y-117940000D02*
X137253733Y-117940000D01*
X137546267Y-118960000D02*
X137253733Y-118960000D01*
%TO.C,C15*%
X135453733Y-111440000D02*
X135746267Y-111440000D01*
X135453733Y-112460000D02*
X135746267Y-112460000D01*
%TO.C,C30*%
X148153733Y-94190000D02*
X148446267Y-94190000D01*
X148153733Y-95210000D02*
X148446267Y-95210000D01*
%TO.C,C23*%
X152390000Y-80528767D02*
X152390000Y-80236233D01*
X153410000Y-80528767D02*
X153410000Y-80236233D01*
%TO.C,C26*%
X166046267Y-93590000D02*
X165753733Y-93590000D01*
X166046267Y-94610000D02*
X165753733Y-94610000D01*
%TO.C,J2*%
X129870000Y-114395000D02*
X131250000Y-114395000D01*
X129870000Y-115775000D02*
X129870000Y-114395000D01*
X129870000Y-117045000D02*
X129870000Y-119695000D01*
X129870000Y-117045000D02*
X132630000Y-117045000D01*
X129870000Y-119695000D02*
X132630000Y-119695000D01*
X132630000Y-117045000D02*
X132630000Y-119695000D01*
%TO.C,J1*%
X148750000Y-121280000D02*
X148750000Y-123060000D01*
X150650000Y-118360000D02*
X149850000Y-118360000D01*
X158150000Y-121280000D02*
X158150000Y-123060000D01*
%TO.C,C2*%
X157103733Y-115940000D02*
X157396267Y-115940000D01*
X157103733Y-116960000D02*
X157396267Y-116960000D01*
%TO.C,SW2*%
X166099998Y-90399998D02*
X166200000Y-90400001D01*
X166100002Y-84199998D02*
X166099998Y-90399998D01*
X166100002Y-84199998D02*
X166199999Y-84200000D01*
X170699998Y-84200002D02*
X167699999Y-84199998D01*
X170700001Y-90400002D02*
X167700002Y-90399998D01*
X172200001Y-90400000D02*
X172299998Y-90400002D01*
X172300002Y-84200002D02*
X172200000Y-84199999D01*
X172300002Y-84200002D02*
X172299998Y-90400002D01*
%TO.C,C25*%
X145327500Y-80596267D02*
X145327500Y-80303733D01*
X146347500Y-80596267D02*
X146347500Y-80303733D01*
%TO.C,D6*%
X144900000Y-95950000D02*
X144900000Y-101000000D01*
X145350000Y-95500000D02*
X144900000Y-95950000D01*
X151900000Y-95500000D02*
X145350000Y-95500000D01*
X151900000Y-101000000D02*
X144900000Y-101000000D01*
X151900000Y-101000000D02*
X151900000Y-95500000D01*
%TO.C,C24*%
X146490000Y-80603767D02*
X146490000Y-80311233D01*
X147510000Y-80603767D02*
X147510000Y-80311233D01*
%TO.C,JP5*%
X137000000Y-86750000D02*
X137000000Y-85350000D01*
X137700000Y-84649999D02*
X138300001Y-84650000D01*
X138300000Y-87450001D02*
X137699999Y-87450000D01*
X139000000Y-85350000D02*
X139000000Y-86750000D01*
X137000000Y-85350000D02*
G75*
G02*
X137700000Y-84649999I700001J0D01*
G01*
X137699999Y-87450000D02*
G75*
G02*
X137000000Y-86750000I1J700000D01*
G01*
X138300001Y-84650000D02*
G75*
G02*
X139000000Y-85350000I0J-699999D01*
G01*
X139000000Y-86750000D02*
G75*
G02*
X138300000Y-87450000I-700000J0D01*
G01*
%TO.C,D1*%
X135750000Y-119640000D02*
X135750000Y-125150000D01*
X139050000Y-119640000D02*
X135750000Y-119640000D01*
X139050000Y-119640000D02*
X139050000Y-125150000D01*
%TO.C,R5*%
X137672936Y-113590001D02*
X142027064Y-113590001D01*
X137672936Y-117009999D02*
X142027064Y-117009999D01*
%TO.C,J5*%
X136770000Y-69770000D02*
X136770000Y-72430000D01*
X141910000Y-69770000D02*
X136770000Y-69770000D01*
X141910000Y-69770000D02*
X141910000Y-72430000D01*
X141910000Y-72430000D02*
X136770000Y-72430000D01*
X144510000Y-71100000D02*
X144510000Y-72430000D01*
X144510000Y-72430000D02*
X143180000Y-72430000D01*
%TD*%
M02*
