M48
; DRILL file KiCad 10.0.3 date 2026-07-11T16:41:43
; FORMAT={-:-/ absolute / metric / decimal}
; #@! TF.CreationDate,2026-07-11T16:41:43+07:00
; #@! TF.GenerationSoftware,Kicad,Pcbnew,10.0.3
; #@! TF.FileFunction,Plated,1,2,PTH
FMAT,2
METRIC
; #@! TA.AperFunction,Plated,PTH,ComponentDrill
T1C0.200
; #@! TA.AperFunction,Plated,PTH,ViaDrill
T2C0.300
; #@! TA.AperFunction,Plated,PTH,ComponentDrill
T3C0.400
; #@! TA.AperFunction,Plated,PTH,ViaDrill
T4C0.500
; #@! TA.AperFunction,Plated,PTH,ComponentDrill
T5C0.600
; #@! TA.AperFunction,Plated,PTH,ComponentDrill
T6C1.000
; #@! TA.AperFunction,Plated,PTH,ComponentDrill
T7C2.200
%
G90
G05
T1
X138.425Y-78.062
X138.425Y-79.062
X138.425Y-80.062
X138.5Y-96.8
X138.5Y-97.8
X138.5Y-98.8
X139.625Y-78.062
X139.625Y-79.062
X139.625Y-80.062
X139.7Y-96.8
X139.7Y-97.8
X139.7Y-98.8
X140.825Y-78.062
X140.825Y-79.062
X140.825Y-80.062
X140.9Y-96.8
X140.9Y-97.8
X140.9Y-98.8
X142.025Y-78.062
X142.025Y-79.062
X142.025Y-80.062
X142.1Y-96.8
X142.1Y-97.8
X142.1Y-98.8
X163.1Y-102.7
X163.1Y-104.1
X163.8Y-102.0
X163.8Y-103.4
X163.8Y-104.8
X164.5Y-102.7
X164.5Y-104.1
X165.2Y-102.0
X165.2Y-103.4
X165.2Y-104.8
X165.9Y-102.7
X165.9Y-104.1
T2
X129.5Y-72.75
X129.95Y-113.55
X130.045Y-120.95
X132.0Y-96.65
X132.15Y-102.1
X132.45Y-93.8
X132.6Y-94.75
X132.85Y-81.25
X133.3Y-76.95
X133.75Y-113.05
X134.393Y-102.007
X134.45Y-81.15
X134.45Y-86.05
X134.55Y-83.7
X134.55Y-91.1
X134.7Y-69.2
X134.7Y-126.15
X135.05Y-94.65
X135.35Y-118.025
X135.4Y-89.0
X135.75Y-106.0
X135.841Y-109.591
X135.919Y-110.769
X135.95Y-94.85
X136.1Y-93.775
X136.397Y-83.65
X136.573Y-82.45
X136.681Y-76.229
X136.8Y-96.65
X136.881Y-77.048
X137.0Y-72.7
X137.05Y-100.95
X137.25Y-105.8
X139.312Y-118.765
X139.772Y-83.725
X139.848Y-85.352
X140.05Y-114.0
X140.226Y-93.157
X140.55Y-83.828
X140.55Y-105.06
X140.66Y-102.445
X140.922Y-106.362
X141.1Y-109.631
X141.55Y-83.8
X141.8Y-123.35
X141.846Y-104.9
X141.876Y-75.108
X141.925Y-101.803
X142.0Y-84.37
X142.0Y-117.8
X142.85Y-103.75
X143.278Y-100.641
X143.799Y-82.73
X143.844Y-91.679
X143.894Y-121.498
X143.9Y-98.25
X143.937Y-93.819
X143.947Y-73.353
X144.227Y-92.921
X144.876Y-79.917
X145.3Y-113.1
X145.45Y-87.8
X146.387Y-114.2
X147.037Y-111.897
X147.13Y-101.193
X147.221Y-98.989
X147.45Y-124.283
X147.552Y-122.684
X147.703Y-92.652
X147.8Y-76.9
X147.95Y-102.95
X147.981Y-118.9
X148.535Y-111.245
X148.649Y-91.05
X148.668Y-107.611
X148.832Y-104.24
X150.9Y-121.727
X152.051Y-102.968
X152.2Y-121.107
X152.4Y-83.7
X152.508Y-104.587
X152.686Y-115.505
X153.6Y-123.9
X153.7Y-120.472
X153.975Y-117.86
X154.05Y-114.05
X154.254Y-95.292
X154.259Y-87.868
X154.3Y-93.55
X154.4Y-89.6
X155.1Y-111.8
X155.25Y-75.75
X155.4Y-115.1
X155.736Y-99.251
X156.333Y-97.645
X156.547Y-109.123
X156.829Y-76.466
X156.98Y-94.69
X158.115Y-110.981
X158.2Y-102.95
X158.294Y-86.93
X158.34Y-97.415
X158.635Y-98.765
X158.695Y-84.505
X158.963Y-85.547
X159.045Y-122.554
X159.045Y-125.294
X159.096Y-88.461
X159.172Y-75.569
X159.184Y-82.556
X159.726Y-110.879
X159.85Y-111.996
X160.09Y-77.33
X160.132Y-120.204
X160.311Y-80.817
X160.555Y-74.8
X161.278Y-86.65
X161.3Y-111.9
X161.9Y-101.3
X162.06Y-106.528
X162.128Y-102.798
X162.2Y-99.8
X162.8Y-110.35
X163.1Y-93.7
X163.15Y-78.7
X163.3Y-117.125
X163.911Y-94.016
X164.55Y-110.25
X164.94Y-116.929
X165.144Y-93.071
X165.746Y-92.568
X165.87Y-106.374
X166.809Y-116.918
X166.938Y-80.756
X167.14Y-109.76
X167.339Y-77.465
X167.644Y-94.877
X167.767Y-93.941
X168.41Y-112.384
X168.65Y-109.45
X169.45Y-99.2
X169.68Y-94.895
X169.68Y-102.87
X169.68Y-114.922
X170.2Y-87.1
X170.8Y-120.45
X170.95Y-105.75
X170.95Y-108.071
X171.05Y-115.3
X171.45Y-74.65
X171.531Y-93.42
X172.734Y-94.637
T3
X130.85Y-71.9
X131.0Y-123.35
X131.333Y-70.733
X131.333Y-73.067
X131.483Y-122.183
X131.483Y-124.517
X132.5Y-70.25
X132.5Y-73.55
X132.65Y-121.7
X132.65Y-125.0
X133.667Y-70.733
X133.667Y-73.067
X133.817Y-122.183
X133.817Y-124.517
X134.15Y-71.9
X134.3Y-123.35
X167.75Y-72.05
X167.85Y-123.3
X168.233Y-70.883
X168.233Y-73.217
X168.333Y-122.133
X168.333Y-124.467
X169.4Y-70.4
X169.4Y-73.7
X169.5Y-121.65
X169.5Y-124.95
X170.567Y-70.883
X170.567Y-73.217
X170.667Y-122.133
X170.667Y-124.467
X171.05Y-72.05
X171.15Y-123.3
T4
X135.75Y-91.7
X135.85Y-99.2
X136.0Y-87.535
X139.45Y-86.7
X140.15Y-91.4
X143.35Y-110.55
X148.5Y-82.8
T6
X130.85Y-77.375
X130.85Y-79.915
X130.85Y-82.455
X130.85Y-84.995
X130.85Y-87.535
X130.85Y-90.075
X130.85Y-92.615
X130.85Y-95.155
X131.25Y-108.775
X131.25Y-111.315
X131.25Y-115.775
X131.25Y-118.315
X138.1Y-71.1
X140.64Y-71.1
X143.18Y-71.1
X148.72Y-71.0
X148.72Y-73.54
X151.26Y-73.54
X151.26Y-71.0
X153.8Y-71.0
X153.8Y-73.54
X159.283Y-71.058
X159.283Y-73.598
X161.823Y-73.598
X161.823Y-71.058
X164.363Y-71.058
X164.363Y-73.598
T7
X132.5Y-71.9
X132.65Y-123.35
X169.4Y-72.05
X169.5Y-123.3
T5
G00X149.13Y-119.405
M15
G01X149.13Y-120.505
M16
G05
G00X149.13Y-123.835
M15
G01X149.13Y-124.435
M16
G05
G00X157.77Y-119.405
M15
G01X157.77Y-120.505
M16
G05
G00X157.77Y-123.835
M15
G01X157.77Y-124.435
M16
G05
M30
