%TF.GenerationSoftware,KiCad,Pcbnew,10.0.3*%
%TF.CreationDate,2026-07-11T16:41:55+07:00*%
%TF.ProjectId,OmniDrive,4f6d6e69-4472-4697-9665-2e6b69636164,rev?*%
%TF.SameCoordinates,Original*%
%TF.FileFunction,Paste,Top*%
%TF.FilePolarity,Positive*%
%FSLAX46Y46*%
G04 Gerber Fmt 4.6, Leading zero omitted, Abs format (unit mm)*
G04 Created by KiCad (PCBNEW 10.0.3) date 2026-07-11 16:41:55*
%MOMM*%
%LPD*%
G01*
G04 APERTURE LIST*
G04 Aperture macros list*
%AMRoundRect*
0 Rectangle with rounded corners*
0 $1 Rounding radius*
0 $2 $3 $4 $5 $6 $7 $8 $9 X,Y pos of 4 corners*
0 Add a 4 corners polygon primitive as box body*
4,1,4,$2,$3,$4,$5,$6,$7,$8,$9,$2,$3,0*
0 Add four circle primitives for the rounded corners*
1,1,$1+$1,$2,$3*
1,1,$1+$1,$4,$5*
1,1,$1+$1,$6,$7*
1,1,$1+$1,$8,$9*
0 Add four rect primitives between the rounded corners*
20,1,$1+$1,$2,$3,$4,$5,0*
20,1,$1+$1,$4,$5,$6,$7,0*
20,1,$1+$1,$6,$7,$8,$9,0*
20,1,$1+$1,$8,$9,$2,$3,0*%
G04 Aperture macros list end*
%ADD10RoundRect,0.237500X0.237500X-0.300000X0.237500X0.300000X-0.237500X0.300000X-0.237500X-0.300000X0*%
%ADD11RoundRect,0.237500X-0.237500X0.287500X-0.237500X-0.287500X0.237500X-0.287500X0.237500X0.287500X0*%
%ADD12RoundRect,0.237500X0.300000X0.237500X-0.300000X0.237500X-0.300000X-0.237500X0.300000X-0.237500X0*%
%ADD13RoundRect,0.150000X0.150000X-0.587500X0.150000X0.587500X-0.150000X0.587500X-0.150000X-0.587500X0*%
%ADD14RoundRect,0.249999X-1.425001X0.450001X-1.425001X-0.450001X1.425001X-0.450001X1.425001X0.450001X0*%
%ADD15RoundRect,0.250000X1.080000X-0.595000X1.080000X0.595000X-1.080000X0.595000X-1.080000X-0.595000X0*%
%ADD16RoundRect,0.150000X0.150000X-0.687500X0.150000X0.687500X-0.150000X0.687500X-0.150000X-0.687500X0*%
%ADD17RoundRect,0.237500X-0.300000X-0.237500X0.300000X-0.237500X0.300000X0.237500X-0.300000X0.237500X0*%
%ADD18RoundRect,0.237500X-0.250000X-0.237500X0.250000X-0.237500X0.250000X0.237500X-0.250000X0.237500X0*%
%ADD19RoundRect,0.207500X-0.207500X0.207500X-0.207500X-0.207500X0.207500X-0.207500X0.207500X0.207500X0*%
%ADD20RoundRect,0.087500X-0.087500X0.462500X-0.087500X-0.462500X0.087500X-0.462500X0.087500X0.462500X0*%
%ADD21RoundRect,0.087500X-0.462500X0.087500X-0.462500X-0.087500X0.462500X-0.087500X0.462500X0.087500X0*%
%ADD22RoundRect,0.237500X0.250000X0.237500X-0.250000X0.237500X-0.250000X-0.237500X0.250000X-0.237500X0*%
%ADD23RoundRect,0.247500X0.682500X-0.247500X0.682500X0.247500X-0.682500X0.247500X-0.682500X-0.247500X0*%
%ADD24RoundRect,0.100000X0.100000X-0.687500X0.100000X0.687500X-0.100000X0.687500X-0.100000X-0.687500X0*%
%ADD25RoundRect,0.237500X-0.237500X0.300000X-0.237500X-0.300000X0.237500X-0.300000X0.237500X0.300000X0*%
%ADD26RoundRect,0.250000X-0.450000X0.800000X-0.450000X-0.800000X0.450000X-0.800000X0.450000X0.800000X0*%
%ADD27RoundRect,0.150000X0.512500X0.150000X-0.512500X0.150000X-0.512500X-0.150000X0.512500X-0.150000X0*%
%ADD28R,0.900000X1.500000*%
%ADD29R,1.500000X0.900000*%
%ADD30R,0.900000X0.900000*%
%ADD31RoundRect,0.237500X0.237500X-0.250000X0.237500X0.250000X-0.237500X0.250000X-0.237500X-0.250000X0*%
%ADD32RoundRect,0.250000X-1.500000X0.925000X-1.500000X-0.925000X1.500000X-0.925000X1.500000X0.925000X0*%
%ADD33RoundRect,0.237500X0.287500X0.237500X-0.287500X0.237500X-0.287500X-0.237500X0.287500X-0.237500X0*%
%ADD34RoundRect,0.125000X0.125000X-0.537500X0.125000X0.537500X-0.125000X0.537500X-0.125000X-0.537500X0*%
%ADD35RoundRect,0.150000X0.825000X0.150000X-0.825000X0.150000X-0.825000X-0.150000X0.825000X-0.150000X0*%
%ADD36RoundRect,0.150000X-0.150000X-0.500000X0.150000X-0.500000X0.150000X0.500000X-0.150000X0.500000X0*%
%ADD37RoundRect,0.075000X-0.075000X-0.575000X0.075000X-0.575000X0.075000X0.575000X-0.075000X0.575000X0*%
%ADD38R,1.500000X1.000000*%
%ADD39RoundRect,0.250000X-0.650000X1.000000X-0.650000X-1.000000X0.650000X-1.000000X0.650000X1.000000X0*%
%ADD40RoundRect,0.249999X-0.450001X-1.425001X0.450001X-1.425001X0.450001X1.425001X-0.450001X1.425001X0*%
G04 APERTURE END LIST*
D10*
%TO.C,C22*%
X145687500Y-91912500D03*
X145687500Y-90187500D03*
%TD*%
D11*
%TO.C,D5*%
X150200000Y-114825000D03*
X150200000Y-116575000D03*
%TD*%
D12*
%TO.C,C33*%
X148762500Y-112850000D03*
X147037500Y-112850000D03*
%TD*%
D13*
%TO.C,Q2*%
X157450000Y-78387500D03*
X159350000Y-78387500D03*
X158400000Y-76512499D03*
%TD*%
D14*
%TO.C,R6*%
X141700000Y-119450000D03*
X141700000Y-125550000D03*
%TD*%
D15*
%TO.C,U4*%
X162300000Y-121262500D03*
D16*
X160300000Y-123900001D03*
X161300000Y-123900000D03*
X162300000Y-123900000D03*
X163300000Y-123900000D03*
X164300000Y-123900001D03*
X164300000Y-118624999D03*
X163300000Y-118625000D03*
X162300000Y-118625000D03*
X161300000Y-118625000D03*
X160300000Y-118624999D03*
%TD*%
D17*
%TO.C,C28*%
X144937500Y-121950000D03*
X146662500Y-121950000D03*
%TD*%
D18*
%TO.C,R9*%
X162887500Y-82200000D03*
X164712500Y-82200000D03*
%TD*%
D19*
%TO.C,U2*%
X139550000Y-107450000D03*
X138500000Y-107450000D03*
X139550000Y-108500000D03*
X138500000Y-108500000D03*
D20*
X140000000Y-106150000D03*
X139350000Y-106150000D03*
X138700000Y-106150000D03*
X138050000Y-106150000D03*
D21*
X137200000Y-107000000D03*
X137200000Y-107650000D03*
X137200000Y-108300000D03*
X137200000Y-108950000D03*
D20*
X138050000Y-109800000D03*
X138700000Y-109800000D03*
X139350000Y-109800000D03*
X140000000Y-109800000D03*
D21*
X140850000Y-108950000D03*
X140850000Y-108300000D03*
X140850000Y-107650000D03*
X140850000Y-107000000D03*
%TD*%
D22*
%TO.C,R11*%
X164762500Y-87600000D03*
X162937500Y-87600000D03*
%TD*%
D18*
%TO.C,R10*%
X162922500Y-85700000D03*
X164747500Y-85700000D03*
%TD*%
D23*
%TO.C,U7*%
X140300000Y-98415000D03*
X140300000Y-97185000D03*
D24*
X138025000Y-100662500D03*
X138675000Y-100662500D03*
X139325000Y-100662500D03*
X139975000Y-100662500D03*
X140625000Y-100662500D03*
X141275000Y-100662500D03*
X141925000Y-100662500D03*
X142575000Y-100662500D03*
X142575000Y-94937500D03*
X141925000Y-94937500D03*
X141275000Y-94937500D03*
X140625000Y-94937500D03*
X139975000Y-94937500D03*
X139325000Y-94937500D03*
X138675000Y-94937500D03*
X138025000Y-94937500D03*
%TD*%
D25*
%TO.C,C32*%
X166350000Y-77037500D03*
X166350000Y-78762500D03*
%TD*%
D17*
%TO.C,C19*%
X137137500Y-92500000D03*
X138862500Y-92500000D03*
%TD*%
D22*
%TO.C,R13*%
X164762500Y-89600000D03*
X162937500Y-89600000D03*
%TD*%
D10*
%TO.C,C21*%
X146887500Y-91912500D03*
X146887500Y-90187500D03*
%TD*%
D11*
%TO.C,D4*%
X147700000Y-114850000D03*
X147700000Y-116600000D03*
%TD*%
D26*
%TO.C,SW1*%
X160649998Y-82650001D03*
X160650001Y-91749998D03*
X156149999Y-82650002D03*
X156150002Y-91749999D03*
%TD*%
D22*
%TO.C,R1*%
X167800000Y-119800000D03*
X165975000Y-119800000D03*
%TD*%
D17*
%TO.C,C8*%
X140837500Y-111950000D03*
X142562500Y-111950000D03*
%TD*%
D10*
%TO.C,C6*%
X142850000Y-108762500D03*
X142850000Y-107037500D03*
%TD*%
D17*
%TO.C,C17*%
X137570000Y-73850000D03*
X139295000Y-73850000D03*
%TD*%
D25*
%TO.C,C20*%
X152787500Y-90187500D03*
X152787500Y-91912500D03*
%TD*%
D12*
%TO.C,C3*%
X163012500Y-126150000D03*
X161287500Y-126150000D03*
%TD*%
D18*
%TO.C,R7*%
X168337500Y-80400000D03*
X170162500Y-80400000D03*
%TD*%
D22*
%TO.C,R2*%
X163275000Y-116100000D03*
X161450000Y-116100000D03*
%TD*%
D13*
%TO.C,Q1*%
X168300000Y-78337500D03*
X170200000Y-78337500D03*
X169250001Y-76462499D03*
%TD*%
D10*
%TO.C,C4*%
X134100000Y-115712500D03*
X134100000Y-113987500D03*
%TD*%
D27*
%TO.C,U9*%
X151025000Y-91999999D03*
X151025000Y-91050000D03*
X151025000Y-90100001D03*
X148750000Y-90100001D03*
X148750000Y-91999999D03*
%TD*%
D18*
%TO.C,R15*%
X144487500Y-76500000D03*
X146312500Y-76500000D03*
%TD*%
D10*
%TO.C,C5*%
X134100000Y-119750000D03*
X134100000Y-118025000D03*
%TD*%
D23*
%TO.C,U3*%
X140225000Y-79677500D03*
X140225000Y-78447500D03*
D24*
X137950000Y-81925000D03*
X138600000Y-81925000D03*
X139250000Y-81925000D03*
X139900000Y-81925000D03*
X140550000Y-81925000D03*
X141200000Y-81925000D03*
X141850000Y-81925000D03*
X142500000Y-81925000D03*
X142500000Y-76200000D03*
X141850000Y-76200000D03*
X141200000Y-76200000D03*
X140550000Y-76200000D03*
X139900000Y-76200000D03*
X139250000Y-76200000D03*
X138600000Y-76200000D03*
X137950000Y-76200000D03*
%TD*%
D10*
%TO.C,C29*%
X152400000Y-110212500D03*
X152400000Y-108487500D03*
%TD*%
D28*
%TO.C,U8*%
X172220000Y-96150000D03*
X170950000Y-96150000D03*
X169680000Y-96150000D03*
X168410000Y-96150000D03*
X167140000Y-96150000D03*
X165870000Y-96150000D03*
X164600000Y-96150000D03*
X163330000Y-96150000D03*
X162060000Y-96150000D03*
X160790000Y-96150000D03*
X159520000Y-96150000D03*
X158250000Y-96150000D03*
X156980000Y-96150000D03*
X155710000Y-96150000D03*
D29*
X154460000Y-99185000D03*
X154460000Y-100455000D03*
X154460000Y-101725000D03*
X154460000Y-102995000D03*
X154460000Y-104265000D03*
X154460000Y-105535000D03*
X154460000Y-106805000D03*
X154460000Y-108075000D03*
X154460000Y-109345000D03*
X154460000Y-110615000D03*
D28*
X155710000Y-113650000D03*
X156980000Y-113650000D03*
X158250000Y-113650000D03*
X159520000Y-113650000D03*
X160790000Y-113650000D03*
X162060000Y-113650000D03*
X163330000Y-113650000D03*
X164600000Y-113650000D03*
X165870000Y-113650000D03*
X167140000Y-113650000D03*
X168410000Y-113650000D03*
X169680000Y-113650000D03*
X170950000Y-113650000D03*
X172220000Y-113650000D03*
D30*
X165900000Y-102000000D03*
X164500000Y-102000000D03*
X163100000Y-102000000D03*
X165900000Y-103400000D03*
X164500000Y-103400000D03*
X163100000Y-103400000D03*
X165900000Y-104800000D03*
X164500000Y-104800000D03*
X163100000Y-104800000D03*
%TD*%
D18*
%TO.C,R8*%
X157475000Y-80400000D03*
X159300000Y-80400000D03*
%TD*%
D17*
%TO.C,C18*%
X141237500Y-92500000D03*
X142962500Y-92500000D03*
%TD*%
D31*
%TO.C,R4*%
X145400000Y-116587500D03*
X145400000Y-114762500D03*
%TD*%
D32*
%TO.C,L1*%
X132400000Y-98675000D03*
X132400000Y-104725000D03*
%TD*%
D27*
%TO.C,U10*%
X151137500Y-81249999D03*
X151137500Y-80300000D03*
X151137500Y-79350001D03*
X148862500Y-79350001D03*
X148862500Y-81249999D03*
%TD*%
D25*
%TO.C,C31*%
X161250000Y-77037500D03*
X161250000Y-78762500D03*
%TD*%
D17*
%TO.C,C16*%
X140937500Y-73850000D03*
X142662500Y-73850000D03*
%TD*%
D33*
%TO.C,D3*%
X167730000Y-118000000D03*
X165980000Y-118000000D03*
%TD*%
D18*
%TO.C,R14*%
X144487500Y-74800000D03*
X146312500Y-74800000D03*
%TD*%
D34*
%TO.C,U5*%
X144725000Y-126087500D03*
X145375000Y-126087500D03*
X146025000Y-126087500D03*
X146675000Y-126087500D03*
X146675000Y-123812500D03*
X146025000Y-123812500D03*
X145375000Y-123812500D03*
X144725000Y-123812500D03*
%TD*%
D12*
%TO.C,C1*%
X154412500Y-116450000D03*
X152687500Y-116450000D03*
%TD*%
D35*
%TO.C,U1*%
X150150000Y-111190000D03*
X150150000Y-109920000D03*
X150150000Y-108650000D03*
X150150000Y-107380000D03*
X150150000Y-106110000D03*
X150150000Y-104840000D03*
X150150000Y-103570000D03*
X150150000Y-102300000D03*
X145200000Y-102300000D03*
X145200000Y-103570000D03*
X145200000Y-104840000D03*
X145200000Y-106110000D03*
X145200000Y-107380000D03*
X145200000Y-108650000D03*
X145200000Y-109920000D03*
X145200000Y-111190000D03*
%TD*%
D18*
%TO.C,R3*%
X165967500Y-116100000D03*
X167792500Y-116100000D03*
%TD*%
D12*
%TO.C,C7*%
X138262500Y-118450000D03*
X136537500Y-118450000D03*
%TD*%
D17*
%TO.C,C15*%
X134737500Y-111950000D03*
X136462500Y-111950000D03*
%TD*%
%TO.C,C30*%
X147437500Y-94700000D03*
X149162500Y-94700000D03*
%TD*%
D10*
%TO.C,C23*%
X152900000Y-81245000D03*
X152900000Y-79520000D03*
%TD*%
D12*
%TO.C,C26*%
X166762500Y-94100000D03*
X165037500Y-94100000D03*
%TD*%
D36*
%TO.C,J1*%
X150250000Y-119315000D03*
X151050000Y-119315000D03*
D37*
X152200000Y-119315000D03*
X153200000Y-119315000D03*
X153700000Y-119315000D03*
X154700000Y-119315000D03*
D36*
X155850000Y-119315000D03*
X156650000Y-119315000D03*
X156650000Y-119315000D03*
X155850000Y-119315000D03*
D37*
X155200000Y-119315000D03*
X154200000Y-119315000D03*
X152700000Y-119315000D03*
X151700000Y-119315000D03*
D36*
X151050000Y-119315000D03*
X150250000Y-119315000D03*
%TD*%
D17*
%TO.C,C2*%
X156387500Y-116450000D03*
X158112500Y-116450000D03*
%TD*%
D26*
%TO.C,SW2*%
X171449998Y-82750001D03*
X171450001Y-91849998D03*
X166949999Y-82750002D03*
X166950002Y-91849999D03*
%TD*%
D10*
%TO.C,C25*%
X145837500Y-81312500D03*
X145837500Y-79587500D03*
%TD*%
D38*
%TO.C,D6*%
X145950000Y-96650000D03*
X145949999Y-98250000D03*
X145950000Y-99850000D03*
X150850000Y-99850000D03*
X150850001Y-98250000D03*
X150850000Y-96650000D03*
%TD*%
D10*
%TO.C,C24*%
X147000000Y-81320000D03*
X147000000Y-79595000D03*
%TD*%
D39*
%TO.C,D1*%
X137400001Y-121149999D03*
X137399999Y-125150001D03*
%TD*%
D40*
%TO.C,R5*%
X136800000Y-115300000D03*
X142900000Y-115300000D03*
%TD*%
M02*
