%TF.GenerationSoftware,KiCad,Pcbnew,10.0.3*%
%TF.CreationDate,2026-07-11T16:41:55+07:00*%
%TF.ProjectId,OmniDrive,4f6d6e69-4472-4697-9665-2e6b69636164,rev?*%
%TF.SameCoordinates,Original*%
%TF.FileFunction,Soldermask,Bot*%
%TF.FilePolarity,Negative*%
%FSLAX46Y46*%
G04 Gerber Fmt 4.6, Leading zero omitted, Abs format (unit mm)*
G04 Created by KiCad (PCBNEW 10.0.3) date 2026-07-11 16:41:55*
%MOMM*%
%LPD*%
G01*
G04 APERTURE LIST*
%ADD10R,1.700000X1.700000*%
%ADD11C,1.700000*%
%ADD12C,0.700000*%
%ADD13C,4.400000*%
%ADD14C,0.600000*%
%ADD15C,0.650000*%
%ADD16O,1.000000X2.100000*%
%ADD17O,1.000000X1.600000*%
G04 APERTURE END LIST*
D10*
%TO.C,J3*%
X131250000Y-108775000D03*
D11*
X131250000Y-111315000D03*
%TD*%
D12*
%TO.C,HoleC*%
X169500000Y-124950000D03*
X170666726Y-124466726D03*
X167850000Y-123300000D03*
X168333274Y-122133274D03*
X168333274Y-124466726D03*
X169500000Y-121650000D03*
D13*
X169500000Y-123300000D03*
D12*
X170666726Y-122133274D03*
X171150000Y-123300000D03*
%TD*%
%TO.C,HoleA*%
X132500000Y-73550000D03*
X133666726Y-73066726D03*
X130850000Y-71900000D03*
X131333274Y-70733274D03*
X131333274Y-73066726D03*
X132500000Y-70250000D03*
D13*
X132500000Y-71900000D03*
D12*
X133666726Y-70733274D03*
X134150000Y-71900000D03*
%TD*%
D10*
%TO.C,J8*%
X153800000Y-71000000D03*
D11*
X153800000Y-73540000D03*
X151260000Y-71000000D03*
X151259999Y-73540000D03*
X148720000Y-71000000D03*
X148720000Y-73540000D03*
%TD*%
D10*
%TO.C,J11*%
X164363200Y-71058000D03*
D11*
X164363200Y-73598000D03*
X161823200Y-71058000D03*
X161823199Y-73598000D03*
X159283200Y-71058000D03*
X159283200Y-73598000D03*
%TD*%
D10*
%TO.C,J4*%
X130850000Y-77375000D03*
D11*
X130850000Y-79915000D03*
X130850000Y-82455000D03*
X130850000Y-84995000D03*
X130850000Y-87535000D03*
X130850000Y-90075000D03*
X130850000Y-92615000D03*
X130850000Y-95155000D03*
%TD*%
D14*
%TO.C,U8*%
X165200000Y-102000000D03*
X163800000Y-102000000D03*
X165900000Y-102700000D03*
X164500000Y-102700000D03*
X163100000Y-102700000D03*
X165200000Y-103400000D03*
X163800000Y-103400000D03*
X165900000Y-104100000D03*
X164500000Y-104100000D03*
X163100000Y-104100000D03*
X165200000Y-104800000D03*
X163800000Y-104800000D03*
%TD*%
D12*
%TO.C,HoleB*%
X169400000Y-73700000D03*
X170566726Y-73216726D03*
X167750000Y-72050000D03*
X168233274Y-70883274D03*
X168233274Y-73216726D03*
X169400000Y-70400000D03*
D13*
X169400000Y-72050000D03*
D12*
X170566726Y-70883274D03*
X171050000Y-72050000D03*
%TD*%
%TO.C,HoleD*%
X132650000Y-125000000D03*
X133816726Y-124516726D03*
X131000000Y-123350000D03*
X131483274Y-122183274D03*
X131483274Y-124516726D03*
X132650000Y-121700000D03*
D13*
X132650000Y-123350000D03*
D12*
X133816726Y-122183274D03*
X134300000Y-123350000D03*
%TD*%
D10*
%TO.C,J2*%
X131250000Y-115775000D03*
D11*
X131250000Y-118315000D03*
%TD*%
D15*
%TO.C,J1*%
X150560000Y-120455000D03*
X156340000Y-120455000D03*
D16*
X149130000Y-119955000D03*
D17*
X149130000Y-124135000D03*
D16*
X157770000Y-119955000D03*
D17*
X157770000Y-124135000D03*
%TD*%
D10*
%TO.C,J5*%
X143180000Y-71100000D03*
D11*
X140640000Y-71100000D03*
X138100000Y-71100000D03*
%TD*%
M02*
